<?xml version="1.0" encoding="UTF-8" standalone="no"?>
<!-- Created with Inkscape (http://www.inkscape.org/) -->

<svg
   xmlns:dc="http://purl.org/dc/elements/1.1/"
   xmlns:cc="http://creativecommons.org/ns#"
   xmlns:rdf="http://www.w3.org/1999/02/22-rdf-syntax-ns#"
   xmlns:svg="http://www.w3.org/2000/svg"
   xmlns="http://www.w3.org/2000/svg"
   xmlns:sodipodi="http://sodipodi.sourceforge.net/DTD/sodipodi-0.dtd"
   xmlns:inkscape="http://www.inkscape.org/namespaces/inkscape"
   width="200"
   height="200"
   viewBox="0 0 200 200"
   id="svg4181"
   version="1.1"
   inkscape:version="0.91 r13725"
   sodipodi:docname="kim.svg">
  <defs
     id="defs4183" />
  <sodipodi:namedview
     id="base"
     pagecolor="#ffffff"
     bordercolor="#666666"
     borderopacity="1.0"
     inkscape:pageopacity="0.0"
     inkscape:pageshadow="2"
     inkscape:zoom="1.979899"
     inkscape:cx="171.57091"
     inkscape:cy="28.171229"
     inkscape:document-units="px"
     inkscape:current-layer="layer1"
     showgrid="false"
     units="px"
     inkscape:window-width="1920"
     inkscape:window-height="1017"
     inkscape:window-x="-8"
     inkscape:window-y="-8"
     inkscape:window-maximized="1" />
  <metadata
     id="metadata4186">
    <rdf:RDF>
      <cc:Work
         rdf:about="">
        <dc:format>image/svg+xml</dc:format>
        <dc:type
           rdf:resource="http://purl.org/dc/dcmitype/StillImage" />
        <dc:title></dc:title>
      </cc:Work>
    </rdf:RDF>
  </metadata>
  <g
     inkscape:label="Ebene 1"
     inkscape:groupmode="layer"
     id="layer1"
     transform="translate(0,-852.36216)">
    <path
       style="fill:#800000"
       inkscape:connector-curvature="0"
       d="m 102.90614,1052.1138 c -9.778449,-0.273 -19.177096,-2.5121 -27.472854,-7.1954 -19.581731,-11.0571 -32.917174,-26.7849 -37.517164,-48.41552 -0.480596,-2.25713 -0.531724,-4.60433 -0.677801,-6.9155 -0.07012,-1.11402 -0.385646,-1.81652 -1.636072,-2.13936 -3.741053,-0.96576 -5.18138,-3.73557 -5.648829,-7.03329 -0.467449,-3.29771 -1.263573,-6.46241 -2.518381,-9.59109 -3.045722,-7.59444 -3.145055,-15.56993 -2.633783,-23.52879 0.163607,-2.55643 1.438866,-4.94519 3.64172,-6.69381 1.754394,-1.39391 3.514632,-1.71953 5.38881,-0.15519 1.237279,1.03227 2.551979,1.98279 3.96017,3.06771 0.886692,-1.5685 0.130009,-3.01367 0.111019,-4.41867 -0.211813,-15.75006 -0.955349,-31.49596 -0.503969,-47.25296 0.106637,-3.72586 0.382724,-7.45034 0.409018,-11.17621 0.05551,-8.0129 4.540098,-13.58022 11.129668,-17.78411 9.7989,-6.25043 20.87452,-7.53349 32.348931,-6.72014 5.938063,0.42122 11.785558,1.34818 17.152456,3.99744 1.18761,0.58611 1.561571,-0.18151 2.081611,-0.80919 1.45932,-1.76525 3.02965,-3.41133 4.91406,-4.79831 2.20285,-1.61977 4.38671,-1.73893 6.76048,-0.37273 3.71476,2.13936 6.81161,4.92995 9.42932,8.16947 0.93928,1.16252 1.55281,1.40915 2.52569,0.21338 0.15922,-0.19537 0.36665,-0.35471 0.55363,-0.52929 4.29761,-3.98913 9.06121,-6.06337 15.38053,-4.76645 5.73648,1.17637 11.42037,2.27514 16.61928,4.96874 10.38467,5.38165 14.76408,14.37694 16.4542,24.89222 1.67259,10.40721 0.74208,20.8255 -0.34182,31.21054 -0.89254,8.55605 -2.0597,17.08578 -3.12607,25.80256 3.13191,-0.50713 4.79866,1.33294 6.10752,3.53049 3.24146,5.43847 3.08954,11.24134 1.89024,17.14259 -0.7114,3.50001 -1.82889,6.89057 -3.03841,10.25341 -1.043,2.89728 -1.94868,5.8098 -2.58704,8.82485 -0.78298,3.69539 -2.64985,6.76587 -7.07309,7.3201 -1.74417,0.21893 -1.48999,1.45349 -1.65944,2.35413 -1.60978,8.58238 -4.2348,16.87098 -7.72022,24.92968 -4.27862,9.8931 -11.81039,17.2119 -20.60281,23.5468 -5.5641,4.0085 -11.39845,7.5557 -18.13848,9.5481 -1.13795,0.3367 -2.45119,0.5903 -3.60374,0.8827 -4.59415,0.084 -6.85689,-0.2384 -10.35838,-0.3589 z M 86.056064,879.31754 c 4.857087,-1.62531 9.944977,-1.44102 15.247606,-1.56434 -2.810541,-1.56572 -5.860646,-2.05899 -9.66013,-1.42578 -2.185324,0.36441 -4.423236,0.83413 -5.61377,2.97211 l -0.02629,0.0665 0.05259,-0.0485 z m -8.322053,10.01785 c -1.527974,-0.18012 -2.606028,-0.0485 -3.733749,0.25911 -10.787846,2.94162 -18.553342,12.08101 -19.403515,23.11727 -0.162147,2.10749 -0.873545,3.6455 -2.541754,5.12809 -6.265277,5.57425 -10.676827,12.16691 -11.522618,20.51374 -0.341822,3.37808 -0.780055,6.75478 -0.940741,10.14256 -0.293616,6.20331 -0.590154,12.40939 0.179676,18.61409 0.782977,6.32108 2.163412,12.6006 1.742708,19.02007 -0.368116,5.61166 0.591615,11.04596 2.370843,16.37358 8.43015,25.2387 31.53966,42.9438 59.203879,45.4836 8.0781,0.7413 15.62448,-0.3824 22.43317,-4.8122 1.22121,-0.7939 2.53006,-1.4673 3.73667,-2.2793 10.65637,-7.1732 19.44734,-15.7611 23.86327,-27.7923 2.89526,-7.8882 4.97833,-15.93296 6.58957,-24.14954 2.57535,-13.13683 6.41866,-26.05474 7.45289,-39.45344 0.29215,-3.78268 1.57764,-7.57505 0.63836,-11.34942 -1.82597,-7.32841 -4.64674,-14.32982 -8.81726,-20.77007 -0.93928,-1.45072 -1.22267,-2.7989 -0.87939,-4.41589 0.71578,-3.37116 0.59892,-6.7534 -0.17383,-10.10515 -1.50752,-6.53585 -7.14613,-12.09348 -13.35882,-11.63623 -4.55032,0.33531 -7.9364,-1.06552 -11.76218,-2.72408 -6.13089,-2.65619 -12.82125,-3.60948 -19.51746,-4.23161 -3.98208,-0.36995 -7.96124,-1.01703 -11.93894,0.19398 -8.579147,2.61462 -16.668936,6.19361 -24.070698,11.0723 -4.491893,2.96101 -8.773434,6.18668 -10.684132,11.38959 0.86332,-7.35335 5.232508,-12.74193 11.134051,-17.58875 z m -40.952914,63.91336 c 0,-1.19715 0.111019,-2.20448 -0.02191,-3.18133 -0.327214,-2.40955 -0.955348,-4.71795 -3.403613,-6.06198 -1.250426,-0.68587 -2.312411,-0.60273 -3.02381,0.77317 -0.559478,1.08076 -1.437406,1.96061 0.379802,2.97626 1.903394,1.06413 3.016507,2.82938 2.026099,5.06158 -3.218094,7.25497 -2.157569,13.96818 2.708283,20.238 0.102254,0.13163 0.140235,0.3076 0.246871,0.43231 0.822419,0.96714 0.633978,1.58928 -0.433851,2.40955 -1.85957,1.42855 -1.272337,6.04812 0.778595,7.18985 1.06929,0.59442 1.76462,0.58334 1.678434,-0.91449 -0.195744,-3.38224 -0.311146,-6.76863 -0.46891,-10.15364 -0.01461,-0.32562 0.0058,-0.7219 -0.175293,-0.95884 -2.842674,-3.7217 -1.846424,-8.05446 -2.172177,-12.17245 -0.02483,-0.31453 0.05113,-0.86461 0.233724,-0.93251 2.706822,-1.00732 1.282564,-3.22566 1.647758,-4.70548 z M 171.7234,966.16943 c 0.0131,-2.50793 -0.32868,-4.95628 -1.01524,-7.36306 -0.23665,-0.83274 -0.10956,-1.97585 -1.49438,-1.96061 -1.3965,0.0166 -1.25189,1.09877 -1.37459,1.98001 -1.22121,8.75835 -2.45557,17.51531 -3.65633,26.27643 -0.0774,0.56671 -0.78152,1.36066 0.12855,1.70429 0.89692,0.33808 1.69742,-0.20369 2.216,-0.93944 0.78444,-1.11124 1.14671,-2.37906 1.42572,-3.68152 0.20597,-0.96576 0.36811,-1.97863 0.80635,-2.85433 2.09475,-4.17619 2.62063,-8.6475 2.96392,-13.16177 z M 64.090344,862.64744 c 6.021327,-1.77633 11.366314,-1.4812 16.759507,-0.86046 5.273409,0.6069 10.391975,1.93152 16.252617,3.2229 -6.484394,-4.4824 -25.610362,-8.10989 -33.012124,-2.36244 z m 86.397726,5.12947 c -5.05868,-4.83018 -15.44773,-4.58216 -24.49725,0.86323 8.56016,-1.89411 16.42499,-4.01407 24.49725,-0.86323 z m -23.82237,-2.86679 c 7.76841,-2.61878 15.61571,-4.38818 24.23577,-1.88996 -5.87087,-4.65421 -15.76472,-3.82285 -24.23577,1.88996 z m 48.62638,91.25392 c 0.0307,-2.92637 -0.56094,-5.22369 -2.03487,-7.22726 -0.70263,-0.95468 -1.84204,-1.68211 -3.11291,-1.45488 -1.36875,0.24525 -0.96996,1.55187 -1.12042,2.46082 -0.13147,0.79118 -0.12417,1.60175 -0.19282,2.6354 3.87982,-1.88579 4.58976,1.33156 6.46102,3.58592 z m -73.69626,-85.18502 c -3.020891,-3.73279 -7.140282,-4.91055 -10.606708,-3.35036 1.701806,0.52652 3.340799,1.02672 4.97541,1.54216 1.685737,0.53346 3.368557,1.08077 5.631298,1.8082 z m -8.421384,1.02535 c 2.725812,1.4618 5.290933,2.50099 8.259244,2.71715 -1.779231,-2.51209 -4.513809,-3.46399 -8.259244,-2.71715 z"
       id="XMLID_152_" />
    <polygon
       style="fill:#800000"
       points="61.295,18.81 61.314,18.824 61.278,18.858 "
       id="XMLID_118_"
       transform="matrix(1.4607781,0,0,1.3855954,-3.5100848,853.23509)" />
    <path
       style="fill:#800000"
       inkscape:connector-curvature="0"
       d="m 128.3675,1008.7737 c -2.1751,-0.7635 -4.43784,-1.3593 -6.50776,-2.3236 -4.80012,-2.235 -9.97712,-2.0715 -15.08108,-2.4165 -3.57014,-0.2411 -7.127131,-0.1995 -10.708962,0.1039 -2.661538,0.2259 -2.150265,1.254 -1.120417,2.5994 2.359157,3.0843 5.803669,4.384 9.597309,4.9535 2.06554,0.3104 4.16176,0.3034 6.2682,0.1746 5.29678,-0.3243 9.41472,3.8589 8.63612,9.0064 -3.98062,-2.695 -8.28991,-4.2843 -13.11924,-4.1568 -4.78551,0.1261 -8.998399,1.7029 -12.629893,4.9203 -1.14525,-1.2111 -0.875007,-2.6119 -0.689488,-3.9254 0.124166,-0.8813 0.610606,-1.7112 0.854555,-2.5856 0.465989,-1.6641 2.226226,-3.349 0.547792,-5.056 -2.017334,-2.0521 -4.721235,-2.6895 -7.644252,-2.4207 -0.514193,0.047 -0.975799,0.2051 -1.425719,0.5362 -0.388567,0.2869 -0.13147,1.4702 -1.104348,0.8702 -0.588694,-0.3616 -0.819497,-1.0974 -0.708478,-1.7749 0.292156,-1.793 1.503141,-2.9126 3.158203,-3.6857 3.818474,-1.7847 7.850221,-3.2673 11.376537,-5.4759 2.925941,-1.83314 5.635681,-2.43033 8.891761,-1.45349 0.72308,0.21754 1.61416,0.27019 2.34017,0.0873 3.58036,-0.90617 5.96581,0.79257 8.41846,2.95132 3.44744,3.03447 7.17242,5.78487 10.77762,8.65577 -0.0424,0.1386 -0.0847,0.2772 -0.12709,0.4157 z"
       id="XMLID_117_" />
    <path
       style="fill:#800000"
       inkscape:connector-curvature="0"
       d="m 91.494541,971.07721 c -0.501047,2.19755 -0.889614,3.94479 -0.227882,5.76962 1.189074,3.28386 4.905293,4.79 7.9627,2.88758 1.497301,-0.93112 2.391301,-0.86184 3.523401,0.35194 0.73915,0.79117 1.67551,1.46042 2.63086,2.01743 2.65569,1.54771 4.85563,1.38698 7.13444,-0.60412 1.90339,-1.66272 3.687,-1.85254 5.78906,-0.29652 1.89025,1.39945 4.15007,0.65539 5.0207,-1.47289 0.93197,-2.27653 0.40463,-4.50318 -0.36666,-6.8199 3.10708,1.97309 8.27969,11.6875 8.72377,16.43316 -2.24522,-2.41786 -3.51609,-5.25556 -6.02425,-7.63186 -2.48332,4.72627 -7.61065,3.80762 -11.73589,5.00616 -2.05532,0.59719 -3.21809,1.12649 -2.76087,3.40164 0.25564,1.27474 0.0453,2.63263 0.0453,3.94756 -3.24,0.0845 -3.27798,-2.25437 -3.47519,-4.21776 -0.15192,-1.50614 -0.5624,-2.17122 -2.28612,-2.14074 -1.64191,0.0291 -3.28967,-0.34363 -4.93743,-0.49882 -4.738761,-0.44754 -8.850851,-1.85946 -10.732333,-6.68688 -2.79593,2.72962 -4.833715,5.5022 -7.057019,8.23044 -0.352048,-4.03624 4.763597,-14.59032 8.773433,-17.67604 z"
       id="XMLID_116_" />
    <path
       style="fill:#800000"
       inkscape:connector-curvature="0"
       d="m 56.389122,935.47849 c 5.147782,-4.91055 11.136972,-6.98894 17.818571,-7.37414 7.58582,-0.43785 14.870721,1.07938 22.005161,3.39332 0.799046,0.25911 2.011495,0.33532 1.387735,1.47844 -1.535273,2.81553 -0.143152,5.44539 0.30092,8.14453 0.25418,1.53939 0.91445,3.01921 0.76253,4.91055 -11.027413,-14.39634 -25.573841,-15.89833 -42.274917,-10.5527 z"
       id="XMLID_115_" />
    <path
       style="fill:#800000"
       inkscape:connector-curvature="0"
       d="m 86.757237,945.74021 c -0.425086,1.93568 -0.851633,3.51387 -2.378146,4.59602 -3.914886,2.77396 -8.606905,0.99624 -9.829576,-3.72587 -0.138774,-0.53484 0.482057,-1.51168 -0.686566,-1.52831 -0.692409,-0.01 -1.327847,0.45171 -1.70911,1.03089 -0.31845,0.48357 -0.457224,1.06967 -0.75084,1.57126 -0.575547,0.98377 -0.24395,2.63956 -1.999805,2.76288 -1.780689,0.1247 -6.478551,-2.21973 -6.859814,-3.25061 -0.292156,-0.78979 0.360812,-1.06691 0.823879,-1.35095 7.127136,-4.36047 14.875103,-6.21301 23.16794,-4.15541 3.790719,0.94082 6.072455,3.98913 7.581439,7.42541 0.406096,0.92281 0.289234,1.6738 -0.54341,2.174 -0.942202,0.56671 -1.631689,-0.0693 -2.249598,-0.69834 -1.4637,-1.49506 -2.424892,-3.42381 -4.566393,-4.85097 z"
       id="XMLID_114_" />
    <path
       style="fill:#800000"
       inkscape:connector-curvature="0"
       d="m 116.51037,944.79523 c 0,-4.02377 0.001,-8.04615 -10e-4,-12.06992 0,-0.6055 0.0467,-1.04197 0.90422,-1.193 9.03199,-1.58373 18.07859,-3.06216 27.21868,-0.88539 2.99897,0.71358 5.7131,2.06731 7.0614,5.27773 -14.0337,-5.19598 -26.15816,-3.92262 -34.74023,9.60495 -0.14754,-0.24387 -0.29507,-0.48912 -0.44261,-0.73437 z"
       id="XMLID_106_" />
    <path
       style="fill:#800000"
       inkscape:connector-curvature="0"
       d="m 135.835,941.98109 c 5.326,0.42261 10.00925,2.89174 14.04246,6.66056 1.11457,1.04196 0.6369,1.64608 -0.49666,2.23219 -2.26567,1.17221 -4.21727,0.77455 -5.78469,-1.23318 -0.46744,-0.59719 -0.92321,-1.20547 -1.43302,-1.7694 -0.68656,-0.75792 -1.40965,-1.59482 -2.6221,-1.31493 -1.38335,0.31868 -0.7187,1.52415 -0.87792,2.30563 -0.49375,2.41647 -1.89901,3.76882 -4.30199,3.87412 -2.77548,0.12055 -4.5255,-1.07245 -5.18285,-3.54158 -0.17675,-0.66509 0.16945,-1.65856 -0.9422,-1.77079 -0.84287,-0.0845 -1.44909,0.51544 -1.90777,1.14311 -0.54487,0.74407 -0.98311,1.56157 -1.56304,2.27931 -1.04299,1.29276 -2.24083,0.58333 -3.23562,-0.008 -1.34099,-0.79811 0.0248,-1.39114 0.41048,-1.90935 3.27214,-4.40897 7.75673,-6.7534 13.89492,-6.94738 z"
       id="XMLID_105_" />
    <path
       style="fill:#800000"
       inkscape:connector-curvature="0"
       d="m 94.953663,1033.5205 c 10.133417,3.5859 19.514537,2.8987 28.993527,-1.4189 -0.54195,1.9232 -1.96183,2.7047 -3.30282,3.4765 -4.32829,2.4885 -9.05829,4.1346 -13.78536,5.7724 -0.47184,0.1635 -1.11312,0.3589 -1.50168,0.187 -4.02883,-1.7791 -8.035745,-3.6122 -10.403667,-8.017 z"
       id="XMLID_104_" />
  </g>
</svg>
