<?xml version="1.0" encoding="UTF-8" standalone="no"?>
<!-- Created with Inkscape (http://www.inkscape.org/) -->

<svg
   xmlns:dc="http://purl.org/dc/elements/1.1/"
   xmlns:cc="http://creativecommons.org/ns#"
   xmlns:rdf="http://www.w3.org/1999/02/22-rdf-syntax-ns#"
   xmlns:svg="http://www.w3.org/2000/svg"
   xmlns="http://www.w3.org/2000/svg"
   xmlns:sodipodi="http://sodipodi.sourceforge.net/DTD/sodipodi-0.dtd"
   xmlns:inkscape="http://www.inkscape.org/namespaces/inkscape"
   width="600"
   height="600"
   viewBox="0 0 600 600"
   id="svg4181"
   version="1.1"
   inkscape:version="0.91 r13725"
   sodipodi:docname="nuclear-explosions.svg">
  <defs
     id="defs4183" />
  <sodipodi:namedview
     id="base"
     pagecolor="#ffffff"
     bordercolor="#666666"
     borderopacity="1.0"
     inkscape:pageopacity="0.0"
     inkscape:pageshadow="2"
     inkscape:zoom="0.7"
     inkscape:cx="-11.816836"
     inkscape:cy="171.0759"
     inkscape:document-units="px"
     inkscape:current-layer="layer1"
     showgrid="false"
     units="px"
     inkscape:window-width="1920"
     inkscape:window-height="1017"
     inkscape:window-x="-8"
     inkscape:window-y="-8"
     inkscape:window-maximized="1" />
  <metadata
     id="metadata4186">
    <rdf:RDF>
      <cc:Work
         rdf:about="">
        <dc:format>image/svg+xml</dc:format>
        <dc:type
           rdf:resource="http://purl.org/dc/dcmitype/StillImage" />
        <dc:title />
      </cc:Work>
    </rdf:RDF>
  </metadata>
  <g
     inkscape:label="Ebene 1"
     inkscape:groupmode="layer"
     id="layer1"
     transform="translate(0,-452.36216)">
    <path
       style="fill:#800000;fill-rule:nonzero;stroke:#000000;stroke-width:12.23300171;stroke-miterlimit:4;stroke-dasharray:none"
       inkscape:connector-curvature="0"
       id="path3039"
       d="m 190.42463,977.55629 c 0.98501,-2.77606 -27.14068,-28.64581 -36.18759,-10.43995 -1.97808,3.98106 -2.62267,-8.26518 -8.91634,-8.70026 -6.29368,-0.43807 -13.11074,6.95997 -13.11074,6.95997 l -4.72061,-2.17477 c 0,0 -1.04965,-15.66023 -20.45449,-20.8799 -19.405236,-5.21967 -29.786263,8.39181 -30.943493,16.0947 -0.813673,5.41651 -1.573479,13.04919 -1.573479,13.04919 0,0 -9.208255,-8.4044 -14.685126,-5.65355 -19.929619,10.00487 4.195761,13.48366 4.195761,13.48366 0,0 -25.534777,-2.73946 -36.712702,6.96117 -5.843246,5.06904 -5.769109,13.48486 -1.573348,16.52915 4.195761,3.0437 13.111759,4.3501 13.111759,4.3501 -6.587869,5.6392 -3.828956,8.6943 2.097743,10.8745 0,0 -13.636154,6.9593 -8.391418,13.9193 5.244773,6.96 24.125414,-0.4381 24.125414,-0.4381 0,0 1.256879,10.3548 18.356471,9.571 10.24536,-0.4681 29.894548,-6.091 29.894548,-6.091 0,0 -10.622237,4.6891 -3.14669,6.5261 14.16051,3.4788 17.30751,-3.915 17.30751,-3.915 0,0 -1.55971,4.802 6.81849,5.6553 9.01181,0.9164 12.06249,-3.9151 12.06249,-3.9151 0,0 9.30119,2.5181 14.68525,2.1748 6.81706,-0.438 13.6356,-5.2197 13.6356,-5.2197 0,0 5.76887,4.7846 14.16041,3.9139 6.06886,-0.6343 15.20999,-2.6092 15.20999,-2.6092 0,0 12.58732,4.3495 26.2229,3.915 13.6369,-0.438 28.32221,-3.0455 37.23712,-0.8701 8.91642,2.1747 38.81036,6.9593 54.54514,1.7396 3.80279,-1.2607 11.01421,-5.6547 14.16042,-4.3489 3.14748,1.3046 5.24535,6.0886 11.53911,4.784 6.29219,-1.3046 11.53762,-0.8701 11.53762,-0.8701 18.8649,2.1615 34.67363,1.7889 38.28537,-8.6997 l 12.58738,-0.8701 c 5.59526,7.8817 11.18921,2.9585 16.78316,4.3501 0,0 -1.04824,6.96 15.20994,6.96 16.25832,0 16.25832,-7.8295 16.25832,-7.8295 0,0 6.29367,5.6547 12.06251,5.6547 5.7688,0 5.24548,3.045 16.25832,4.3496 11.01429,1.3045 25.17462,1.3045 26.74771,-5.2197 1.5744,-6.525 2.62282,-7.8289 2.62282,-7.8289 0,0 7.03778,4.5367 20.97884,-8.2658 5.70966,-5.2443 8.29324,-17.2289 1.04946,-27.40603 -3.39899,-4.77261 -16.78299,-2.17356 -16.78299,-2.17356 0,0 7.8666,-5.21968 6.29366,-13.48426 -2.93219,-15.40338 -18.3575,-23.05527 -27.27249,-21.31498 -8.91641,1.74029 -8.91641,3.47939 -8.91641,3.47939 0,0 6.40257,-12.66513 -8.91643,-14.78949 -14.11054,-1.95632 -11.53767,10.87503 -11.53767,10.87503 0,0 -3.18785,-17.82299 -19.40584,-16.52977 -26.73157,2.13155 -30.94348,21.31378 -30.94348,21.31378 0,0 -2.62135,-5.65415 -9.43979,-5.21968 -6.81848,0.43807 -7.86673,10.87501 -7.86673,10.87501 0,0 -3.14749,-3.47997 -7.34326,-3.91565 -4.19583,-0.43207 -13.11081,11.74637 -13.11081,11.74637 0,0 -1.59191,-10.25631 -9.44115,-10.87502 -22.0272,-1.74029 -20.45408,10.43995 -23.07676,11.74397 -2.6213,1.30521 -4.19587,-7.39504 -18.88097,-1.7397 -5.42313,2.08836 -13.11088,13.04919 -16.78315,13.48486 -3.67096,0.43208 -1.72922,-5.19986 -8.9151,-6.52429 -23.60157,-4.35012 -27.79725,3.91446 -32.51782,2.17537 -4.7193,-1.7409 -5.22251,-15.09914 -14.68384,-15.66082 -19.88625,-1.1798 -20.97893,10.87562 -20.97893,10.87562 0,0 -1.04963,-5.21969 -4.72059,-4.78641 -3.67097,0.43807 -6.29367,4.78641 -8.3915,4.78641 -2.0979,0 0,-3.91506 -6.29372,-5.21969 -6.29364,-1.30582 -11.01416,2.60865 -13.63552,3.91386 -2.62278,1.30583 -5.77026,-2.60923 -5.77026,-2.60923 z" />
    <path
       style="fill:#b23724;fill-rule:nonzero;stroke:#000000;stroke-width:12.23300171;stroke-miterlimit:4;stroke-dasharray:none"
       inkscape:connector-curvature="0"
       id="path3035-4"
       d="m 240.19203,697.75723 c 0,0 4.45147,86.12439 2.96716,91.04521 -1.48291,4.92204 -6.52373,63.88072 -8.90021,75.05159 -4.45011,20.91591 -26.70192,134.10747 -26.70192,134.10747 l 136.47444,-1.23019 c 0,0 -10.38331,-99.65811 -10.38331,-107.03995 0,-7.38184 -2.96714,-82.43282 -1.48415,-88.58445 1.48415,-6.15282 0,-102.11972 0,-102.11972 l -91.97201,-1.22996 z" />
    <path
       style="fill:#501616;fill-rule:nonzero;stroke:none;stroke-width:1.20000005"
       inkscape:connector-curvature="0"
       id="path3069"
       d="m 236.52417,845.62777 c -0.10898,0.51009 -0.92576,21.93368 -2.48549,26.46984 5.36934,-0.77052 8.23281,-5.34449 16.59617,-2.40699 5.59793,1.96592 9.72241,-0.57611 18.85266,0.87193 11.63732,1.84532 6.32331,2.308 21.18073,-0.71772 13.00311,-2.64824 18.92269,1.21821 25.96731,-3.0233 9.98346,-3.10732 15.88695,-0.99797 16.64573,6.98457 -0.47484,-15.21376 -1.85958,-21.03712 -2.02918,-35.37833 l -94.72793,7.2 z" />
    <path
       style="fill:#924848;fill-rule:nonzero;stroke:#000000;stroke-width:8.44385147;stroke-miterlimit:4;stroke-dasharray:none;stroke-opacity:1"
       inkscape:connector-curvature="0"
       id="path3037"
       d="m 245.19371,822.62345 c -7.3123,-3.56759 -10.78517,-4.54216 -23.56744,2.06555 -4.41929,2.28638 -13.18248,-2.47721 -17.17697,-3.71642 -3.99467,-1.23981 -21.96891,-13.63008 -33.15402,-9.50139 -11.1851,4.13049 -11.69963,-0.084 -16.77688,2.4796 -4.31642,2.17777 -5.99192,10.73821 -10.38514,10.32655 -4.39461,-0.41408 -12.38379,-1.23982 -13.58096,2.06554 -1.19868,3.30415 -5.6267,3.98347 -12.38366,4.54276 -9.9862,0.82634 -14.77953,13.21722 -7.18998,13.63128 8.41458,0.45608 12.38305,10.32533 23.9668,1.23862 3.88442,-3.04792 8.38778,-8.261 9.1878,-5.36911 0.79871,2.89069 1.38717,7.67169 6.79052,8.26039 15.17831,1.65147 11.1837,-7.84692 15.5783,-7.84692 4.3932,0 8.74589,11.48232 19.17286,13.21602 6.73977,1.12098 14.77969,-7.43405 19.17433,-7.43405 4.39317,0 3.3916,4.2325 11.58378,4.54216 7.60209,0.29405 4.39316,-6.19543 7.98913,-5.78197 3.59456,0.41407 6.05123,13.26103 22.36878,10.7388 9.56324,-1.47743 9.18784,-11.15226 16.777,-10.7388 7.5891,0.41407 9.58641,-0.41406 18.37415,3.30476 8.78781,3.71762 27.96217,2.47721 30.75807,0.82634 2.79598,-1.65208 13.58099,-2.89129 13.58099,-2.89129 0,0 1.19871,4.95624 7.19063,4.54216 5.99047,-0.41407 10.78507,-7.43344 13.58092,-6.60711 2.79592,0.82514 7.18915,12.39208 14.37971,11.15167 7.19054,-1.23859 9.98651,-9.91305 14.77969,-9.91305 4.79328,0 9.98656,0 13.98111,2.47781 3.99456,2.47902 12.38232,7.43524 19.17287,6.6089 6.79046,-0.82633 12.38224,-6.19543 18.3741,-5.78316 5.99192,0.41407 20.77161,4.95683 34.7527,0.82813 7.00941,-2.07214 8.93283,-12.03801 1.99732,-12.80614 -11.18523,-1.23921 -13.58102,3.71882 -13.58102,3.71882 0,0 12.38237,-18.17645 -2.7958,-17.76238 -7.28788,0.20404 -7.1907,1.23982 -7.1907,1.23982 0,0 7.1907,-14.45764 -9.98644,-13.63129 -4.38881,0.21603 -15.17826,-11.15287 -24.36624,-5.3691 -9.18764,5.78257 -16.71162,17.3351 -17.17683,14.8693 -0.83501,-4.43055 -17.53944,-3.41698 -20.77022,1.2398 -0.961,1.38322 -3.52927,-11.44033 -12.38379,-8.26098 -13.24913,4.75699 -11.98231,12.80374 -14.37964,12.80374 -2.39727,0 -1.65659,-7.1172 -9.5864,-4.54276 -9.47045,3.07251 -11.98375,10.32593 -16.77698,10.32593 -4.7932,0 -13.58108,-6.60951 -17.17706,-9.50019 -3.59456,-2.89129 -21.57026,-8.261 -35.15117,0.41407 -13.58101,8.67506 -13.86514,2.00673 -17.97422,0 z" />
    <path
       style="fill:#a8572f;fill-rule:nonzero;stroke:#000000;stroke-width:8.3559761;stroke-miterlimit:2.20000005;stroke-dasharray:none"
       inkscape:connector-curvature="0"
       id="path3080"
       d="m 96.215756,940.50547 c -16.021946,0 -19.590669,3.86225 -23.151142,15.39799 -3.560382,11.53693 -1.787467,16.35154 -1.787467,16.35154 l -10.071456,6.71032 c 0,0 -36.213763,0 -35.620246,5.75617 0.593361,5.76876 -0.55445,7.71849 5.972971,9.64182 6.527384,1.92212 20.753075,-2.40221 20.753075,-2.40221 0,0 -8.896367,6.72112 -5.929439,9.6058 2.966945,2.8847 26.682562,-7.13338 26.682562,-7.13338 -10.772705,18.18838 39.734526,16.34068 41.549556,11.05388 15.93982,5.2947 16.88573,-1.4277 12.47007,-6.70915 7.31902,7.76705 22.54447,10.32175 24.89385,5.26105 6.32016,10.4856 20.04444,7.7305 33.26643,5.7922 -0.59431,12.7935 10.80836,9.2331 22.54031,5.2617 13.45913,9.8806 37.18121,5.0996 40.33012,-2.8601 -2.01608,10.2696 34.7437,5.83 35.00889,3.3545 16.86337,6.7476 26.82756,2.1641 36.79748,-2.4009 -1.829,6.6912 12.94012,7.8973 23.76245,2.4009 10.74134,3.609 13.51922,0.3662 12.42534,-6.2512 8.65835,10.9387 21.1172,4.3334 23.15151,0.4921 11.33706,3.2778 8.47277,-2.5114 9.5039,-5.7922 3.36644,11.7596 20.29679,5.1939 20.75301,1.9432 0.36128,1.8933 8.39055,8.8755 12.46995,-1.4487 1.26128,5.1669 3.14472,9.5723 12.46859,4.8027 21.74515,5.5946 26.13283,-0.2821 26.72584,-8.6523 13.91114,7.3134 24.9652,8.5688 27.86011,-7.69753 23.27422,3.14813 16.32492,-0.096 8.32777,-6.32206 7.24932,-0.83893 -1.31009,-5.84258 -1.78725,-6.25125 14.42184,5.45012 26.17489,-1.94012 24.93857,-9.35917 -0.78542,-4.71199 -6.55309,-7.92972 -13.07969,-9.85304 -6.52788,-1.92332 -16.6122,1.41323 -16.6122,1.41323 0,0 3.55775,-10.81861 -7.71668,-13.70269 -11.27428,-2.88469 -11.29253,10.34753 -11.29253,10.34753 0,0 -11.22553,-14.73727 -23.10673,-14.90409 -17.20934,-0.24005 -28.80875,11.78357 -29.99596,18.75314 -4.25817,0.73152 -5.90016,-5.03545 -9.46073,-4.55537 -3.56039,0.48008 -10.11496,10.80601 -10.11496,10.80601 0,0 -0.88448,-5.04384 -7.41251,-3.6012 -6.52658,1.44204 -11.85895,13.20761 -11.85895,13.20761 0,0 -7.4919,-12.76534 -14.82353,-13.20761 -16.92487,-1.02377 -13.65177,13.22201 -18.39821,13.70209 -4.74762,0.48009 -1.19554,-7.70048 -12.46994,-5.29828 -11.27427,2.4046 -25.50506,17.3057 -25.50506,17.3057 0,0 -4.26074,-7.67469 -11.90213,-8.65225 -16.91212,-2.16277 -33.2231,2.4016 -33.2231,2.4016 0,0 -6.79862,-14.65506 -14.82365,-15.61042 -15.32859,-1.8237 -21.36281,11.76017 -21.36281,11.76017 0,0 -2.85448,-4.13949 -5.3629,-4.30811 -3.39174,-0.22205 -8.28458,4.8032 -8.28458,4.8032 0,0 -3.2954,-5.51553 -6.53919,-6.25004 -5.42015,-1.23202 -16.00104,4.30752 -16.00104,4.30752 0,0 -13.80386,-13.7117 -24.32758,-18.25867 -13.35171,-5.76756 -18.39951,5.29708 -18.39951,5.29708 0,0 -4.04593,-7.54085 -8.3277,-8.19376 -5.56955,-0.84675 -14.82367,6.74693 -14.82367,6.74693 0,0 -13.05804,-25.00499 -29.079814,-25.00499 z m -42.901379,24.33289 c -1.696868,0.078 -3.23432,0.74412 -4.272701,2.36679 -2.50031,3.90546 2.979375,3.82745 6.539859,4.30872 3.560257,0.48008 9.504567,-1.90772 9.504567,-1.90772 0,0 -6.681454,-5.00363 -11.771725,-4.76779 z" />
    <path
       style="fill:#943c3c;fill-opacity:1;fill-rule:nonzero;stroke:#000000;stroke-width:12.23300171;stroke-miterlimit:4;stroke-dasharray:none"
       inkscape:connector-curvature="0"
       id="path3041"
       d="m 106.84401,487.15781 c -20.978741,3.47992 -57.691585,33.05935 -59.789329,37.40937 -2.097831,4.34982 -25.369244,18.70639 -31.46799,31.31942 -5.7397913,11.87077 -10.4894394,24.35982 -3.146853,38.27964 2.557261,4.84834 -8.3914983,18.2694 -8.3914983,23.48938 0,5.21997 11.7330673,9.34158 12.5872623,17.39985 1.566563,14.7782 -13.6362477,20.00933 -4.195764,44.36909 4.889035,12.61515 20.852276,4.52008 28.321168,10.4399 7.348329,5.82386 8.391419,19.13985 13.636173,22.61983 5.244737,3.47999 32.517008,6.95991 32.517008,6.95991 0,0 5.244734,9.56944 16.782973,11.30937 11.53826,1.74005 23.07662,-3.47987 26.22341,-0.86936 3.14619,2.60941 20.97894,2.60941 20.97894,2.60941 0,0 2.09781,6.96003 16.78308,7.83018 14.68524,0.86954 22.02716,-11.31016 22.02716,-11.31016 5.65306,5.99147 11.13271,12.27392 30.41869,-4.34946 5.11622,2.08936 9.08852,9.87045 16.78305,-0.87051 4.08543,11.16223 36.92769,1.01897 29.37043,-13.91987 14.72695,22.26264 55.2125,7.87295 57.69116,2.61049 2.45992,11.65539 13.71651,10.54149 27.27262,6.0894 -1.01863,7.99124 27.52953,26.64092 37.76196,5.21998 4.19039,2.78914 -0.87999,14.79583 15.73346,5.21997 48.30125,13.25688 55.42255,5.16752 59.78918,-4.34946 l 4.19568,-10.43984 c 36.93855,29.51463 45.23047,2.32144 38.81163,-3.47993 66.24694,-0.99905 46.0137,-31.37235 45.10401,-42.62915 28.07311,-8.6687 39.27848,-19.24374 14.68515,-40.89033 8.08073,-3.30924 9.35771,-7.42419 -2.09779,-13.0493 58.67203,-6.26019 14.1281,-50.73425 -7.34335,-60.89892 -4.19586,-18.26976 -36.71236,-46.10927 -53.49551,-51.32913 -5.55632,-1.72805 -7.34188,-13.91981 -28.32083,-21.74974 -11.55793,-4.3137 -33.56613,-0.87003 -37.76202,-1.74006 -4.1956,-0.86978 -24.12493,-10.43977 -32.51643,-11.30974 -8.39163,-0.87002 -13.63699,0.86997 -29.37047,-0.87002 -15.73492,-1.73993 -28.32083,-4.34989 -31.46833,-5.21985 -3.14622,-0.86996 -14.68524,-6.08994 -22.02716,-7.82987 -7.34323,-1.73993 -24.12637,4.34994 -36.71368,5.21991 -12.58594,0.87003 -35.66269,2.60996 -35.66269,2.60996 0,0 -3.1476,-5.21991 -13.63702,-5.21991 -10.48943,0 -17.83136,5.21991 -24.12497,6.95996 -6.29372,1.73987 -13.63702,0 -29.37045,0.86997 -15.73348,0.8699 -19.92924,4.34982 -28.32083,6.08988 -8.39158,1.73999 -16.78306,4.34989 -25.17467,5.21997 -8.39156,0.86991 -23.07656,12.17977 -23.07656,12.17977 z" />
  </g>
</svg>
