<?xml version="1.0" encoding="UTF-8" standalone="no"?>
<!-- Generator: Adobe Illustrator 15.0.0, SVG Export Plug-In . SVG Version: 6.00 Build 0)  -->

<svg
   xmlns:dc="http://purl.org/dc/elements/1.1/"
   xmlns:cc="http://creativecommons.org/ns#"
   xmlns:rdf="http://www.w3.org/1999/02/22-rdf-syntax-ns#"
   xmlns:svg="http://www.w3.org/2000/svg"
   xmlns="http://www.w3.org/2000/svg"
   xmlns:sodipodi="http://sodipodi.sourceforge.net/DTD/sodipodi-0.dtd"
   xmlns:inkscape="http://www.inkscape.org/namespaces/inkscape"
   version="1.2"
   id="Ebene_1"
   x="0px"
   y="0px"
   width="200"
   height="200"
   viewBox="0 0 200 200"
   xml:space="preserve"
   inkscape:version="0.91 r13725"
   sodipodi:docname="putin.svg"><metadata
     id="metadata207"><rdf:RDF><cc:Work
         rdf:about=""><dc:format>image/svg+xml</dc:format><dc:type
           rdf:resource="http://purl.org/dc/dcmitype/StillImage" /><dc:title></dc:title></cc:Work></rdf:RDF></metadata><defs
     id="defs205" /><sodipodi:namedview
     pagecolor="#ffffff"
     bordercolor="#666666"
     borderopacity="1"
     objecttolerance="10"
     gridtolerance="10"
     guidetolerance="10"
     inkscape:pageopacity="0"
     inkscape:pageshadow="2"
     inkscape:window-width="2560"
     inkscape:window-height="1377"
     id="namedview203"
     showgrid="false"
     inkscape:zoom="2.8284271"
     inkscape:cx="73.257113"
     inkscape:cy="69.493776"
     inkscape:window-x="-8"
     inkscape:window-y="-8"
     inkscape:window-maximized="1"
     inkscape:current-layer="g4647"
     showguides="false" /><g
     id="g4647"
     transform="matrix(1.0012897,0,0,1.0012897,-17.14041,-941.31111)"
     style="fill:#800000"><path
       style="fill:#800000;fill-rule:evenodd"
       d="m 2834.1445,4743.0957 c 2.3647,1.2412 1.0221,-1.8517 0.023,-0.02 l -0.023,0.02 z"
       id="path6169"
       inkscape:connector-curvature="0" /><path
       style="fill:#800000;fill-rule:evenodd"
       d="m 2833.3555,4744.8672 c 2.7893,-0.6785 -1.2524,-3.0415 0,0 z"
       id="path4782"
       inkscape:connector-curvature="0" /><path
       style="fill:#800000;fill-rule:evenodd"
       d="m 124.9278,941.46803 c -0.52479,0.009 -1.05026,0.0499 -1.56634,0.14824 1.32977,0.31084 2.72296,0.34554 4.06701,0.19311 0.27896,-0.0213 0.25753,-0.0696 -0.0136,-0.11118 -0.81525,-0.17926 -1.6536,-0.24012 -2.48702,-0.23017 z m 6.50917,0.76268 c -0.86159,0.035 -1.86663,0.12877 -2.46752,0.82511 -0.14826,0.14688 -0.0801,0.19642 0.0917,0.1424 0.97016,-0.16033 1.89217,-0.73198 2.91811,-0.6359 0.24351,0.0336 0.55393,0.007 0.74124,0.14434 0.37719,0.76237 1.3992,0.79958 2.13006,0.61249 0.28825,-0.024 -0.11214,-0.24972 -0.19897,-0.3316 -0.94599,-0.59366 -2.11718,-0.75245 -3.2146,-0.75684 z m -14.03463,0.0117 c -0.12048,-0.007 -0.19624,0.0317 -0.0351,0.0351 0.12106,0 0.29835,-0.0475 0.0351,-0.0351 z m -2.32513,0.46424 c -2.37314,0.0363 -4.83889,0.14294 -7.03389,1.12355 -0.53846,0.25373 -1.0735,0.58334 -1.47466,0.99286 2.65511,0.23967 5.36752,0.30237 8.0053,-0.039 -0.11056,-0.19629 -0.0748,-0.50263 0.18531,-0.54422 2.18737,-0.66367 4.51272,-0.51137 6.74325,-0.89728 0.43219,-0.0745 0.86235,-0.17088 1.28155,-0.30039 -2.5697,-0.12895 -5.13303,-0.34758 -7.70686,-0.33551 z m -9.17566,0.23212 c -0.01,0.002 -0.0195,0.006 -0.0293,0.008 -1.36745,0.0391 -2.65009,0.45793 -3.91878,0.94214 -1.37935,0.38786 -2.73806,0.83468 -4.08067,1.33227 -0.739929,0.10554 -1.482821,0.20057 -2.143719,0.58518 -0.893251,0.4367 -1.760522,0.9258 -2.625521,1.41809 -1.554047,0.73294 -3.084635,1.52396 -4.587833,2.37194 -2.09636,0.98802 -4.134357,2.20694 -5.781605,3.84465 -1.538822,1.20152 -3.013965,2.4825 -4.464945,3.79199 -0.419546,0.27929 -0.852623,0.53804 -1.324464,0.73343 -0.808781,1.67283 -2.695705,2.41228 -3.743219,3.87196 -0.625785,0.56182 -1.253163,1.1198 -1.88819,1.66192 -1.321893,0.92407 -2.491527,1.95618 -3.557911,3.0605 -1.90382,1.91583 -3.540923,4.09174 -4.777042,6.49748 -0.257411,0.49408 -0.494639,0.99891 -0.721726,1.50782 -0.65177,1.30135 -1.234111,2.6423 -1.788708,3.9968 -0.136584,0.0726 -0.26484,0.15171 -0.364765,0.23212 0.03298,0.24217 0.01598,0.47841 -0.02146,0.71198 -0.1773,0.44876 -0.357763,0.89473 -0.528616,1.34592 -0.05699,0.0943 -0.110635,0.19255 -0.171653,0.28284 -0.617906,1.43255 -1.093154,2.93195 -1.591697,4.41227 -0.118949,0.36649 -0.22699,0.73626 -0.341357,1.10405 -0.02152,0.0601 -0.04283,0.12139 -0.06437,0.18141 -0.01829,0.0673 -0.03632,0.13554 -0.05462,0.20286 -0.950676,3.1028 -1.74647,6.24863 -2.446064,9.41754 -0.755741,3.15911 -1.406406,6.34055 -1.878436,9.54435 -0.03218,0.1795 -0.0675,0.3588 -0.09948,0.5384 -0.487774,2.9146 -0.758451,5.858 -0.667109,8.8148 0.260627,0.4667 0.395962,0.8239 0.47985,1.1352 0.0461,0.2572 0.05979,0.5189 0.05852,0.7783 -0.111907,0.3754 -0.461885,0.5229 -0.873873,0.5793 -0.699164,-0.4011 -1.5397,-0.5509 -2.33683,-0.3998 0.152023,0.2292 0.329393,0.4391 0.514961,0.6417 0.0077,0.255 0.505873,0.7982 1.92135,1.9487 0.243298,0.3077 0.451507,0.6428 0.596887,1.026 0.328931,0.7995 0.422119,1.6739 0.423282,2.5319 0.111973,0.091 0.200521,0.2006 0.278937,0.316 -0.142523,1.1874 -0.867013,1.783 -1.710685,0.9324 -0.540266,-0.7015 -0.916695,-1.5384 -1.256192,-2.3486 -0.380673,-0.9377 -1.036299,-1.8461 -2.063745,-2.1086 -0.248743,-0.074 -0.50662,-0.12 -0.764639,-0.1463 -0.339409,2.2008 -0.362804,4.5221 0.378419,6.6477 0.107296,0.2613 0.215444,0.5513 0.38622,0.7666 0.127084,-0.017 0.2355,-0.083 0.341357,-0.1561 0.326032,0.5218 0.695947,0.8932 1.102095,0.9558 0.755697,3.2954 0.658911,4.0575 -0.232123,3.1834 -0.04389,-0.3301 -0.07252,-0.6596 -0.04877,-0.985 -0.402063,0.059 -0.616676,-0.3295 -0.866071,-0.5598 -0.107924,-0.063 -0.343572,-0.1249 -0.294542,0.086 -0.284163,1.6781 -0.05551,3.4439 0.672961,4.9916 0.162877,0.355 0.334703,0.7117 0.501306,1.0709 0.585758,2.2966 1.26709,4.5752 1.892091,6.8622 0.01315,0.571 0.02506,1.1432 0.124839,1.6834 0.508494,0.3985 0.547568,1.1203 0.651504,1.7087 0.122786,0.8759 0.08157,1.787 0.150196,2.649 0.700446,0.7392 0.700038,1.8443 0.752935,2.7991 0.06754,0.3727 0.369288,0.681 0.501307,1.0455 0.0493,0.1068 0.08452,0.218 0.130691,0.3258 0.549304,2.2473 1.077246,4.6622 1.849178,6.8622 0.272883,1.0889 0.596403,2.1606 1.080637,3.1814 0.607436,1.305 1.666379,2.4419 3.027346,2.9591 1.131424,0.7641 2.503488,1.2355 4.205513,1.2894 -0.119965,3.2978 -0.08124,6.6126 0.189209,9.9052 0.05587,0.7413 0.141234,1.4778 0.22237,2.2159 0.0097,0.084 0.0153,0.1692 0.02536,0.2535 0.255837,2.2402 0.625967,4.4606 1.178168,6.6321 0.04917,0.207 0.08878,0.4158 0.140444,0.6223 0.41211,1.4855 0.772764,3.0076 1.462956,4.3966 0.04377,0.086 0.09537,0.169 0.142396,0.2536 0.300308,0.7199 0.617158,1.434 0.969452,2.1359 0.2652,1.044 0.280361,2.2006 0.862169,3.1288 0.186904,0.1691 0.424289,0.3047 0.589085,0.4974 1.272473,3.6215 2.181645,7.4825 3.243863,11.1672 0.04543,1.0283 0.49346,1.9995 0.747082,3.0001 0.09433,0.4107 0.142033,0.8328 0.134593,1.2542 0.26102,0.1275 0.395112,0.3454 0.637849,0.4877 0.131616,0.171 0.161697,0.3842 0.273086,0.5579 0.08091,0.1994 0.149936,0.4101 0.234072,0.6066 -0.04998,0.053 -0.08946,0.1061 0.0098,0.2029 0.132883,0.2618 0.18273,0.6157 0.511059,0.6866 0.01793,0 0.03634,0.011 0.05462,0.016 0.368889,0.5724 0.753369,1.1416 1.164514,1.7029 0.004,0.033 0.0192,0.068 0.01756,0.099 0.379873,0.336 0.569721,0.8371 0.635899,1.3265 0.452339,0.2728 0.868108,0.5998 1.271797,0.9402 0.893746,0.9939 1.854412,1.9355 2.898606,2.7737 0.141171,0.2029 0.276049,0.4107 0.41548,0.6047 0.15857,0.055 0.333877,-0.01 0.481801,0.1268 0.08492,0.04 0.171162,0.083 0.257479,0.1229 0.455737,0.3171 0.926793,0.6112 1.40834,0.8875 0.07127,0.055 0.147262,0.094 0.269185,0.1658 0.394639,0.2993 0.858679,0.5852 1.022119,1.0826 0.203061,0.1244 0.362802,0.325 0.600788,0.3648 0.181409,0.05 0.432125,0.026 0.616392,0.117 0.0279,0.022 0.05607,0.042 0.08388,0.064 0.0386,0.034 0.07846,0.067 0.103381,0.1229 0.07492,0.1633 0.103682,0.3296 0.323802,0.3394 0.09274,0.029 0.180701,0.067 0.271134,0.1014 1.120795,0.9581 2.187922,1.9928 3.275073,3.0059 0.147187,0.1854 0.292983,0.3706 0.436937,0.554 0.05237,0.2208 0.200712,0.3763 0.399875,0.4662 0.294781,0.2591 0.48247,0.6344 0.860219,0.7821 0.380014,0.3061 0.814269,0.5504 1.275698,0.7101 0.007,0.01 0.01426,0.01 0.02146,0.016 0.249159,0.183 0.399939,0.4734 0.694416,0.591 0.149311,0.154 0.338426,0.2436 0.528615,0.2926 0.0121,-0.011 0.02776,6e-4 0.04096,-0.01 0.24735,0.152 0.499106,0.2996 0.756836,0.4389 0.275868,0.2455 0.577439,0.4882 0.893379,0.7257 -0.0181,0 -0.0556,-0.01 -0.122888,-0.041 -0.0111,0.3175 0.11565,0.1083 0.224319,0.117 0.344631,0.2548 0.710872,0.5028 1.092342,0.7432 0.20773,0.1434 0.420148,0.2774 0.631998,0.4331 0.114229,0.102 0.251622,0.1404 0.392072,0.1716 0.29299,0.1617 0.597212,0.3104 0.901182,0.4603 0.108939,0.052 0.214807,0.1081 0.280887,0.2127 0.10412,0.01 0.202647,0.039 0.302347,0.068 0.0844,0.039 0.17064,0.072 0.25553,0.1093 -0.008,4e-4 -0.0275,0.034 -0.039,0.043 -0.005,0 -1.4e-4,-0.015 -0.01,-0.014 -0.005,0.018 -0.002,0.016 -0.006,0.029 -0.021,0.021 -0.0324,0.015 -0.0644,0.068 0.10158,0.2085 0.18081,-0.081 0.13069,-0.121 0.65317,0.2885 1.31558,0.5477 1.97987,0.7647 0.21328,0.143 0.40964,0.2979 0.67101,0.3608 0.13217,0.088 0.35406,0.07 0.4701,0.09 -0.027,-0.051 -0.028,-0.092 -0.0156,-0.1249 0.13051,0.034 0.26258,0.073 0.39207,0.1034 0.15028,0.1393 0.35839,0.1354 0.56373,0.1073 0.0691,0.013 0.13815,0.029 0.20676,0.041 0.13844,0.056 0.26868,0.132 0.43109,0.082 0.12713,0.04 0.25493,0.071 0.38232,0.1092 0.0574,0.034 0.1188,0.064 0.16385,0.1112 0.12782,0.033 0.26167,0.037 0.39402,0.047 0.51417,0.1416 1.03083,0.2683 1.54879,0.3804 0.16376,0.085 0.31109,0.2127 0.51106,0.1775 0.26297,0.017 0.45027,0.2306 0.71197,0.1463 0.30174,-0.015 0.6139,-0.01 0.89143,0.1112 0.0944,-0.01 0.18984,-0.01 0.28479,-0.01 0.6917,0.095 1.38528,0.1655 2.08129,0.2204 0.29713,0.066 0.59712,0.1121 0.90509,0.1 0.24376,9e-4 0.48766,0 0.73147,0 1.38107,0.055 2.76707,0.043 4.1548,-0.01 l 2.93763,0 c 0.26718,-0.072 0.56348,-0.039 0.78413,-0.2067 1.55265,-0.1165 3.08946,-0.2418 4.6288,-0.3784 0.21529,6e-4 0.43107,-9e-4 0.64565,0.01 0.36842,-0.1345 0.77801,-0.1104 1.17037,-0.1053 0.47354,-0.048 0.95998,0.1195 1.41419,-0.064 0.10924,0.015 0.16906,-0.061 0.23017,-0.1326 0.30757,-0.077 0.61753,-0.1454 0.92655,-0.2185 0.068,-0.01 0.13641,-0.01 0.2048,0.01 0.16634,-0.1433 0.39913,-0.081 0.58715,-0.1932 0.003,-9e-4 0.006,0 0.01,0 0.16613,-0.038 0.33129,-0.079 0.49741,-0.117 -0.0125,0.018 -0.0259,0.016 -0.0371,0.045 0.16455,0.039 0.19593,-0.028 0.1775,-0.078 0.64379,-0.1478 1.2838,-0.3044 1.92135,-0.4643 0.32845,0 0.65799,0.01 0.97726,-0.092 0.234,-0.022 0.46938,-0.024 0.61834,-0.2282 0.24075,-0.1182 0.49677,-0.2159 0.72953,-0.3413 0.0677,-0.022 0.13342,-0.049 0.20091,-0.072 0.0572,0.09 0.0863,0.01 0.041,-0.016 0.0366,-0.012 0.0727,-0.026 0.10924,-0.039 0.0125,0.022 0.0181,0.052 0.078,0.064 0.0383,-0.045 0.0552,-0.1151 0.14434,-0.1463 l 0.0137,0 c 0.032,-0.01 0.0716,-0.015 0.12484,-0.012 0.26356,0.025 0.48857,-0.2043 0.76853,-0.1736 0.1617,-0.053 0.34015,-0.049 0.42718,-0.2243 0.12063,-0.1264 0.29975,-0.1782 0.40573,-0.3101 1.13193,-0.543 2.21104,-1.208 3.19315,-2.1008 0.44941,-0.2464 0.97279,-0.3662 1.35958,-0.7062 0.0412,-0.078 0.10301,-0.1421 0.15409,-0.2145 0.63707,-0.424 1.24956,-0.8819 1.84918,-1.3557 0.0574,-0.026 0.11579,-0.052 0.16971,-0.082 -0.002,-0.024 0.012,-0.038 0.0137,-0.06 0.3102,-0.2481 0.61563,-0.5002 0.91873,-0.7549 0.10225,-0.036 0.20645,-0.062 0.29065,-0.1034 0.17886,-0.1589 0.37277,-0.2882 0.55982,-0.4369 0.2419,-0.067 0.297,-0.3178 0.40572,-0.5267 0.0765,-0.066 0.15194,-0.1308 0.22823,-0.197 0.002,7e-4 0.006,0 0.006,0 0.0843,-0.073 0.16755,-0.1453 0.25163,-0.2185 0.2815,-0.176 0.49057,-0.4628 0.80756,-0.5949 0.123,-0.1968 0.38854,-0.2299 0.44083,-0.4779 0.0483,-0.051 0.10073,-0.095 0.15799,-0.1307 l 0.002,0 c 0.17154,-0.1063 0.37578,-0.1537 0.57152,-0.2028 0.0232,-0.092 0.032,-0.1976 0.0429,-0.3004 0.41634,-0.3352 0.83618,-0.6554 1.25815,-0.9578 0.003,-4e-4 0.007,0 0.01,0 0.15437,-0.052 0.0658,-0.1245 0.25553,-0.195 0.0818,-0.038 0.14424,-0.1016 0.20287,-0.1717 0.14712,-0.1289 0.30741,-0.2559 0.45839,-0.3843 0.13269,-0.1586 0.38574,-0.1547 0.53057,-0.236 0.17296,-0.2117 0.4946,-0.2047 0.70026,-0.3316 0.13739,-0.096 0.25023,-0.2032 0.22628,-0.3882 0.0159,-0.3039 0.33019,-0.407 0.46034,-0.6339 0.0325,-0.028 0.053,-0.063 0.0761,-0.1 0.77851,-0.6515 1.55219,-1.3128 2.2549,-2.0286 0.0132,-0.015 0.0286,-0.027 0.041,-0.043 0.23576,-0.2416 0.46271,-0.4902 0.68076,-0.7432 0.0136,-0.013 0.0322,-0.021 0.0449,-0.035 0.19914,-0.1389 0.4244,-0.1909 0.59884,-0.357 0.23835,-0.067 0.17782,-0.4178 0.38232,-0.5559 0.1974,-0.1069 0.16778,-0.351 0.33355,-0.4877 0.0277,-0.2452 0.0595,-0.4864 0.12874,-0.7217 0.18988,-0.1618 0.35375,-0.3437 0.52666,-0.5189 0.11934,-0.079 0.23932,-0.1587 0.35696,-0.2243 0.0886,-0.1006 0.13926,-0.2237 0.18337,-0.3491 0.17704,-0.2076 0.35126,-0.4175 0.51691,-0.634 0.11098,-0.049 0.21764,-0.107 0.30819,-0.1814 -0.0281,-0.053 -0.0573,-0.095 -0.0683,-0.1404 0.0574,-0.078 0.11487,-0.1557 0.17166,-0.2341 0.11201,-0.05 0.35513,-0.035 0.22236,-0.197 -0.0123,-0.034 -0.002,-0.067 -0.008,-0.1 0.21942,-0.3077 0.44158,-0.6134 0.66321,-0.9187 0.12443,-0.078 0.16502,-0.2327 0.25358,-0.3492 0.003,0 0.006,-0.014 0.01,-0.018 0.0372,-0.045 0.0834,-0.081 0.15215,-0.099 0.14734,-0.077 0.21106,-0.2319 0.24968,-0.398 0.22963,-0.2845 0.47699,-0.5549 0.73342,-0.8173 0.0137,0.01 0.0182,-7e-4 0.0293,0.01 0.0474,0.065 0.14004,0.1176 0.0566,0.014 0.0109,-0.01 0.0114,-0.021 0.0156,-0.033 0.32851,0.065 0.22499,-0.201 0.10533,-0.1639 -0.0347,0.011 -0.0687,0.055 -0.0956,0.1327 -0.003,-0.02 -0.0129,-0.036 -0.0312,-0.035 0.0546,-0.055 0.10766,-0.1086 0.16385,-0.1619 0.12783,-0.089 0.28622,-0.1364 0.43304,-0.1814 0.15422,-0.1031 0.26488,-0.2312 0.33355,-0.4116 0.0451,-0.069 0.1081,-0.1182 0.1619,-0.1775 0.4619,-0.3163 0.9728,-0.5895 1.56243,-0.8017 0.1465,-0.2575 0.27743,-0.5327 0.41549,-0.7978 0.10147,-0.09 0.20651,-0.1749 0.31015,-0.2478 0.12018,-0.1069 0.28041,-0.1357 0.33355,-0.3003 0.12764,-0.1943 0.33029,-0.3232 0.24382,-0.5891 -0.0112,-0.2199 0.19083,-0.3792 0.10143,-0.6047 -0.005,-0.1165 0.007,-0.2281 0.01,-0.3433 0.77239,-1.7752 1.46636,-3.6414 2.20028,-5.4949 0.8687,-1.4303 1.812,-2.8721 2.03839,-4.5547 -2.98254,3.2766 -3.16435,1.9955 -2.64892,-0.3374 0.73032,-1.5774 1.2155,-3.2639 1.37712,-4.9955 0.007,-0.092 0.007,-0.1885 0.0117,-0.2809 0.21218,-0.961 0.26963,-1.6426 -0.0585,-1.6541 -0.0508,-0.3786 -0.12155,-0.7523 -0.23602,-1.1216 -0.0402,0.4403 -0.10306,0.8762 -0.18726,1.3108 -1.1745,2.1563 -2.25176,4.3457 -3.31408,6.5326 -0.42652,0.4569 -0.87574,0.8925 -1.36933,1.2796 -0.0255,0.3958 0.0496,0.8308 -0.0351,1.2015 -1.1473,1.1312 -1.44844,2.7842 -1.95842,4.2485 -0.0418,0.132 -0.10359,0.2568 -0.15019,0.3881 -1.06294,2.0705 -2.1739,4.1121 -3.40772,6.0898 -0.94443,0.9494 -1.9361,1.8462 -3.05074,2.5748 -1.28229,0.7517 -2.43264,1.0979 -2.54946,0.4584 0.18876,-0.4513 0.39912,-0.8906 0.62225,-1.3244 l -0.4584,0 0,0.71 -2.30756,0 c -0.37133,0.4117 -0.75921,0.817 -1.18402,1.2094 -3.87847,3.2323 -7.89583,6.3505 -12.35712,8.7172 -1.51369,0.7512 -3.07318,1.3962 -4.66976,1.9136 -0.52609,0.051 -1.03034,0.2242 -1.51366,0.4486 -0.78107,0.2098 -1.57319,0.3782 -2.37,0.5228 -2.53731,0.2794 -5.08604,0.365 -7.63664,0.3179 -2.62341,-0.1485 -5.27709,-0.2956 -7.93117,-0.4935 -1.15144,-0.1101 -2.30449,-0.2151 -3.45063,-0.3433 -2.19361,-0.2514 -4.3843,-0.53 -6.5755,-0.8036 -1.55773,-0.2622 -3.0942,-0.5846 -4.613192,-0.9558 -0.3155,-0.1913 -0.643394,-0.3477 -1.033824,-0.3219 -0.0705,0.01 -0.136373,0.012 -0.204814,0.014 -0.18683,-0.05 -0.377676,-0.09 -0.563726,-0.1424 -1.68963,-1.6213 -3.505366,-3.362 -5.270546,-5.1652 -0.346247,-0.4534 -0.692973,-0.9079 -1.033823,-1.3576 -1.14653,-1.4889 -2.243598,-3.046 -3.661294,-4.2972 -0.194975,-0.1706 -0.402569,-0.3322 -0.612491,-0.4896 -0.189063,-0.2632 -0.363821,-0.5294 -0.546171,-0.7939 l -3.992897,-1.5196 0.179456,-0.1716 -0.356961,0 c -0.505938,3.103 -2.672623,-0.4199 -4.445439,-4.3791 -0.554751,-1.732 -1.070777,-3.4755 -1.780906,-5.1496 -0.16447,-0.3782 -0.356089,-0.7494 -0.540319,-1.1217 -0.0033,-0.014 -0.0124,-0.044 -0.0156,-0.059 -0.0132,-0.015 -0.02213,-0.035 -0.03511,-0.051 -0.530194,-1.0677 -1.064846,-2.1358 -1.342019,-3.2946 -0.459908,-2.3646 -0.432411,-5.0348 -0.987008,-6.5579 -0.157649,-0.7046 -0.350499,-1.4011 -0.602739,-2.0813 -0.28141,0.2182 -0.459534,0.5388 -0.637849,0.8563 -0.526175,-0.054 -1.220609,0.1749 -2.157374,0.79 -0.750918,-1.3451 -1.132824,-2.8748 -1.975967,-4.1626 -0.179969,-1.4581 -0.57481,-2.883 -0.940194,-4.3128 -0.332023,-2.3899 -0.475527,-4.8264 -0.764639,-7.2114 0.02085,-1.703 -0.02194,-3.4064 -0.717824,-4.9858 -0.265998,-0.6237 -0.603323,-1.2134 -0.96165,-1.7926 -0.463145,-1.0306 -1.043434,-2.0245 -1.786758,-2.9688 -0.01421,-0.9438 -0.173883,-1.1903 -0.442788,-1.1079 -0.06626,-0.2015 -0.135284,-0.4024 -0.183358,-0.6125 -0.03926,-0.2623 -0.05257,0.1843 -0.06047,0.2692 -0.0143,0.152 -0.0173,0.327 -0.01951,0.4954 -0.423548,0.3135 -1.009774,0.9802 -1.685326,1.2621 -0.0044,-4e-4 -0.0093,0 -0.01365,0 -0.970911,-0.146 -1.808563,-0.7217 -2.401201,-1.4864 -0.173576,-0.2619 -0.321509,-0.5014 -0.462293,-0.7373 -0.01407,-0.028 -0.0314,-0.054 -0.04486,-0.082 -0.461791,-0.9164 -0.715039,-1.9093 -0.895331,-2.9161 0.160371,-0.6133 0.724343,-0.9311 1.572192,-1.0651 0.96138,0.2605 1.919705,0.527 2.923963,0.3902 0.340517,-0.052 0.673351,-0.158 0.983107,-0.3082 -0.481977,-3.8356 -1.008378,-7.6982 -1.478561,-11.5691 -0.63014,-5.5761 -1.116465,-11.1677 -1.316662,-16.7772 -0.03466,-2.2953 0.0083,-4.5867 0.154098,-6.872 0.373914,-0.7947 0.619839,-1.6876 0.795849,-2.5962 0.343833,-1.2459 0.608913,-2.5072 0.667108,-3.7979 -0.081,-0.1082 -0.209748,-0.14 -0.345258,-0.1638 -0.01206,-0.7348 -0.04998,-1.4028 -0.109234,-1.9487 0.324898,-0.4796 0.717518,-0.9213 0.840713,-1.502 -0.340464,-0.2551 -0.806134,-0.1534 -1.061131,0.1658 -0.284983,-0.2776 -0.411926,-0.6563 -0.423284,-1.1021 0.290738,-0.528 0.641938,-1.0311 0.879726,-1.5799 0.110394,-0.302 0.239939,-0.6445 0.214567,-0.9597 -0.114217,-0.03 -0.275693,0 -0.425233,0 0.273656,-0.6323 0.605215,-1.2832 0.944095,-1.9253 0.706009,-0.6664 1.392348,-1.3703 1.591697,-2.3524 0.09158,-0.2041 0.02854,-0.3377 -0.210666,-0.2868 -0.159632,0 -0.285971,0.074 -0.403776,0.1619 -1.679273,0.6434 -1.217389,-0.5522 -0.518862,-2.0189 0.306478,-0.4818 0.641524,-0.9478 0.985057,-1.3927 0.08357,-0.1708 0.377804,-0.4041 0.314048,-0.5423 -0.114685,-0.037 -0.255842,-0.071 -0.390121,-0.1072 0.216072,-0.6085 0.303092,-1.12547 0.07412,-1.39863 0.654696,-0.73031 1.017789,-1.66844 1.160613,-2.62942 -1.661956,0.67067 -2.889126,2.03326 -3.901219,3.46035 -0.163704,0.2241 -0.331168,0.447 -0.495455,0.671 -0.70953,0.6986 -1.374882,1.2469 -1.849178,1.3382 -0.183659,-0.4541 -0.372824,-0.9056 -0.711971,-1.2465 0.0104,-0.3772 0.06286,-0.8452 0.165801,-1.42587 0.247184,-0.35554 0.556436,-0.68084 0.817306,-1.01042 0.258532,-0.29305 0.28533,-0.79981 -0.01951,-1.04943 -0.238029,0.0341 -0.249894,0.30032 -0.380369,0.44474 -0.0812,-0.77326 -0.376128,-1.62991 -0.349158,-2.61967 0.393813,-1.33298 1.105522,-2.58316 1.917449,-3.69835 0.671798,-0.80125 1.410127,-1.68646 1.843325,-2.31342 0.295858,-0.34921 0.591812,-0.69818 0.887528,-1.04748 -0.293362,0.0235 -0.5479,0.12798 -0.786096,0.26528 -0.308051,0.10668 -0.897615,0.4607 -1.876486,1.16257 1.100811,-2.86656 2.610082,-5.22235 4.217217,-7.27773 0.261224,-0.2829 0.528587,-0.55972 0.801701,-0.82901 1.075815,-1.08491 2.266556,-2.09328 3.409664,-3.07416 -0.197986,-0.0755 -0.465582,-0.0706 -0.692466,-0.12679 0.760859,-0.80091 1.512487,-1.57496 2.190534,-2.30757 0.272115,-0.16214 0.563238,-0.29251 0.887528,-0.36281 0.133414,-0.0295 0.292476,-0.0233 0.239924,-0.20286 -0.0023,-0.32146 0.07095,-0.63178 0.173604,-0.9324 0.387341,-0.48709 0.734194,-0.96812 1.057231,-1.44345 0.0178,-0.0127 0.03065,-0.0307 0.04877,-0.0429 0.273554,-0.21736 0.621162,-0.37063 0.889478,-0.56568 0.0085,-0.1936 -0.125964,-0.30267 -0.267234,-0.40963 0.258771,-0.41327 0.506126,-0.82117 0.747084,-1.22498 0.390808,-0.0661 0.813002,-0.0984 1.096242,-0.24577 -0.274095,-0.23499 -0.329807,-0.58064 -0.397924,-0.92069 0.387467,-0.63605 0.796522,-1.25611 1.240587,-1.86673 l 0.002,-0.002 c 0.542909,-0.33655 1.127494,-0.60883 1.718486,-0.83097 0.155978,-0.3809 -0.414679,-0.39715 -0.452541,-0.72562 0.41855,-0.44588 0.913569,-0.67005 1.398586,-0.7861 0.665058,-0.0845 1.329641,-0.086 1.987672,-0.0839 0.0122,-6.7e-4 0.03195,10e-4 0.04291,0 0.281584,7.4e-4 0.576663,0.001 0.844614,-0.01 -0.229065,-0.17933 -0.524441,-0.19999 -0.819255,-0.22237 -0.112528,-0.15177 -0.347391,-0.37791 -0.868022,-0.80755 0.369074,-0.022 0.54414,-0.58088 0.269185,-0.80365 -0.258841,-0.13199 -0.61866,-0.0978 -0.897281,-0.20286 0.04791,-0.45092 0.656312,-0.7664 1.445402,-1.02017 1.191503,-0.11642 2.403711,-0.10423 3.534504,-0.52862 0.547161,-0.20253 0.966134,-0.74661 0.940194,-1.33616 -0.329885,-0.15733 -0.6899,-0.15333 -1.053329,-0.13655 -0.343153,-0.20332 -0.817647,-0.42797 -1.556587,-0.69831 1.430388,0.20138 2.795558,-0.0231 4.024107,-0.45645 0.527596,0.0399 1.052653,0.0557 1.574142,-0.0371 0.636815,-1.25398 2.049849,-1.75914 3.183394,-2.44216 0.271279,-0.0836 0.111976,-0.41087 -0.111184,-0.44084 0.285314,-0.27055 0.528129,-0.51448 0.671009,-0.68076 0.2786,0.12606 0.546692,0.29502 0.825108,0.39207 0.66197,-0.59015 1.490745,-0.97413 2.256855,-1.4298 0.0735,-0.0436 0.145968,-0.0874 0.218468,-0.13264 0.0653,-0.0411 0.12925,-0.084 0.193111,-0.12679 1.03436,-0.67603 1.924192,-1.496 2.410952,-2.18663 0.379591,-0.0223 0.761073,-0.0271 1.065034,-0.26723 0.0462,-0.13041 -0.215298,-0.22224 -0.314049,-0.28284 -0.13033,-0.051 -0.265785,-0.0874 -0.401825,-0.12094 0.11323,-0.39617 -0.01729,-0.67627 -0.520813,-0.72172 1.29317,-0.0263 1.892659,-0.11853 2.11056,-0.24773 0.156487,-0.043 0.310053,-0.0974 0.458393,-0.17361 0.1976,-0.10326 0.30448,-0.2735 0,-0.25943 -0.24752,-0.0428 -0.501897,-0.0459 -0.758788,-0.0429 -0.760389,-0.42427 -2.257717,-0.93204 -1.496117,-1.26009 0.38683,-0.0537 0.807471,0.0551 1.189872,0.0117 0.0423,-0.30932 -0.411331,-0.16383 -0.581282,-0.16775 -0.22014,-0.1077 -0.356453,-0.1941 -0.524713,-0.28869 0.133779,-0.17649 0.246501,-0.3657 0.03511,-0.49351 -0.30172,-0.15371 -0.743222,-0.17849 -1.033822,-0.37842 0.003,-0.38107 1.009742,-0.4638 2.089102,-0.45644 0.48278,0.11299 0.966313,0.22916 1.451254,0.27309 0.61416,0.0728 1.297721,0.054 1.855031,-0.25748 -0.47665,-0.0318 -0.96654,0.0252 -1.453207,0.0527 -0.02307,-0.002 -0.102227,-0.0108 -0.146295,-0.0156 0.03249,-2.9e-4 0.06492,-2.1e-4 0.09753,-0.002 -0.0889,-0.007 -0.211727,-0.0108 -0.310147,-0.0176 0.01944,0.002 0.09552,0.0105 0.142395,0.0156 -0.336151,0.0113 -0.669864,0.004 -0.99481,-0.0702 0.309129,0.0125 0.583216,0.0321 0.854367,0.0507 -0.16437,-0.0133 -0.184027,-0.008 -1.205478,-0.13459 -0.334269,-0.36067 -0.0706,-0.70311 0.513011,-1.02992 1.515084,-0.57223 3.070654,-1.02469 4.620994,-1.49222 1.59257,-0.40766 2.97677,-0.76528 3.19315,-1.05528 0.23118,-0.087 0.4635,-0.1699 0.69246,-0.26333 -0.37944,-0.0684 -0.80843,-0.0375 -1.15866,-0.0878 -0.004,-8.1e-4 -0.006,-8.5e-4 -0.01,-0.002 l 0,-0.0195 z m 24.72592,0.72368 c -0.0325,-0.005 -0.0581,-0.006 -0.0527,0.0234 -0.0285,0.41379 0.43048,0.55207 0.75879,0.45839 0.16872,-0.0439 0.44372,-0.0473 0.54813,-0.13654 -0.21169,-0.41227 -0.786,-0.2996 -1.16843,-0.33941 -0.0149,0.0103 -0.0533,-3.1e-4 -0.0858,-0.006 z m 5.52998,0.0975 c -0.16146,0.007 -0.31614,0.0913 -0.39792,0.23212 0.47814,-0.0645 0.93712,0.19857 1.40638,0.14435 0.0936,-0.0226 0.31235,-0.31813 0.10534,-0.26919 -0.37487,0.007 -0.73949,-0.11648 -1.1138,-0.10728 z m 2.21589,0.82316 c -0.18223,0.0131 -0.41225,0.0256 -0.51691,0.19896 0.54311,-0.0549 1.09893,0.16072 1.62291,-0.0254 -0.35328,-0.11667 -0.72773,-0.18109 -1.106,-0.1736 z m 1.9389,0.71197 c -0.25101,-0.0322 -0.41528,0.16126 -0.18335,0.3277 0.40229,0.26045 1.0107,0.1605 1.33617,-0.18335 -0.39426,0.0371 -0.7644,-0.14133 -1.15282,-0.14435 z m -23.52629,0.6476 c -2.47995,0.007 -4.95531,0.16966 -7.43377,0.26334 -0.0847,0.3816 -0.27127,0.75575 -0.19506,1.15671 1.16706,0.13856 2.37763,-0.25968 3.52084,0.10143 0.32767,0.11009 0.57107,0.38424 0.68467,0.70612 -1.56339,-0.0349 -3.27771,0.29768 -4.43179,1.37713 0.60565,0.0863 1.2316,-0.0528 1.84918,-0.039 0.74626,-0.60293 1.77244,-0.60991 2.68404,-0.67882 1.91983,-0.0949 3.85795,0.12078 5.7543,-0.24187 -0.63954,0.0105 -1.30238,-0.19187 -1.92721,-0.01 -0.23145,0.14303 -0.048,-0.24336 -0.10337,-0.37452 -0.0236,-0.54294 -0.68147,-0.64345 -1.0904,-0.64565 -0.69722,-0.0611 -1.50505,0.13202 -2.11641,-0.30235 -0.11929,-0.10221 -0.26842,-0.24496 -0.0293,-0.31209 0.86063,-0.47987 1.90393,-0.44447 2.85374,-0.33356 0.4672,0.0886 1.00845,0.15652 1.34202,0.53057 1.34831,-0.29004 2.6664,-0.78939 4.06117,-0.81341 -1.78959,-0.32964 -3.60771,-0.3844 -5.42269,-0.38427 z m 25.43594,0.23408 c -0.10514,-0.007 -0.28013,0.0498 -0.26138,0.1697 0.43434,-0.0624 0.90322,0.18577 1.30691,-0.0176 0.12738,-0.17376 -0.18155,-0.0476 -0.26723,-0.0917 -0.26088,-0.0172 -0.51523,-0.0706 -0.7783,-0.0605 z m 2.56505,0.81925 c -0.23239,0.007 -0.47887,-0.005 -0.70221,0.01 0.0569,0.2541 0.43378,0.23077 0.63785,0.1814 0.12155,0.007 0.30269,-0.24109 0.0644,-0.18921 l 0,-0.002 z m -36.8158,0.51106 c -0.25968,0.0234 -0.64751,0.036 -0.76073,0.32185 0.36607,0.27768 0.8682,0.0857 1.28935,0.0956 0.14944,-0.0192 0.33328,0.007 0.46425,-0.008 -0.0965,-0.38393 -0.67409,-0.40205 -0.99287,-0.40768 l 0,-0.002 z m 17.78176,0.22822 c -0.13728,-0.0137 -0.45619,0.0604 -0.42914,0.18726 0.8363,-0.10665 1.64711,0.2492 2.28417,0.76854 0.48637,0.38914 1.06382,0.63538 1.68727,0.70222 -0.93474,0.447 -2.00626,0.60051 -3.01954,0.35501 -1.35762,-0.32215 -2.73528,-0.80766 -4.15089,-0.57348 -0.21098,0.0281 -0.43528,0.0661 -0.63395,0.11704 0.92021,0.48208 1.99047,0.29574 2.99223,0.36671 0.3143,0.0466 0.73117,-0.0692 0.89728,0.26724 0.83471,0.88453 2.12064,1.0011 3.20681,1.40444 0.35282,0.12326 0.70008,0.26874 1.01627,0.47009 0.0476,-0.26539 0.34489,-0.46653 0.58908,-0.29844 0.3135,0.15703 0.64127,0.55387 1.02016,0.35696 0.21525,-0.20177 0.39166,-0.4854 0.69832,-0.55787 0.0213,-0.89339 -0.67392,-1.57117 -1.39079,-1.98962 -0.41223,-0.27076 -0.88057,-0.52782 -1.1372,-0.96165 -0.65063,-0.12065 -1.35476,0.25374 -1.97987,-0.0527 -0.18525,-0.0903 -0.20751,-0.3517 -0.24577,-0.48375 -0.4706,0.0405 -0.94369,-0.086 -1.40444,-0.078 z m 20.29219,0.0605 0,0.006 0.002,0 c 1.6e-4,-0.002 -0.002,-0.004 -0.002,-0.006 z m 0.002,0.006 c -0.0234,0.26819 0.38977,0.18147 0.53836,0.10924 0.16562,-0.10095 -0.007,-0.0818 -0.078,0.008 -0.16613,0.0553 -0.3195,-0.15464 -0.46034,-0.11704 z m -10.52159,0.72368 c -0.24958,0.007 -0.19606,0.0901 -0.008,0.1541 0.10303,0.0779 0.46973,0.13516 0.34331,-0.0741 -0.091,-0.0768 -0.22195,-0.0843 -0.33551,-0.08 z m 3.75102,0.008 c -0.10452,-0.007 -0.28076,0.0522 -0.26138,0.17166 0.43193,-0.0638 0.90525,0.18543 1.30691,-0.0176 0.12931,-0.17399 -0.17919,-0.0495 -0.26529,-0.0936 -0.25984,-0.0172 -0.51901,-0.0708 -0.78024,-0.0605 z m 1.422,0.6203 0.0351,0.0429 c 0.85495,1.03984 2.06743,1.70053 2.97078,2.69184 -0.0272,-1.54511 -1.49925,-2.76975 -3.00589,-2.73475 z m -4.36742,0.004 0,0.002 c 0.35695,0.731 1.14987,1.23575 1.86284,1.461 0.008,-0.18236 0.0394,-0.36831 0.12678,-0.53056 -0.48009,-0.10686 -1.05481,-0.37729 -1.10014,-0.93239 l -0.88948,0 z m 8.17891,0.1814 c -0.0535,0.003 -0.12019,0.018 -0.19896,0.0429 -0.0132,0.20067 0.167,0.35166 0.36086,0.33355 0.0477,-0.28074 -0.001,-0.38434 -0.1619,-0.37647 z m 5.90059,0.23018 c 0.28352,0.46457 0.21865,1.04556 0.19311,1.56438 0.83827,0.42984 1.83054,0.897 2.15347,1.85503 -0.044,0.32353 -0.47293,0.20374 -0.69246,0.22042 -0.22595,-0.0638 -0.64558,0.16736 -0.41158,0.40963 0.38996,0.22265 0.89646,-0.35748 1.24644,0.0117 0.12553,0.39958 0.31134,0.78581 0.56372,1.12746 0.38868,0.54281 0.46022,1.24972 0.29065,1.88429 7.53804,4.58453 14.02053,10.63957 20.37411,16.70306 0.28555,0.27199 0.57081,0.54526 0.85632,0.81731 -0.30231,0.45277 -0.9337,0.22597 -1.36153,0.40963 1.44478,1.52007 2.02793,3.61313 2.48117,5.60605 0.8448,0.44604 1.65047,1.00961 2.36805,1.619 0.12453,0.31652 0.006,0.70771 -0.32576,0.84071 -0.11835,0.0316 -0.31003,0.21274 -0.10143,0.20677 0.19003,-0.24502 0.48887,-0.43537 0.80951,-0.33551 0.073,0.72456 0.33207,1.57776 1.09819,1.85113 -0.24383,0.28804 -0.71673,0.23101 -0.88558,0.57348 -0.0468,0.46478 0.42426,0.76372 0.64955,1.12355 0.21657,0.286 0.32797,0.63994 0.34136,0.99676 -0.54545,-0.1 -1.02416,0.31872 -1.57024,0.21262 0.0698,1.11328 0.90026,1.92161 1.56049,2.73476 0.43583,0.55063 0.73326,1.22111 0.77635,1.9272 0.22913,-0.0234 0.63978,0.0398 0.58517,0.35306 -0.58686,1.13518 -0.39564,2.48853 0.11314,3.61253 0.59167,1.44525 1.60167,2.87072 1.46881,4.50977 -0.0448,0.326 -0.0816,0.7123 -0.27114,0.9675 -0.24395,0.1451 -0.64626,0.1043 -0.69247,-0.2301 -0.0247,-0.1084 -0.0623,-0.4302 -0.18335,-0.3492 0.23846,0.7424 0.65663,1.4833 0.55398,2.3017 -0.25436,0.076 -0.2868,0.5218 -0.62225,0.4994 -0.19508,-0.06 -0.2469,0.043 -0.24968,0.2419 -0.21758,1.1688 0.39621,2.2451 0.57348,3.3706 0.0718,0.4655 -0.069,0.9551 -0.39402,1.2991 -0.4271,-0.3452 -0.31564,-0.9538 -0.32186,-1.4337 -0.37745,0.014 -0.80212,-0.079 -1.1411,0.1307 -0.0148,1.4541 0.5821,2.8546 1.36933,4.0631 0.75173,1.1755 1.45459,2.4412 1.5917,3.8564 -0.17705,0.023 -0.58636,-0.097 -0.34136,0.1599 0.4989,1.0387 0.12738,2.2622 0.55202,3.3219 -0.39209,0.168 -0.78305,0.3558 -1.20743,0.4272 -0.003,1.7212 0.75501,3.3235 0.98311,5.0189 -0.10539,0.3923 -0.54784,0.4984 -0.77829,0.7881 0.7872,2.5945 0.7102,5.3428 0.77048,8.0248 0.0243,1.5299 0.0322,3.0787 0.19312,4.5878 0.58789,-0.1187 1.1444,0.1319 1.68728,0.3121 0.27798,0.042 0.70699,0.053 0.76658,-0.2965 0.17094,-0.3928 0.3282,-0.7952 0.50911,-1.186 0.46333,0.1197 0.97064,-0.057 1.22889,-0.4662 0.22469,-0.2743 0.48127,-0.6689 0.85437,-0.6905 0.39645,0.2172 0.24684,0.7561 0.23797,1.1197 -4.2e-4,0.2101 -0.0842,0.5933 0.20482,0.6378 0.5511,-2.9455 1.3495,-5.8693 1.35761,-8.8752 0.19781,-0.016 0.40691,0.2698 0.58519,0.1014 0.0272,-0.8995 -0.13313,-1.908 0.37452,-2.7094 0.14784,-0.2679 0.42477,0.073 0.4662,0.2789 0.13539,0.3728 -0.0353,0.8756 0.29063,1.1567 0.35274,0.1494 0.41532,-0.3798 0.45255,-0.6183 0.10294,-0.4932 -0.0281,-1.0543 0.22041,-1.5078 0.10021,-0.1221 0.28611,-0.074 0.38037,0.031 0.41792,-5.235 0.42884,-10.5574 -0.53836,-15.7278 -0.10842,-0.5393 -0.22109,-1.1029 -0.36477,-1.617 -0.13328,0.125 -0.36913,0.096 -0.316,-0.1385 -0.74676,-4.3721 -1.12451,-8.82155 -2.25685,-13.11592 -0.13909,-0.45599 -0.25874,-0.96962 -0.45645,-1.39274 -0.46445,-0.048 -0.50937,-0.63164 -0.54812,-0.99676 -0.0913,-0.66546 0.0216,-1.43645 -0.41743,-1.99937 -0.13788,-0.1989 -0.53365,-0.0634 -0.42523,-0.38232 -0.009,-0.57602 0.0754,-1.29103 -0.20871,-1.76335 -0.008,0.18805 -0.32312,0.31549 -0.38622,0.17945 0.123,-1.05054 -0.29945,-2.03114 -0.74904,-2.94737 -0.29334,-0.61831 -0.42971,-1.3144 -0.44279,-1.98377 -0.72268,-0.61858 -0.75318,-1.66828 -0.77634,-2.53969 -0.67596,-0.49429 -0.77314,-1.41051 -0.77635,-2.18468 -2.31553,-4.18175 -5.9914,-7.41598 -9.94225,-10.01638 -0.79471,-0.547 -1.64606,-1.02298 -2.43631,-1.56634 -1.48339,-1.73378 -3.35516,-3.25251 -4.26794,-5.41099 -0.39743,0.022 -0.83717,-0.1231 -0.9831,-0.53057 -1.50204,-2.32559 -3.83508,-3.93416 -6.12491,-5.41489 -0.0641,-0.30329 0.16556,-0.76594 -0.19311,-0.90898 -2.58377,-1.70646 -5.07893,-3.76328 -8.15745,-4.4669 -0.58705,-0.13198 -1.24453,-0.24012 -1.81407,-0.24382 z m -4.95455,0.37061 c -0.16865,0.007 -0.33418,0.0572 -0.48765,0.12484 0.76879,0.94582 1.82093,1.63874 2.68794,2.45972 -0.0242,-0.16258 0.23407,-0.20492 0.11314,-0.34136 -0.0536,-0.15951 -0.0335,-0.33191 0.008,-0.49155 -0.90059,-0.16512 -1.17988,-1.19074 -1.88234,-1.64241 -0.13222,-0.0757 -0.2847,-0.11454 -0.43693,-0.10924 l -0.002,0 z m -41.56358,0.0839 c -0.5658,0.0185 -1.24699,0.0634 -1.71849,0.28089 0.55871,0.72503 1.56485,0.83519 2.39535,0.95384 0.99607,0.10857 2.06245,0.12122 3.02735,0.20482 -0.12599,-0.16046 -0.0695,-0.40869 -0.08,-0.55983 -0.61579,-0.10505 -1.30442,-0.0612 -1.85893,-0.38817 -0.13258,-0.0907 -0.14537,-0.2908 -0.0332,-0.40377 -0.5784,-0.0522 -1.15082,-0.0974 -1.73214,-0.0878 z m 34.72475,0.89728 c -0.0261,0.21022 0.15888,0.39301 0.36476,0.36281 0.0138,-0.22011 -0.14225,-0.38141 -0.36476,-0.36281 z m 12.21666,1.52928 c -0.0389,0.0515 -0.13703,0.48568 0.0507,0.44278 0.15568,-0.0708 0.15072,-0.4445 -0.0507,-0.44278 z m -2.77572,0.0566 0.008,0.0371 c 0.0252,0.22504 0.28858,0.57456 0.52668,0.37841 -0.049,-0.25422 -0.34587,-0.29783 -0.53448,-0.41548 z m 2.02864,0.6281 c -0.19805,0.0123 -0.43623,0.19653 -0.43889,0.38232 0.21583,0.12786 0.4968,0.16691 0.73343,0.12484 0.0377,-0.20576 -0.018,-0.5375 -0.29454,-0.50716 z m 0.73147,0.91679 c -0.0141,0.006 -0.0209,0.0299 -0.0136,0.08 -0.0135,0.19072 0.004,0.19073 0.13264,0.0975 0.0283,-0.0565 -0.0767,-0.19537 -0.11899,-0.1775 z m -82.541975,26.14596 c -0.175106,0.007 -0.395189,0.071 -0.485701,0.22432 0.38249,0.14646 0.919311,0.25805 1.256192,-0.039 0.05354,-0.12628 -0.263465,-0.1005 -0.349159,-0.15215 -0.126941,-0.0247 -0.282619,-0.042 -0.421332,-0.0332 z m -0.825108,0.65931 c -2.003926,0.88597 -3.715339,2.48893 -4.529314,4.54102 -0.05093,0.14928 -0.186396,0.40972 -0.163851,0.4857 1.735592,-1.09997 2.364684,-3.34993 4.226971,-4.30109 0.151589,-0.12464 0.452031,-0.13379 0.530565,-0.28869 -0.04482,-0.0841 0.08936,-0.53543 -0.06437,-0.43694 z m -3.206801,10.29727 c -0.131595,0.046 -0.170656,0.2719 -0.234073,0.40182 -0.08419,0.1597 0.186441,0.57207 -0.124839,0.39988 -0.222587,-0.11077 -0.549814,-0.0698 -0.57738,0.23212 -0.04633,0.3238 -0.304579,0.67198 -0.67101,0.57933 -0.252293,0.85385 -0.921213,1.559 -1.437599,2.28416 -0.390839,0.5619 -0.874422,1.19364 -0.815355,1.92135 0.0617,-0.34445 0.359948,-0.66517 0.73343,-0.58713 0.159432,0.0659 0.241047,-0.015 0.300393,-0.1697 1.043808,-1.67292 2.534498,-3.06624 3.308234,-4.89603 -0.155891,-0.069 -0.300936,-0.18364 -0.481801,-0.1658 z m 116.014444,1.01626 c -0.007,9.8e-4 -0.008,0.01 0.006,0.0371 0.0309,0.29368 -0.15287,0.65051 0.0273,0.90314 0.17562,0.0563 0.0135,-0.22853 0.0546,-0.33161 -0.0402,-0.18599 0.113,-0.46761 -0.0585,-0.59883 -0.009,-0.004 -0.0218,-0.0103 -0.0293,-0.01 z m -116.111974,3.87196 c -0.214819,0.0144 0.09221,0.0763 0.06827,0.19896 0.153862,0.0843 0.309911,-0.0696 0.148247,-0.15799 -0.06588,-0.0357 -0.142482,-0.0472 -0.216518,-0.041 z m 39.193594,14.72513 c -0.16265,3e-4 -0.33918,0.041 -0.49351,0.1541 -0.0774,0.057 -0.15349,0.1427 -0.17555,0.2653 -0.022,0.1225 0.0243,0.2541 0.10533,0.3531 a 0.20884786,0.20884786 0 0 0 0.0312,0.029 c 0.23609,0.1877 0.51483,0.1972 0.71978,0.238 0.10248,0.02 0.18839,0.045 0.24577,0.078 0.0549,0.032 0.0875,0.069 0.11704,0.1385 0.0176,0.061 0.0282,0.1681 0.0156,0.2536 -0.006,0.044 -0.008,0.038 -0.0176,0.06 -1.09736,-0.2068 -2.09573,-0.7955 -2.98443,-1.502 a 0.20884786,0.20884786 0 0 0 -0.1385,-0.045 c -1.920716,0.076 -3.891934,0.4129 -5.658713,1.2621 a 0.20884786,0.20884786 0 0 0 -0.03706,0.021 c -0.11086,0.084 -0.226896,0.086 -0.405726,0.06 -0.17882,-0.024 -0.39522,-0.089 -0.63785,-0.078 -2.825023,-0.2387 -5.519509,0.7412 -8.040411,1.7867 a 0.20884786,0.20884786 0 0 0 -0.0156,0.012 c -0.163049,0.085 -0.482773,0.1128 -0.721725,0.3433 a 0.20884786,0.20884786 0 0 0 -0.06242,0.1288 c -0.01434,0.1413 0.03267,0.2887 0.122888,0.3765 0.09022,0.088 0.193532,0.1203 0.282838,0.1443 0.178613,0.048 0.33094,0.082 0.355011,0.1034 a 0.20884786,0.20884786 0 0 0 0.02341,0.019 c 0.04021,0.027 0.07313,0.1 0.07217,0.195 -7.89e-4,0.078 -0.03058,0.1252 -0.04291,0.1483 -0.36681,0 -0.714537,0.086 -1.031872,0.1521 -0.35205,0.074 -0.654404,0.1015 -0.940193,-0.029 -0.07537,-0.046 -0.173364,-0.184 -0.193111,-0.3043 -0.01007,-0.061 -0.0044,-0.1114 0.0098,-0.1424 0.01412,-0.031 0.03131,-0.05 0.08583,-0.07 a 0.20884786,0.20884786 0 0 0 0.02341,-0.012 c 0.02846,-0.015 0.191178,-0.038 0.356962,-0.092 0.08289,-0.027 0.179381,-0.068 0.253579,-0.1639 0.0742,-0.096 0.09441,-0.2407 0.06437,-0.3667 a 0.20884786,0.20884786 0 0 0 -0.07607,-0.117 c -0.206896,-0.1574 -0.471604,-0.1125 -0.653454,-0.019 -0.181851,0.093 -0.327635,0.2271 -0.433035,0.3316 -0.354382,0.3435 -0.676333,0.6993 -1.072835,0.8017 -0.066,-0.084 -0.09755,-0.195 -0.117037,-0.3667 -0.0246,-0.2166 -0.03686,-0.5088 -0.267233,-0.7257 a 0.20884786,0.20884786 0 0 0 -0.05462,-0.035 c -0.115232,-0.054 -0.25545,-0.065 -0.362813,-0.014 -0.107369,0.051 -0.167902,0.1343 -0.212617,0.2067 -0.08943,0.1448 -0.149267,0.2882 -0.173604,0.3141 a 0.20884786,0.20884786 0 0 0 -0.02731,0.035 c -0.769924,1.2934 -1.908312,2.3475 -3.23411,3.0644 a 0.20884786,0.20884786 0 0 0 -0.0059,0 c -0.14374,0.083 -0.290809,0.1634 -0.436937,0.2438 -0.05981,-0.1617 -0.08777,-0.3294 -0.06437,-0.513 0.03225,-0.2532 0.133072,-0.5212 0.25358,-0.7627 a 0.20884786,0.20884786 0 0 0 0.0039,-0.012 c 0.08126,-0.1921 0.163937,-0.3836 0.216518,-0.6066 a 0.20884786,0.20884786 0 0 0 -0.142395,-0.2477 c -0.811204,-0.2564 -1.637595,-0.099 -2.387545,0.012 a 0.20884786,0.20884786 0 0 0 -0.177506,0.2087 c 0.0028,0.3391 -0.173072,0.6243 -0.395973,0.9421 -0.222908,0.3177 -0.494111,0.6574 -0.567628,1.1099 a 0.20884786,0.20884786 0 0 0 -0.002,0.023 c -0.0085,0.162 0.04988,0.2862 0.132642,0.4077 0.04138,0.061 0.09072,0.1189 0.167753,0.1639 0.07703,0.045 0.208713,0.066 0.312097,0.01 a 0.20884786,0.20884786 0 0 0 0.08778,-0.088 c 0.109693,-0.2108 0.120101,-0.4305 0.165802,-0.5871 0.02285,-0.078 0.04983,-0.1367 0.07802,-0.1697 0.02818,-0.033 0.05295,-0.05 0.120937,-0.06 a 0.20884786,0.20884786 0 0 0 0.002,0 c 0.117009,-0.02 0.188213,0.029 0.275035,0.1483 0.0849,0.117 0.144373,0.2953 0.165803,0.433 0.0091,0.3221 -0.120125,0.6031 -0.331604,0.868 -0.214201,0.2684 -0.50799,0.51 -0.782194,0.7315 -0.143686,0.1151 -0.323979,0.2282 -0.487653,0.357 a 0.20884786,0.20884786 0 0 0 -0.04096,0.2867 c 0.152354,0.2151 0.258063,0.4865 0.276986,0.7451 0.01892,0.2587 -0.04165,0.4971 -0.216517,0.6906 a 0.20884786,0.20884786 0 0 0 -0.0059,0.01 c -0.300907,0.3598 -0.731278,0.5963 -1.18402,0.8505 -0.452741,0.2542 -0.929522,0.5285 -1.271796,0.9948 a 0.20884786,0.20884786 0 0 0 -0.04096,0.1112 c -0.02927,0.518 0.222172,0.9419 0.376468,1.3186 a 0.20884786,0.20884786 0 0 0 0.19116,0.1287 c 1.260956,0.011 2.424281,0.6352 3.503294,1.3284 0.928721,0.5977 2.008386,0.9885 3.134629,1.0124 -0.279214,0.5379 -0.85259,0.8981 -1.468808,0.946 a 0.20884786,0.20884786 0 0 0 -0.0039,0 c -1.668384,0.1539 -3.288725,-0.6144 -4.687314,-1.5429 -1.588104,-1.0497 -3.046724,-2.2905 -4.4825,-3.5579 a 0.20884786,0.20884786 0 0 0 -0.337456,0.094 c -0.126732,0.3973 -0.05487,0.7931 0.117037,1.1274 0.171906,0.3344 0.43959,0.6145 0.729528,0.8271 0.615021,0.5109 1.309642,0.931 1.542932,1.6132 a 0.20884786,0.20884786 0 0 0 0.120938,0.1248 c 1.849893,0.7447 3.355724,2.1862 5.219831,3.1054 a 0.20884786,0.20884786 0 0 0 0.09168,0.021 l 3.241913,0 c 0.146228,1.4951 0.818093,2.9084 1.7575,4.0319 a 0.20884786,0.20884786 0 0 0 0.0019,0 c 0.323037,0.3767 0.731901,0.7444 1.205476,0.987 0.473579,0.2426 1.022286,0.3579 1.581945,0.197 0.611863,-0.178 1.055046,-0.6203 1.421994,-1.0786 0.285565,0.3443 0.651175,0.5812 1.05723,0.7002 0.488972,0.1434 1.010623,0.171 1.462957,0.1795 a 0.20884786,0.20884786 0 0 0 0.0019,0 c 1.1485,0.01 2.272787,-0.1611 3.38821,-0.2887 a 0.20884786,0.20884786 0 0 0 0.136542,-0.3414 c -0.249892,-0.2965 -0.59327,-0.4256 -0.92849,-0.4798 -0.335223,-0.054 -0.673483,-0.041 -0.95775,-0.041 a 0.20884786,0.20884786 0 0 0 -0.0039,0 c -0.998717,0.021 -1.975102,0.2123 -2.898605,0.07 0.0036,-0.075 0.0062,-0.1419 0.0156,-0.2652 0.007,-0.091 0.01237,-0.1879 -0.02341,-0.2965 -0.03578,-0.1085 -0.14759,-0.2244 -0.280888,-0.2536 a 0.20884786,0.20884786 0 0 0 -0.01755,0 c -1.058802,-0.1388 -2.042708,-0.8148 -2.477275,-1.7907 a 0.20884786,0.20884786 0 0 0 -0.0059,-0.01 c -0.150016,-0.2965 -0.245764,-0.6487 -0.34916,-0.989 a 0.20884786,0.20884786 0 0 0 -0.144345,-0.1404 c -0.396509,-0.1072 -0.810078,-0.1233 -1.182069,-0.1834 -0.368758,-0.06 -0.685559,-0.1571 -0.934342,-0.3901 -0.024,-0.029 -0.03157,-0.04 -0.05072,-0.066 0.896805,-0.479 2.012992,-0.3857 2.927865,0.062 a 0.20884786,0.20884786 0 0 0 0.0078,0 c 1.246703,0.5451 2.401233,1.6126 3.90512,1.8063 a 0.20884786,0.20884786 0 0 0 0.0059,0 c 0.197748,0.02 0.399007,0.022 0.598837,0 a 0.20884786,0.20884786 0 0 0 0.09363,-0.3785 c -1.05595,-0.7164 -2.292734,-1.2248 -2.843988,-2.3017 0.07666,-0.4661 0.487245,-0.9176 0.965552,-1.0377 a 0.20884786,0.20884786 0 0 0 0.0078,0 c 0.381865,-0.1115 0.77588,-0.2366 1.160613,-0.4096 0.0012,0.077 0.0082,0.1662 0.07607,0.2477 0.07747,0.093 0.205064,0.1325 0.3238,0.1287 l -0.0156,0 c 0.111464,0 0.252633,0.031 0.331605,0.072 0.07897,0.041 0.09425,0.043 0.08388,0.1307 a 0.20884786,0.20884786 0 0 0 -0.002,0.019 c -0.06419,1.6238 0.98812,3.1115 2.412904,3.7959 l -0.0039,0 c 1.837879,0.9185 4.176179,0.9445 5.9201,-0.2516 1.124049,-0.7659 1.669378,-2.1108 1.658018,-3.4116 0.37915,-0.2078 0.804426,-0.253 1.236686,-0.1619 0.463637,0.098 0.922987,0.3384 1.281547,0.6319 a 0.20884786,0.20884786 0 0 0 0.004,0 c 0.31555,0.2451 0.59811,0.5959 0.75294,0.9715 0.15483,0.3756 0.18581,0.7663 0.0234,1.1391 a 0.20884786,0.20884786 0 0 0 -0.01,0.031 c -0.0437,0.1666 -0.13915,0.2294 -0.30234,0.2731 -0.1632,0.044 -0.38481,0.037 -0.56568,0 a 0.20884786,0.20884786 0 0 0 -0.0234,0 c -0.17022,-0.011 -0.42196,-0.084 -0.68856,-0.1014 -0.266609,-0.018 -0.592036,0.046 -0.788046,0.3257 a 0.20884786,0.20884786 0 0 0 -0.02926,0.066 c -0.0169,0.065 -0.01619,0.1582 0.03121,0.2322 0.0474,0.074 0.118373,0.1076 0.171653,0.1229 0.10657,0.031 0.190787,0.02 0.278938,0.012 0.0881,-0.01 0.175336,-0.021 0.247727,-0.027 0.0724,-0.01 0.134437,8e-4 0.124837,0 a 0.20884786,0.20884786 0 0 0 0.0663,0.01 c 0.7259,-0.031 1.45617,-0.012 2.18468,0.023 a 0.20884786,0.20884786 0 0 0 0.15215,-0.059 c 0.25508,-0.2349 0.37311,-0.5357 0.49546,-0.7861 0.11287,-0.231 0.22638,-0.4055 0.40572,-0.5169 1.60825,0.088 3.06179,1.1614 4.7907,1.3381 a 0.20884786,0.20884786 0 0 0 0.17946,-0.3414 c -1.81327,-2.1239 -4.43608,-3.2061 -6.83884,-4.344 a 0.20884786,0.20884786 0 0 0 -0.002,0 c -1.44377,-0.6773 -2.881428,-1.37 -4.152848,-2.3017 a 0.20884786,0.20884786 0 0 0 -0.156049,-0.039 c -0.838587,0.1327 -1.704153,-0.1515 -2.348533,-0.7081 a 0.20884786,0.20884786 0 0 0 -0.09168,-0.045 c -0.74732,-0.1703 -1.527214,-0.1313 -2.262706,-0.092 a 0.20884786,0.20884786 0 0 0 -0.0039,0 c -1.915251,0.1515 -3.711558,0.8423 -5.559237,0.8368 a 0.20884786,0.20884786 0 0 0 -0.179456,0.1034 c -0.159599,0.2712 -0.413473,0.4394 -0.727578,0.554 -0.310515,0.1133 -0.673133,0.1669 -1.008464,0.2106 l -0.0039,0 c -0.864512,0.064 -1.750673,0.067 -2.541644,-0.2087 a 0.20884786,0.20884786 0 0 0 0.01756,-0.023 c 0.929858,-1.3874 2.542763,-2.1433 4.162601,-2.5338 a 0.20884786,0.20884786 0 0 0 0.0059,0 c 0.708845,-0.189 1.451979,-0.3085 2.184683,-0.4799 a 0.20884786,0.20884786 0 0 0 0.07607,-0.029 c 1.089357,-0.7881 2.472592,-1.0926 3.823195,-1.3479 l 0.0078,0 c 2.261024,-0.3523 4.623535,-0.4106 6.801774,0.2731 l 0.002,0 c 0.3369,0.1436 0.662781,0.2143 0.844611,0.3842 0.0424,0.1166 0.0761,0.262 0.14045,0.4214 0.07,0.1735 0.20195,0.3631 0.42718,0.4623 0.35107,0.2506 0.74532,0.4004 1.09234,0.5734 0.35635,0.1776 0.65163,0.3752 0.83291,0.7023 a 0.20884786,0.20884786 0 0 0 0.0156,0.019 c 0.21086,0.2836 0.17696,0.6952 -0.0702,0.948 a 0.20884786,0.20884786 0 0 0 -0.0117,0.012 c -0.25858,0.3075 -0.70257,0.7064 -0.71197,1.2347 a 0.20884786,0.20884786 0 0 0 0.30624,0.1892 c 0.64925,-0.3315 1.13765,-0.8199 1.71849,-1.0533 2.60077,1.8705 5.25033,3.8549 8.42078,4.7731 a 0.20884786,0.20884786 0 0 0 0.002,0 c 0.1489,0.042 0.28788,0.075 0.32771,0.098 0.0199,0.012 0.01,0.01 0.008,0 -0.002,-0.01 0.006,0.01 -0.0176,0.07 a 0.20884786,0.20884786 0 0 0 -0.0156,0.06 c -0.0509,0.8693 0.0752,1.7291 0.18921,2.567 a 0.20884786,0.20884786 0 0 0 0.34136,0.1327 c 0.37343,-0.3133 0.53802,-0.7446 0.60469,-1.1743 0.0665,-0.4289 0.0422,-0.8655 0.0312,-1.2445 -0.0218,-1.05 -0.2798,-2.0982 0.0878,-2.9922 0.0471,-0.1016 0.14378,-0.1786 0.22431,-0.2633 0.13023,0.1838 0.25544,0.3764 0.39598,0.5949 0.16164,0.2512 0.38293,0.4849 0.68856,0.6359 0.20394,1.6605 -0.29379,3.4039 0.0839,5.1691 0.007,0.1442 0.0652,0.2515 0.11118,0.3355 0.0235,0.043 0.0451,0.079 0.0585,0.1015 0.007,0.011 0.01,0.019 0.01,0.018 -4.4e-4,-9e-4 -0.003,-5e-4 -0.008,-0.018 -0.003,-0.01 -0.008,-0.042 -0.008,-0.041 3e-5,4e-4 2e-5,-0.043 0,-0.043 -4e-5,3e-4 0.0215,-0.074 0.0215,-0.074 l 0.39012,0.1423 c 0.53607,-2.302 0.54122,-4.7264 -0.0293,-7.0124 a 0.20884786,0.20884786 0 0 0 -0.004,-0.01 c -0.23355,-0.8316 -0.56642,-1.7043 -1.21914,-2.3583 -0.0307,-0.6308 -0.0197,-1.2721 0.15801,-1.8414 a 0.20884786,0.20884786 0 0 0 -0.10339,-0.2497 c -0.32278,-0.1652 -0.6689,-0.1402 -0.9558,-0.1541 -0.2857,-0.014 -0.48908,-0.049 -0.6398,-0.2263 l -0.002,0 c -0.0248,-0.031 -0.0204,-0.034 -0.0215,-0.029 -0.001,0 0.005,-0.016 0.0527,-0.049 a 0.20884786,0.20884786 0 0 0 0.0449,-0.041 c 0.23474,-0.2946 0.33533,-0.6416 0.44864,-0.9422 0.11336,-0.3006 0.2299,-0.5482 0.44864,-0.7081 a 0.20884786,0.20884786 0 0 0 0.004,0 c -0.0232,0.018 0.0125,0.01 0.12288,-0.016 0.0552,-0.01 0.16498,-0.043 0.21847,-0.1502 0.0431,-0.087 0.0316,-0.1602 0.0117,-0.2301 -0.0164,-0.2583 0.0445,-0.5529 0.0878,-0.8681 0.0435,-0.3176 0.0665,-0.6651 -0.0858,-1.0084 a 0.20884786,0.20884786 0 0 0 -0.01,-0.019 c -0.0509,-0.092 -0.0943,-0.1791 -0.22822,-0.2536 -0.0335,-0.019 -0.0805,-0.04 -0.1502,-0.035 -0.0697,0 -0.14856,0.057 -0.18335,0.1092 -0.0609,0.092 -0.0546,0.1585 -0.0468,0.2321 -0.0218,0.2153 -0.0938,0.4515 -0.21066,0.6242 -0.10387,0.1535 -0.2373,0.2446 -0.40768,0.279 -0.56728,-0.3925 -0.81473,-1.1373 -0.72368,-1.8297 a 0.20884786,0.20884786 0 0 0 0.002,-0.01 c 0.10473,-1.293 0.7544,-2.7226 0.21067,-4.147 a 0.20884786,0.20884786 0 0 0 -0.0137,-0.029 c -0.0108,-0.019 -0.0229,-0.04 -0.0546,-0.068 -0.0159,-0.014 -0.0384,-0.031 -0.0702,-0.043 -0.0159,-0.01 -0.0519,-0.012 -0.0527,-0.012 -7.9e-4,-10e-5 -0.0616,0 -0.0624,0 -7.5e-4,10e-5 -0.0539,0.017 -0.0546,0.018 -7.2e-4,3e-4 -0.0296,0.016 -0.0409,0.025 -0.023,0.018 -0.0366,0.036 -0.0468,0.051 -0.0203,0.029 -0.0273,0.051 -0.0332,0.068 -0.0237,0.071 -0.0257,0.115 -0.0312,0.1736 -0.006,0.059 -0.009,0.1204 -0.0136,0.1717 -0.005,0.051 -0.0171,0.1 -0.0137,0.09 a 0.20884786,0.20884786 0 0 0 -0.01,0.033 c -0.17702,1.2072 -0.46716,2.4948 -1.35763,3.2887 -0.0185,-0.046 -0.0293,-0.082 -0.0683,-0.1405 l 0.0215,0.041 c -0.20914,-0.556 -0.22318,-1.1699 -0.23408,-1.8082 -0.0109,-0.6382 -0.0172,-1.2989 -0.25943,-1.9311 a 0.20884786,0.20884786 0 0 0 -0.29649,-0.1092 c -0.19294,0.1049 -0.32647,0.26 -0.45254,0.3608 -0.11249,0.09 -0.18437,0.1123 -0.27309,0.1014 -0.11303,-0.099 -0.16774,-0.2368 -0.21261,-0.4388 -0.001,-0.01 -0.003,-0.011 -0.004,-0.019 a 0.20884786,0.20884786 0 0 0 -0.002,0 c -0.0222,-0.1599 -0.0553,-0.2865 -0.0761,-0.396 -0.0231,-0.122 -0.0353,-0.2539 -0.002,-0.5013 l -0.41743,-0.022 c 0.007,0.2943 0.0208,0.638 0.0878,0.9734 a 0.20884786,0.20884786 0 0 0 0.002,0.031 c 8.2e-4,0.01 0.005,0.013 0.006,0.019 a 0.20884786,0.20884786 0 0 0 0.006,0.019 c 0.0648,0.5527 0.19471,0.9572 0.27894,1.184 0.002,0.01 0.004,0.01 0.006,0.014 a 0.20884786,0.20884786 0 0 0 -0.0117,0.023 c -0.004,0.01 -0.006,0.01 -0.01,0.016 -0.003,-0.012 -0.007,-0.019 -0.01,-0.031 -0.0186,-0.074 -0.0371,-0.1523 -0.0566,-0.2224 -0.0196,-0.07 -0.0129,-0.1202 -0.0995,-0.2146 -0.0216,-0.024 -0.0576,-0.054 -0.11313,-0.07 -0.0556,-0.016 -0.12747,0 -0.17166,0.019 -0.0884,0.048 -0.10317,0.099 -0.12289,0.1405 -0.0395,0.084 -0.0635,0.1801 -0.0956,0.3335 -0.0507,0.251 -0.27283,0.4177 -0.52471,0.4955 -0.39426,-1.3795 -1.02704,-2.7259 -2.05984,-3.7706 a 0.20884786,0.20884786 0 0 0 -0.31015,0.016 c -0.22132,0.2728 -0.63768,0.3043 -0.91288,0.086 a 0.20884786,0.20884786 0 0 0 -0.0215,-0.016 c -0.32884,-0.2013 -0.70467,-0.6315 -1.28155,-0.6164 l 0,-0.01 z m 44.1852,1.4357 c -0.95489,0.069 -1.58589,1.0179 -2.5592,1.0474 -0.44585,0.033 -0.88642,-0.1025 -1.2796,-0.3042 -0.88244,0.647 -1.48212,1.7687 -2.61967,2.0188 -0.37916,0.081 -0.77117,-10e-4 -1.12745,-0.1365 0.49646,-0.6571 1.12825,0.1361 1.63461,-1.8453 -1.63331,1.8459 -1.72758,1.0955 -1.94281,1.1704 -1.76537,0.7008 -1.38036,1.6667 -3.16778,2.3368 -0.26069,0.094 -0.53563,0.1353 -0.81146,0.1541 -0.1987,1.7774 -1.05029,0 -1.09039,-0.5754 -3.86365,3.2704 -4.08144,4.1657 -4.84531,9.2283 -0.36073,2.3445 -0.23403,4.7534 0.31599,7.0534 0.63759,0.2136 0.68701,0.9974 0.83292,1.541 0.046,0.1672 0.0998,0.3366 0.197,0.4818 0.43854,-1.6896 -0.77889,-3.3312 -0.3316,-5.0267 0.12952,-0.3657 0.28888,-0.8058 0.64955,-0.9851 1.17323,-0.4795 2.42961,0.3281 3.60083,-0.01 0.81689,-0.4021 1.65447,-1.0685 2.62552,-0.8817 0.119,-0.025 0.322,0.2033 0.35111,0.012 0.40713,-0.9675 1.49396,-1.3851 2.47337,-1.461 0.59932,-0.066 1.21825,-0.025 1.80627,0.01 0.36292,-0.7932 0.5403,-1.8465 1.41224,-2.2588 0.47345,-0.2459 1.048,-0.011 1.32641,0.4194 0.21318,0.3122 0.67944,0.4532 0.99676,0.2672 0.22452,-0.4882 -0.3517,-0.8039 -0.67491,-1.0318 -0.31457,-0.216 -0.65833,-0.455 -0.78024,-0.8368 2.03829,-1.4524 4.62505,-1.8351 7.07291,-1.8356 2.56778,0.019 5.12838,0.4999 7.53325,1.3947 0.73323,0.1619 1.42582,0.4355 2.07935,0.7842 -0.0945,0.3371 -0.17439,0.6783 -0.19506,1.0318 2.00568,0.8304 3.43633,2.6311 5.40514,3.4975 0.68539,0.6474 1.4075,1.251 2.22369,1.7243 1.04643,-0.1083 2.0539,-0.496 2.97469,-1.0065 -1.47176,-0.2802 -2.92722,-0.7923 -4.22698,-1.5546 0.0937,-0.1254 0.29226,-0.2347 0.0878,-0.3375 -0.67992,-0.5956 -1.55201,-1.2239 -1.6073,-2.2139 -0.0274,-0.1523 0.0781,-0.4194 -0.1697,-0.3492 -0.29214,0.076 -0.42989,0.483 -0.7783,0.4389 -0.2659,0.044 -0.23654,-0.2008 -0.22041,-0.4135 0.0661,-0.2541 -0.1373,-0.6776 0.10922,-0.8193 0.35862,-0.1858 0.92201,-0.1833 1.06114,-0.6359 -0.37371,-0.3195 -1.07036,-0.038 -1.34007,-0.5305 -0.1,-0.1404 0.0368,-0.4248 -0.21457,-0.3375 -0.6073,0.036 -1.2103,-0.091 -1.7692,-0.3218 0.11489,-0.063 0.27144,-0.1135 0.34136,-0.2127 0.32817,-0.3296 0.16068,-0.8683 -0.18336,-1.1157 -1.22545,-1.0587 -2.87706,-1.2784 -4.34596,-1.8667 -0.21594,-0.253 -0.45242,-0.4896 -0.72367,-0.6925 -0.19402,-0.1516 -0.39912,-0.2866 -0.61055,-0.4116 0.19995,-0.108 0.4656,-0.1326 0.4662,-0.4252 0.0171,-0.278 -0.51002,-0.1211 -0.72173,-0.2165 -2.07528,-0.2826 -4.25827,-0.5298 -6.0781,-1.6542 -0.35118,-0.2214 -0.67017,-0.4893 -0.96554,-0.7802 0.1575,-0.038 0.25725,-0.056 0.3277,-0.062 -0.19635,-0.1655 -0.0671,-0.1604 0.50911,-0.6515 -0.91849,0.1896 -1.84035,0.638 -2.79717,0.4798 -0.27204,-0.062 -0.61739,-0.2502 -0.65931,-0.5227 0.1552,-0.417 0.72446,-0.1968 0.98896,-0.4428 0.14972,-0.3423 -0.37,-0.3012 -0.56568,-0.3258 l 0,-0 z m 2.52409,1.4649 c 0.0283,0.024 0.0548,0.058 0.0975,0.092 0.0409,-0.062 0.0429,-0.1031 -0.0975,-0.092 z m 0.0975,0.092 c -0.089,0.1345 -0.34404,0.3577 0.35305,0.2984 -0.15477,-0.1449 -0.26153,-0.2269 -0.35305,-0.2984 z m -15.047,2.4772 c 2.5e-4,0.03 0.01,0.1442 0.0136,0.4136 0.17918,0.015 0.35883,0.01 0.53837,-0.01 0.0142,-0.1248 0.0341,-0.2209 0.041,-0.3843 -0.51655,0.5478 -0.59373,-0.1111 -0.59298,-0.019 z m 59.53845,9.2225 c -0.53247,0.086 -0.73711,0.6899 -0.9519,1.1119 -0.24111,0.4509 -0.31774,1.0306 -0.70027,1.3985 -0.0786,0.062 -0.21359,0.01 -0.16775,0.1483 0.003,0.611 -0.54153,1.0426 -1.10014,1.1469 -0.27473,0.073 -0.55731,0.1127 -0.83682,0.162 0.40256,1.4659 0.0703,3.0006 0.10534,4.4903 0.0175,0.6878 0.041,1.4557 0.45254,2.0325 0.20363,-1.5372 -0.097,-3.1782 0.54617,-4.6386 0.19959,-0.3898 0.5191,-0.8239 0.9636,-0.9089 0.52919,0.05 0.61367,0.6786 0.63199,1.1001 0.0186,0.1193 -6.5e-4,0.5059 0.20287,0.2906 0.1506,-0.065 0.41455,-0.5541 0.39012,-0.1833 0.15994,1.3198 -0.23825,2.6766 0.1463,3.9656 0.0726,0.2215 0.29766,0.5638 0.24383,0.1248 0.0682,-1.8016 0.17559,-3.6673 -0.49351,-5.3759 0.32976,0.187 0.79505,0.1899 1.01431,-0.1599 0.56007,-0.8708 0.54495,-1.9692 0.4818,-2.9708 -0.0762,-0.527 -0.12028,-1.1283 -0.46619,-1.5527 -0.13244,-0.1 -0.29134,-0.1875 -0.46229,-0.1814 z m -45.72228,1.3537 c -2.63045,0.07 -5.01669,1.3887 -7.42012,2.3583 -0.94633,0.3804 -1.91637,0.739 -2.93372,0.868 -1.18308,1.2828 -3.01524,1.6245 -4.31474,2.7524 0.94559,0.1475 1.82108,-0.2933 2.70158,-0.5521 0.53204,-0.1289 1.12804,-0.1839 1.64437,-0.029 0.31045,0.4065 0.84944,0.8411 1.38103,0.5832 0.14261,-0.4164 -0.31656,-0.7775 -0.18141,-1.1743 0.75191,-0.7752 1.85787,-1.2396 2.94152,-1.1684 0.0149,0 0.03,0.01 0.0449,0.012 0.0428,0.8529 1.91976,2.8129 2.4207,3.199 0.31384,0.2458 0.62284,0.5439 0.84852,0.8524 1.6989,-0.228 3.39887,0.3679 5.08914,0.061 0.25146,-0.094 0.70138,-0.088 0.67686,-0.4486 0.0285,-0.2974 0.0914,-0.6185 0.40182,-0.7549 0.43105,-0.3701 0.89517,-0.7342 1.28156,-1.1392 -0.13206,-0.7161 0.0979,-1.5168 0.71782,-1.9408 0.24623,-0.1901 0.51957,-0.3403 0.7861,-0.4994 0.78011,0.4527 1.20198,1.4483 0.89532,2.3115 -0.18211,0.5747 -0.60817,1.0621 -1.14305,1.3362 1.18178,0.1788 2.21028,-0.7857 3.39406,-0.6789 0.55687,0.062 0.94308,0.5383 1.16647,1.0144 -0.4788,0.024 -1.04655,-0.05 -1.46882,0.039 -0.0568,0.5596 -0.54141,0.9076 -0.93629,1.2406 0.13875,0.2569 0.17696,0.5779 0.20872,0.8446 0.0906,-0.2008 0.24415,-0.6857 0.28674,-0.6496 0.0928,0.5566 0.29755,1.2669 -0.18922,1.7088 -0.12268,0.1566 -0.19314,0.4283 -0.10923,0.5949 0.35074,0.1173 0.75914,0.096 1.10015,0.096 -0.0868,-0.8232 0.21355,-1.7275 0.94799,-2.173 0.18411,-0.1596 0.49435,-0.2124 0.63785,-0.3687 0.0367,-0.532 0.0721,-1.1717 0.474,-1.5585 0.87458,-0.2729 1.84165,0.2577 2.67818,-0.1717 0.16368,-0.5881 -0.24024,-1.0743 -0.49935,-1.5546 -0.14175,-0.2939 -0.0166,-0.6369 0.19701,-0.8602 -1.96954,-0.6828 -3.96736,-1.29 -6.00592,-1.7263 0.0605,-0.2773 0.0553,-0.8141 -0.35697,-0.751 -0.87449,-0.011 -1.58175,-0.6374 -2.42265,-0.8017 -0.53245,-0.1335 -1.09627,-0.1262 -1.62681,0.014 -0.9937,-0.6092 -2.15354,-0.9105 -3.31408,-0.8837 z m 47.13257,5.4812 -0.0215,0.033 c -0.20432,0.2985 0.0552,0.6714 0.0371,1.0065 0.0394,0.3353 0.0633,0.7367 0.0819,1.0358 0.0204,-0.695 0.0122,-1.3872 -0.0975,-2.0755 z m -29.73119,0.8564 c -0.58379,-0.026 -1.15106,0.3516 -1.2952,0.9304 -0.0858,0.1734 -0.0773,0.2882 0.13849,0.2263 2.13962,-0.058 4.26827,0.6326 6.39214,0.2399 0.40047,-0.091 0.84973,-0.2467 1.13721,-0.5189 -0.46662,-0.4785 -1.16341,-0.1348 -1.72629,-0.086 -1.5946,0.2038 -3.06811,-0.781 -4.64635,-0.7919 z m -73.885179,0.6768 c -0.368965,-0.014 -0.761955,0.1692 -0.891429,0.5345 2.003107,0.4928 4.095514,1.1661 6.160025,0.63 0.610569,-0.1511 1.196797,-0.3922 1.751647,-0.6866 1.010636,0.9386 2.501056,1.2075 3.811486,0.8778 0.26669,0.03 0.0957,-0.2352 0.158,-0.3843 0.031,-0.2266 0.18149,-0.417 0.21067,-0.6437 -3.31035,-0.3054 -6.642265,-0.1521 -9.963712,-0.1989 -0.412531,-0.039 -0.820613,-0.1347 -1.236687,-0.1288 z m 47.284719,0.6437 0,0.01 c 0.10839,0.2036 0.12904,0.4544 0.10923,0.6671 1.76302,0.5382 3.37012,1.6333 5.25105,1.7068 0.68009,0.017 1.36524,-0.2533 1.82187,-0.7627 l 1.53512,0 c -0.0782,0.4114 0.24773,0.7598 0.64956,0.7744 0.74613,0.098 1.49943,-0.091 2.24515,0.02 0.1893,0.3011 0.44402,0.5836 0.8251,0.6027 0.17712,0.011 2.47478,0.1488 2.5592,0.039 -4.8e-4,-0.027 -0.0101,-0.051 -0.0175,-0.076 0.046,0 0.10706,3e-4 0.14824,-0.012 -0.10518,-0.1528 -0.27412,-0.2325 -0.45448,-0.2829 -0.62217,-0.3313 -1.90745,-0.4472 -1.54489,-0.7939 0.1318,-0.1097 0.82289,-0.7403 0.61249,-0.7568 -1.25703,-0.3262 -2.40747,0.5515 -3.63593,0.669 -0.61266,0.075 -1.22134,-0.2395 -1.56244,-0.7451 -1.8159,-0.1564 -3.66464,0.2501 -5.47341,-0.09 -0.401,-0.092 -0.84381,-0.28 -1.01822,-0.6827 -0.68251,0.083 -1.46195,0.056 -2.05009,-0.2829 z m 48.73598,3.4233 c -0.19835,0 -0.39205,-2e-4 -0.55593,0.029 0.0186,0.6395 -0.1634,1.2947 -0.63004,1.7517 -0.18299,0.1657 -0.26934,0.477 -0.4662,0.5773 l -3.45063,0 c -0.38483,1.4461 -0.2834,2.9522 -0.38037,4.4338 -0.0522,1.0344 -0.0992,2.0811 -0.36281,3.0878 0.3972,0.6615 0.97939,1.2963 1.77115,1.4571 0.3251,-0.5483 1.06644,-0.4688 1.6112,-0.5189 0.29622,-0.039 0.69995,-0.01 0.90314,-0.2379 0.12347,-0.7259 -0.28708,-1.4755 0.0273,-2.175 0.29085,0.013 0.81138,0.075 0.84267,-0.3394 0.0348,-0.2317 0.0767,-0.4737 0.21847,-0.6671 -0.49687,-0.5618 -1.30622,-1.0933 -1.22693,-1.9487 0.0304,-0.3545 0.19466,-0.68 0.38036,-0.9772 0.65589,0.1721 1.35232,-0.1134 1.73994,-0.6593 0.31227,-0.3666 0.62012,-0.8929 1.16452,-0.9051 0.12532,-0.6285 -0.16554,-1.2287 -0.56372,-1.6931 -0.26292,-0.3479 -0.44037,-0.772 -0.43499,-1.2133 -0.18544,0.01 -0.38882,0 -0.58713,0 l 0,-0 z m 4.38887,3.3278 c -0.0314,0.016 -0.051,0.067 -0.0351,0.1736 0.33044,0.043 0.12945,-0.2203 0.0351,-0.1736 z m -0.87193,0.7978 c -0.21029,0.6602 0.0723,1.3754 -0.1424,2.0462 -0.0977,0.3514 -0.68227,0.067 -0.71197,0.472 -0.34369,1.0627 -0.0106,2.2367 -0.21261,3.3336 -0.0144,0.1955 -0.21977,0.325 -0.37841,0.1775 -0.19326,-0.1756 -0.11466,0.2182 -0.16386,0.3375 -0.12376,0.9942 -0.011,2.0208 -0.25553,3 -0.0344,0.2127 -0.29744,0.3652 -0.4701,0.2009 -0.14536,1.2349 -0.23179,2.4803 -0.16385,3.7237 -1.48543,0.9635 -2.68628,2.3472 -3.38041,3.9812 -1.73666,-0.058 -3.03407,1.4453 -4.74583,1.5059 -0.40089,0.011 -0.80067,-0.095 -1.1567,-0.277 -0.28219,1.0122 -0.0902,2.0643 -0.14045,3.1034 0.70288,0.2788 1.39652,-0.1873 2.05399,-0.3803 0.67677,-0.2646 1.52461,-0.2882 2.08716,0.236 0.14883,0.1011 0.28584,-0.22 0.41743,-0.3102 1.21698,-1.3898 1.73799,-3.2026 2.31536,-4.9175 0.25627,0.1066 0.74631,0.1681 0.76465,-0.234 0.036,-0.2466 -0.007,-0.4937 -0.0371,-0.7354 0.58892,0.1646 1.00818,-0.3551 1.24645,-0.8056 0.18386,-0.3381 0.52131,-0.7715 0.96165,-0.6027 0.39481,-1.7957 1.20017,-3.5204 1.1528,-5.3915 0.0244,-0.187 -0.11572,-0.546 0.18336,-0.4467 0.10378,-0.011 0.25604,0.1997 0.19311,-0.031 -0.0748,-1.8771 0.42879,-3.6999 0.8134,-5.5183 0.15584,-0.8141 0.23453,-1.6312 0.18532,-2.4675 -0.13821,0 -0.27952,-0.011 -0.41549,0.01 l 0,-0.01 z m -9.00596,11.296 c 0.0822,-0.01 -0.18302,0.075 -0.21262,0.092 3.2e-4,0 -1e-5,0.01 0,0.01 -0.49259,0.2283 -0.85663,0.6899 -1.18597,1.1079 -0.55259,0.782 -1.02694,1.853 -0.57543,2.7875 0.35077,0.1104 0.63543,-0.1683 0.9675,-0.2049 -0.13558,-0.7723 0.18277,-1.5184 0.55593,-2.1749 0.23993,-0.4656 0.31476,-1.0053 0.23797,-1.5137 0.0708,-0.033 0.13577,-0.074 0.21262,-0.098 l 0,-0.01 z m -49.64886,4.4708 c -0.0219,0.4718 -0.59413,0.5758 -0.75878,0.9577 -0.0974,0.3067 0.30016,0.4749 0.42913,0.7198 1.03483,1.2606 1.889,2.6569 2.88885,3.9441 0.19313,-1.8359 -0.29336,-3.8836 -1.73604,-5.1262 -0.24566,-0.1991 -0.53953,-0.3969 -0.82316,-0.4954 z m -27.0452,0.1658 c -0.77088,0.1191 -1.19143,0.9068 -1.51757,1.5195 -0.60388,1.3102 -0.98024,2.7655 -0.83291,4.2192 0.26562,-1.7097 1.23711,-3.3108 2.70549,-4.2465 0.2865,-0.1903 0.58639,-0.36 0.89533,-0.5111 -0.27551,-0.4506 -0.66012,-0.9948 -1.25034,-0.9811 z m 81.05367,3.5423 c 0.0298,0.2332 -0.12901,0.5478 0.0371,0.7373 0.22141,0.055 0.0924,-0.2831 0.11313,-0.4135 -0.0144,-0.1168 -0.042,-0.2596 -0.1502,-0.3238 z m -0.79975,1.9018 0,1.1879 c 0.27438,-0.1533 0.24281,-0.5606 0.21262,-0.8368 -0.0305,-0.1279 -0.0628,-0.3168 -0.21262,-0.3511 z m -83.34368,1.7673 c -0.008,0.04 -0.0156,0.079 -0.0234,0.119 -0.57704,3.1948 -0.10037,6.6081 1.42395,9.4936 0.22986,0.3535 0.39336,0.7977 0.72952,1.0533 1.45699,0.7426 3.10668,1.4275 4.01241,2.8693 0.88777,0.011 1.54299,0.6755 2.30367,1.0241 0.20205,0.1272 0.52108,0.086 0.67686,0.2185 0.30444,1.1164 1.42232,1.6436 2.26466,2.2998 0.46631,0.358 0.86644,0.8284 1.06308,1.3849 0.89312,0.3573 1.51163,1.1512 2.27831,1.7029 0.62319,0.472 1.43952,1.0538 2.25686,0.7275 0.12648,-0.064 0.42618,-0.2081 0.38037,-0.3023 -0.18619,-0.023 -0.34806,-0.3381 -0.10534,-0.3823 0.3841,-0.015 0.72016,-0.3332 1.12161,-0.2107 0.80283,-1.4186 1.66369,-2.9917 3.21655,-3.7022 0.76155,-0.4148 1.65367,-0.3086 2.47337,-0.3414 1.86803,-0.2526 3.44035,-1.3706 5.07939,-2.2178 0.8151,-0.4283 1.66814,-0.8108 2.5787,-0.9793 1.60298,-1.8431 2.16245,-4.3173 2.4168,-6.6847 0.12708,-1.2696 0.14886,-2.5536 0.0975,-3.831 -0.88934,1.3688 -1.90123,2.8222 -3.45258,3.4877 -1.12183,0.4928 -2.43779,0.2206 -3.42527,-0.4506 -0.14892,-0.6031 0.01,-1.307 -0.38622,-1.8258 -0.0977,1.3591 -0.8639,2.6136 -1.97402,3.3883 -0.89761,0.6506 -1.9029,1.1463 -2.88495,1.6424 -1.3997,0.4156 -2.79446,-0.2848 -4.13724,-0.5365 -1.9144,-0.3864 -3.79623,0.4892 -5.72504,0.3863 -1.45456,-0.091 -2.82983,-0.9018 -3.61058,-2.134 -0.70613,-1.05 -1.1274,-2.2543 -1.59365,-3.4214 -0.13535,0.5712 0.0447,1.2399 -0.3238,1.7439 -1.34409,0.4714 -2.9245,0.37 -4.10018,-0.4779 -1.35535,-0.9493 -2.16307,-2.492 -2.63137,-4.0436 z m 82.58295,0.6749 0,0.035 c 0.0229,0.4347 -0.13738,0.9448 0.004,1.3205 0.0914,-0.4289 0.31434,-0.9768 -0.004,-1.3556 z m -0.80756,2.1515 c -0.0106,0.4372 -0.34047,0.8629 -0.20091,1.2854 0.42059,-0.1576 0.45241,-0.7482 0.31989,-1.1196 -0.0264,-0.062 -0.0672,-0.1303 -0.11898,-0.1658 z m -6.0742,0.5208 c -0.68827,0.011 -1.36569,0.152 -2.01887,0.3843 -0.66633,0.9082 -1.49512,1.8111 -1.58195,2.9922 -0.484,3.5639 -0.23957,7.1752 -0.38622,10.7635 -0.0738,1.6405 -0.1503,3.3057 -0.57543,4.898 -1.12342,2.5769 -0.88346,5.5222 -1.99158,8.1145 -0.15498,0.5657 -0.32928,1.2252 -0.0624,1.7789 0.17327,0.2211 0.099,-0.2089 0.14631,-0.3121 0.30702,-2.5713 1.77765,-4.9009 1.72043,-7.5254 -0.0638,-0.6078 0.27462,-1.1546 0.37842,-1.7458 1.24664,-4.8183 1.28493,-9.8906 2.84009,-14.6413 0.1697,-0.4625 0.31773,-0.954 0.55592,-1.3771 0.56035,-0.406 1.32639,-0.3249 1.88624,0.037 0.32911,0.1586 0.62645,0.4617 0.98115,0.511 1.04899,-0.3636 2.27682,-0.4851 3.07611,-1.3342 0.3717,-0.4142 0.50159,-0.9892 0.48376,-1.5332 -0.69453,0.1158 -1.42103,0.2967 -2.11837,0.1541 -0.93649,-0.7625 -2.12795,-1.1902 -3.33359,-1.1625 l 0,-0 z m -86.232532,23.1849 0,0 -0.0078,0.031 c -0.113853,0.2835 0.107754,0.5128 0.351109,0.6184 0.234221,0.1291 0.377022,0.4898 0.220418,0.7002 -0.627484,0.3265 -1.388494,0.09 -1.979868,-0.2106 -0.105134,-0.059 -0.22302,-0.1459 -0.245776,-0.2634 -0.85458,-0.1363 0.604202,0.1656 -0.245777,0.2556 0.546973,0.6674 -0.656821,0.5417 -0.304296,1.4005 0.06081,0.1695 0.186519,0.4097 -0.08388,0.4428 -0.780399,0.3913 -1.625519,0.705 -2.379743,1.1099 0.0099,0.3423 0.03407,0.7088 -0.124839,1.024 0.670094,0.1619 1.426084,0.283 1.979868,0.6808 0.752283,-0.6097 1.797532,-0.5409 2.709397,-0.5442 0.221701,0.027 0.422781,0.023 0.567627,-0.1639 1.039928,-0.7221 2.364424,-0.8614 3.598874,-0.8543 1.01275,0.049 2.148178,0.1899 2.904457,0.9343 0.217601,0.239 0.623868,0.1469 0.918738,0.2458 4.51399,0.7007 9.10994,0.7277 13.67767,0.6339 0.814,0.7221 1.97352,0.7319 2.98249,0.9987 0.0843,0.4664 -0.005,1.0516 0.0332,1.5566 0.0131,0.3062 0.037,0.616 0.13263,0.909 0.66483,-0.4964 0.73367,-1.5109 1.50587,-1.8901 2.89049,-0.3665 5.82305,-1.0224 8.74069,-0.5286 2.93305,0.3909 5.94328,0.3905 8.81675,1.182 -2.01423,1.521 -4.39412,2.5928 -6.91296,2.8869 -0.24386,-0.011 -0.30571,0.3118 -0.52471,0.4019 -0.79257,0.4962 -1.78704,0.3516 -2.66649,0.433 -0.37337,0.2474 -0.73403,0.6504 -1.23278,0.5559 -3.50655,-0.5662 -7.03539,0.558 -10.55084,0.074 -0.89808,-0.1258 -1.7518,-0.4983 -2.65868,-0.4993 -1.6663,-0.1284 -3.38375,0.1588 -5.04428,-0.1678 -1.27427,-0.4053 -2.38338,-1.1906 -3.50915,-1.8901 -1.61289,-1.109 -2.9655,-2.6555 -4.835559,-3.3492 -0.452441,-0.1542 -0.96485,-0.2218 -1.437599,-0.092 0.73953,1.4779 2.17288,2.4138 3.460378,3.3687 0.81039,0.583 1.6359,1.149 2.38755,1.8082 -0.0142,0.6479 -0.12728,1.2986 -0.01,1.937 0.74056,0.373 1.57596,0.7876 1.95255,1.5702 0.21041,0.4437 -0.10713,0.9317 -0.52081,1.1119 -0.55188,0.2817 -1.17739,0.3692 -1.78676,0.4311 1.19601,0.6584 2.61113,0.4302 3.90512,0.3413 1.26993,-0.1269 2.57046,-0.1774 3.81345,0.1678 0.88759,0.2317 1.80052,0.1734 2.69769,0.055 1.25736,-0.058 2.41529,0.9162 3.67885,0.5052 0.8008,-0.2671 1.54505,-0.9717 2.44801,-0.751 0.40034,0.085 0.65662,0.4637 1.05138,0.5852 1.38783,0.5909 2.96802,0.2681 4.40253,0.014 1.36313,-0.2626 2.74483,-0.5692 4.13528,-0.5423 0.26715,-0.442 -0.0958,-1.1156 0.34722,-1.4825 0.35875,-0.1756 0.79038,-0.033 1.17231,-0.096 1.31215,-0.072 2.82145,-0.2534 3.73542,-1.3147 0.24213,-0.3092 0.49325,-0.7211 0.513,-1.0923 -0.44615,-0.1422 -0.99344,0.3036 -1.39077,-0.058 -0.14326,-0.167 -0.20064,-0.4866 -0.0878,-0.6437 2.55374,-1.031 4.58286,-2.9732 6.48187,-4.9136 1.50154,-0.3307 3.02503,0.04 4.48641,0.3842 0.76356,0.1606 1.6279,0.2598 2.35633,0.053 -0.2352,-0.4005 0.41582,-0.7735 0.13069,-1.1801 0.005,-0.1318 0.36695,0.01 0.51691,-0.057 0.69532,-0.044 1.09484,-0.6755 1.51172,-1.145 -0.43192,-0.019 -1.06257,0.1612 -1.35177,-0.2809 -0.18652,-0.3362 0.0267,-0.7835 0.41158,-0.8387 0.40922,-0.1384 0.95338,0.034 1.26205,-0.3219 0.15399,-0.2305 -0.20068,-0.1714 -0.32771,-0.2106 -1.10918,-0.063 -2.25682,0.1576 -3.23606,0.6905 -0.45253,-0.1118 -0.38887,-0.6975 -0.68466,-0.9558 -0.1232,-0.048 -0.22295,0.1559 -0.37062,0.1521 -0.47077,0.097 -1.06195,0.016 -1.38104,-0.3745 -0.12733,-0.1976 -0.0498,-0.2978 0.19507,-0.2477 0.35181,-0.069 0.34707,-0.5522 0.32575,-0.8076 -0.57451,-0.251 -1.35327,0.035 -1.81796,-0.4701 -0.10656,-0.1321 -0.13318,-0.3154 -0.1346,-0.474 -0.37106,-0.042 -0.26585,0.4608 -0.43108,0.6691 -0.26134,0.3925 -0.96161,0.131 -0.91679,-0.3375 0.0155,-0.4014 0.57617,-0.5462 0.54812,-0.9421 -0.12488,-0.2812 -0.50989,-0.098 -0.75098,-0.076 -0.74407,0.1472 -0.93607,0.9522 -1.1216,1.5722 -0.12398,0.3191 -0.25135,0.7271 -0.53837,0.9051 -0.59657,0.023 -1.21626,-0.045 -1.79846,0.035 -2.65625,1.4564 -5.90632,1.5451 -8.75043,0.6105 -0.73357,-0.2344 -1.44579,-0.5327 -2.13007,-0.8855 -0.0603,-0.2048 0.15604,-0.6215 -0.17165,-0.6242 -1.11491,-0.3363 -2.33395,-0.167 -3.35895,0.394 -1.1527,0.6164 -2.35239,1.3188 -3.70226,1.3128 -0.63126,0.025 -1.30217,-0.063 -1.79066,-0.5033 -0.84606,-0.6677 -1.30329,-1.8768 -2.44216,-2.1223 -1.36153,-0.2739 -2.77339,-0.1612 -4.10799,0.2048 -0.33752,0.1258 -0.77172,0.233 -0.92653,0.5969 -0.69594,0.011 -1.48388,-0.01 -2.08716,0.3511 -0.0517,0.3543 -0.52693,0.3445 -0.7978,0.3999 -0.59439,0.064 -1.19421,0.054 -1.79066,0.029 -0.012,-0.3567 -0.63594,-0.1043 -0.59688,-0.4838 0.0152,-0.086 0.12943,-0.1739 -0.0293,-0.158 -1.14578,-0.159 -2.35268,0.012 -3.48769,-0.2926 -0.189141,-0.051 -0.389945,-0.235 -0.310148,-0.4466 -1.264708,-0.091 -2.514571,-0.2957 -3.782231,-0.1834 -0.86201,-0.9573 -2.151703,-1.4429 -3.401863,-1.5664 z m 73.703772,19.2643 c 0.15199,0.2277 0.18837,0.1162 0,0 z m -92.71636,1.9311 c -0.02802,-0.013 -0.06112,4e-4 -0.09168,0.07 0.214028,0.2479 0.175752,-0.031 0.09168,-0.07 z m 0.339406,0.4603 c -0.0233,0 -0.06868,0.019 -0.144346,0.098 0.08743,0.1847 0.214227,-0.083 0.144346,-0.098 z m 83.928874,7.3187 c 0.074,0.1201 0.0319,-0.01 0,0 z m -9.33368,8.0248 c -0.01,0 -0.0169,0.017 -0.0156,0.049 0.0937,0.024 0.0442,-0.059 0.0156,-0.049 z m -57.176253,1.9974 c -0.02715,0.01 -0.05988,0.037 -0.101432,0.1093 0.220913,0.1687 0.273727,0.1208 0.269184,-0.01 -0.0571,0.069 -0.08631,-0.1205 -0.167752,-0.1 z m 1.020168,0.9519 c -0.0098,-0.01 -0.04039,-6e-4 -0.103382,0.053 -0.01889,0.1797 0.132914,-0.025 0.103382,-0.053 z m 1.706783,1.0846 c -0.0337,0 -0.06277,0.034 -0.07217,0.117 0.30717,0.1214 0.173373,-0.1261 0.07217,-0.117 z m 0.540319,0.3608 c 0.006,-0.015 -0.01493,4e-4 -0.09363,0.072 -0.20171,0.2778 0.07493,-0.027 0.09363,-0.072 z m 0.323802,0.061 c -0.0151,0 -0.02265,0.027 -0.0098,0.1014 0.16919,0.1335 0.05465,-0.1014 0.0098,-0.1014 z m 5.309561,3.279 c -0.008,0.016 -0.0204,0.067 -0.0371,0.1716 0.0281,0.017 0.0455,-0.086 0.0468,-0.1424 6.4e-4,-0.028 -0.002,-0.046 -0.01,-0.029 z m 36.81579,0.074 c -0.0302,0.1058 0.14925,0.1521 0,0 z m -35.89706,0.2984 c -0.0236,-0.01 -0.0657,0.017 -0.13264,0.1015 l -0.002,0.01 c 0.0113,0.022 0.0223,0.03 0.0332,0.041 -0.0122,0.018 -0.0177,0.014 -0.0332,0.043 0.0364,0.026 0.0647,0.011 0.0858,-0.016 0.0642,-0.013 0.0995,-0.1653 0.0488,-0.1795 z m 0.79585,0.4701 -0.0215,0.035 c -0.16108,0.2377 0.36042,-0.096 0.0215,-0.035 z m 0.44669,0.059 c -0.0323,0 -0.059,0.034 -0.0605,0.1131 0.30736,0.1071 0.15729,-0.1241 0.0605,-0.1131 z m 49.85367,8.8616 c -0.005,-0.01 -0.0105,2e-4 -0.0175,0.023 0.0343,0.098 0.0323,-0.01 0.0175,-0.023 z"
       id="path8340"
       inkscape:connector-curvature="0" /></g></svg>