<?xml version="1.0" encoding="UTF-8" standalone="no"?>
<!-- Created with Inkscape (http://www.inkscape.org/) -->

<svg
   xmlns:dc="http://purl.org/dc/elements/1.1/"
   xmlns:cc="http://creativecommons.org/ns#"
   xmlns:rdf="http://www.w3.org/1999/02/22-rdf-syntax-ns#"
   xmlns:svg="http://www.w3.org/2000/svg"
   xmlns="http://www.w3.org/2000/svg"
   xmlns:sodipodi="http://sodipodi.sourceforge.net/DTD/sodipodi-0.dtd"
   xmlns:inkscape="http://www.inkscape.org/namespaces/inkscape"
   width="297mm"
   height="210mm"
   viewBox="0 0 1052.3622 744.09449"
   id="svg4697"
   version="1.1"
   inkscape:version="0.91 r13725"
   sodipodi:docname="title.svg">
  <defs
     id="defs4699" />
  <sodipodi:namedview
     id="base"
     pagecolor="#ffffff"
     bordercolor="#666666"
     borderopacity="1.0"
     inkscape:pageopacity="0.0"
     inkscape:pageshadow="2"
     inkscape:zoom="1.4"
     inkscape:cx="426.73289"
     inkscape:cy="216.55179"
     inkscape:document-units="px"
     inkscape:current-layer="layer1"
     showgrid="false"
     inkscape:window-width="1920"
     inkscape:window-height="1017"
     inkscape:window-x="-8"
     inkscape:window-y="-8"
     inkscape:window-maximized="1" />
  <metadata
     id="metadata4702">
    <rdf:RDF>
      <cc:Work
         rdf:about="">
        <dc:format>image/svg+xml</dc:format>
        <dc:type
           rdf:resource="http://purl.org/dc/dcmitype/StillImage" />
        <dc:title></dc:title>
      </cc:Work>
    </rdf:RDF>
  </metadata>
  <g
     inkscape:label="Ebene 1"
     inkscape:groupmode="layer"
     id="layer1"
     transform="translate(0,-308.29213)">
    <path
       style="fill:#800000;fill-opacity:1"
       inkscape:connector-curvature="0"
       d="m 290.34313,893.65298 c -12.50136,-0.34902 -24.51716,-3.21162 -35.12296,-9.19903 -25.03446,-14.13607 -42.08329,-34.24343 -47.9642,-61.89732 -0.61443,-2.88565 -0.67978,-5.88646 -0.86654,-8.8412 -0.0896,-1.42423 -0.49304,-2.32234 -2.09165,-2.73508 -4.7828,-1.23469 -6.62419,-4.77578 -7.22181,-8.99178 -0.59761,-4.216 -1.61543,-8.26194 -3.21964,-12.26183 -3.89385,-9.70919 -4.02084,-19.90554 -3.3672,-30.08063 0.20917,-3.26829 1.83954,-6.32223 4.65579,-8.55777 2.24293,-1.78206 4.49333,-2.19835 6.88938,-0.1984 1.58182,1.31971 3.26261,2.53492 5.06292,3.92194 1.13361,-2.00526 0.16622,-3.85285 0.14194,-5.64909 -0.27079,-20.13583 -1.22138,-40.26634 -0.64431,-60.41103 0.13634,-4.76337 0.48931,-9.52497 0.52292,-14.28835 0.071,-10.24417 5.80434,-17.36177 14.22884,-22.73627 12.52751,-7.99093 26.68725,-9.63127 41.35682,-8.59144 7.59158,0.53852 15.06737,1.7236 21.92874,5.11057 1.51832,0.74932 1.99641,-0.23205 2.66126,-1.03452 1.86568,-2.2568 3.87329,-4.36125 6.28243,-6.13445 2.81626,-2.07081 5.60823,-2.22315 8.64301,-0.47652 4.74917,2.73509 8.70837,6.30275 12.05501,10.44435 1.20083,1.48623 1.9852,1.80154 3.22899,0.2728 0.20356,-0.24978 0.46875,-0.45349 0.7078,-0.67668 5.49432,-5.09995 11.58439,-7.75178 19.66339,-6.09372 7.33386,1.50394 14.60049,2.90868 21.24709,6.35234 13.27639,6.88023 18.87529,18.38035 21.03604,31.82371 2.13834,13.30521 0.94872,26.62458 -0.437,39.90144 -1.14108,10.93857 -2.63324,21.84349 -3.99656,32.98755 4.00403,-0.64834 6.1349,1.70411 7.80823,4.51359 4.14407,6.95287 3.94985,14.37161 2.41659,21.91612 -0.90949,4.47463 -2.33816,8.80932 -3.88448,13.10858 -1.33344,3.70406 -2.49131,7.4276 -3.30743,11.28222 -1.00101,4.72441 -3.38773,8.6499 -9.04267,9.35846 -2.22985,0.27989 -1.90489,1.85823 -2.12152,3.00966 -2.05804,10.97223 -5.41403,21.56888 -9.87,31.87161 -5.47005,12.64793 -15.09911,22.00473 -26.33987,30.10365 -7.11349,5.12471 -14.57247,9.65966 -23.18933,12.20686 -1.45483,0.43046 -3.13375,0.75468 -4.60724,1.1285 -5.87344,0.10739 -8.76626,-0.30478 -13.24278,-0.45884 z M 268.80097,672.73982 c 6.2096,-2.07789 12.71427,-1.84229 19.49347,-1.99995 -3.59317,-2.00171 -7.49261,-2.63233 -12.35009,-1.8228 -2.79386,0.46588 -5.65494,1.0664 -7.17699,3.79972 l -0.0336,0.085 0.0673,-0.062 z m -10.63941,12.80742 c -1.95346,-0.23027 -3.3317,-0.062 -4.77345,0.33127 -13.79184,3.76074 -23.71971,15.44509 -24.80663,29.55451 -0.20729,2.69434 -1.11679,4.66062 -3.24953,6.55606 -8.00991,7.12645 -13.6499,15.55491 -14.73121,26.226 -0.437,4.31874 -0.99726,8.63572 -1.2027,12.96686 -0.37537,7.93069 -0.75448,15.86491 0.22972,23.79738 1.00099,8.08125 2.76583,16.10936 2.22798,24.3164 -0.47062,7.17429 0.75635,14.12182 3.03103,20.93297 10.77761,32.26668 40.3222,54.90195 75.68981,58.14898 10.32753,0.94772 19.97528,-0.48888 28.67992,-6.15221 1.56127,-1.01497 3.23458,-1.87588 4.77718,-2.91399 13.62375,-9.17065 24.86265,-20.14994 30.50825,-35.53135 3.70147,-10.08475 6.36459,-20.36966 8.4245,-30.87423 3.29248,-16.79492 8.206,-33.30995 9.52822,-50.43966 0.37351,-4.83601 2.01695,-9.6844 0.81612,-14.50978 -2.33443,-9.36908 -5.94067,-18.32011 -11.27252,-26.55371 -1.20083,-1.85469 -1.56313,-3.57829 -1.12426,-5.64554 0.91509,-4.3099 0.76569,-8.63396 -0.22224,-12.91904 -1.9273,-8.35582 -9.13604,-15.46103 -17.07872,-14.87645 -5.8174,0.42868 -10.14637,-1.36223 -15.03748,-3.48263 -7.8381,-3.39584 -16.39146,-4.61458 -24.9523,-5.40995 -5.09093,-0.47296 -10.17813,-1.30023 -15.26346,0.248 -10.9681,3.34269 -21.31058,7.91828 -30.77343,14.15549 -5.74271,3.78554 -11.21648,7.90943 -13.65924,14.56114 1.10372,-9.40096 6.68956,-16.29005 14.23444,-22.48652 z m -52.35668,81.7107 c 0,-1.53051 0.14193,-2.81834 -0.028,-4.06721 -0.41832,-3.08051 -1.22136,-6.03171 -4.35138,-7.75 -1.59861,-0.87685 -2.95632,-0.77056 -3.86582,0.98847 -0.71527,1.38171 -1.83766,2.50656 0.48556,3.80503 2.43342,1.36045 3.85649,3.61725 2.59029,6.47103 -4.1142,9.27519 -2.75837,17.85776 3.46244,25.87348 0.13072,0.16828 0.17928,0.39325 0.31561,0.55269 1.05143,1.23645 0.81051,2.03183 -0.55466,3.08051 -2.37738,1.82635 -1.62663,7.73229 0.9954,9.19194 1.36704,0.75995 2.256,0.74578 2.1458,-1.16914 -0.25024,-4.32406 -0.39778,-8.65342 -0.59948,-12.98102 -0.0187,-0.41629 0.008,-0.92292 -0.2241,-1.22584 -3.63424,-4.75805 -2.36057,-10.29731 -2.77705,-15.562 -0.0317,-0.40211 0.0653,-1.10536 0.29882,-1.19217 3.46056,-1.28782 1.6397,-4.12388 2.1066,-6.01577 z m 172.51839,16.51857 c 0.0168,-3.20628 -0.42021,-6.3364 -1.29795,-9.41338 -0.30254,-1.06462 -0.14006,-2.52604 -1.9105,-2.50656 -1.78537,0.0212 -1.60049,1.40474 -1.75736,2.53137 -1.56127,11.1972 -3.13935,22.39263 -4.67447,33.59337 -0.099,0.72452 -0.99914,1.73955 0.16434,2.17887 1.14668,0.43222 2.17009,-0.26041 2.83307,-1.20104 1.00288,-1.42068 1.46602,-3.04153 1.82273,-4.70668 0.26332,-1.23468 0.47061,-2.5296 1.03088,-3.64914 2.67806,-5.3391 3.35038,-11.05549 3.78926,-16.82681 z M 240.71867,651.42776 c 7.69803,-2.27097 14.53139,-1.89366 21.42637,-1.10007 6.74185,0.7759 13.28572,2.46938 20.77833,4.12035 -8.29005,-5.73057 -32.74184,-10.36817 -42.2047,-3.02028 z m 110.45607,6.55782 c -6.46732,-6.17519 -19.74931,-5.85811 -31.31876,1.10361 10.94382,-2.42155 20.9987,-5.13183 31.31876,-1.10361 z m -30.45595,-3.66508 c 9.9316,-3.348 19.96406,-5.61011 30.98447,-2.41623 -7.50568,-5.95023 -20.15457,-4.88737 -30.98447,2.41623 z m 62.16689,116.66452 c 0.0393,-3.74125 -0.71714,-6.67828 -2.6015,-9.23976 -0.89828,-1.22052 -2.35497,-2.15052 -3.97973,-1.86001 -1.74989,0.31354 -1.24005,1.984 -1.43241,3.14606 -0.16808,1.01149 -0.15875,2.04777 -0.24651,3.36925 4.96019,-2.4109 5.86782,1.70235 8.26015,4.58446 z M 288.66794,662.07935 c -3.86209,-4.77222 -9.12856,-6.27794 -13.56026,-4.2833 2.1757,0.67314 4.27108,1.31262 6.36087,1.97159 2.15515,0.68201 4.30657,1.38172 7.19939,2.31171 z m -10.76641,1.31087 c 3.48485,1.86886 6.76425,3.19742 10.55912,3.47377 -2.27467,-3.21161 -5.77073,-4.42857 -10.55912,-3.47377 z"
       id="XMLID_152_"
       inkscape:export-xdpi="100"
       inkscape:export-ydpi="100" />
    <polygon
       style="fill:#800000"
       points="61.295,18.81 61.314,18.824 61.278,18.858 "
       id="XMLID_118_"
       transform="matrix(1.8675468,0,0,1.7714287,164.2942,640.10873)"
       inkscape:export-xdpi="100"
       inkscape:export-ydpi="100" />
    <path
       style="fill:#800000"
       inkscape:connector-curvature="0"
       d="m 322.89447,838.24438 c -2.78078,-0.9761 -5.6736,-1.73781 -8.31991,-2.97063 -6.13677,-2.85736 -12.75535,-2.64833 -19.28056,-3.0894 -4.56429,-0.30823 -9.11176,-0.25505 -13.69099,0.13284 -3.40267,0.2888 -2.74903,1.60319 -1.43241,3.32323 3.01609,3.94315 7.41976,5.60477 12.26978,6.33285 2.64071,0.39683 5.32065,0.38788 8.01365,0.22322 6.77172,-0.41461 12.03634,4.93345 11.04093,11.51432 -5.08906,-3.44545 -10.59832,-5.4773 -16.77242,-5.3143 -6.11809,0.16121 -11.5041,2.17709 -16.14683,6.29041 -1.46416,-1.54835 -1.11865,-3.33921 -0.88147,-5.01847 0.15873,-1.12671 0.78063,-2.1877 1.09251,-3.30559 0.59575,-2.12748 2.84614,-4.28156 0.70032,-6.46389 -2.57907,-2.62353 -6.0359,-3.43842 -9.77287,-3.09477 -0.65737,0.0601 -1.24752,0.26221 -1.82272,0.68551 -0.49676,0.36679 -0.16808,1.87959 -1.41187,1.11251 -0.75262,-0.46229 -1.04769,-1.40298 -0.90575,-2.26913 0.3735,-2.29228 1.9217,-3.72365 4.03763,-4.71203 4.88176,-2.28166 10.0362,-4.17711 14.54446,-7.00072 3.74069,-2.34359 7.20499,-3.10708 11.36776,-1.85823 0.92443,0.27812 2.06364,0.34543 2.99181,0.11161 4.57735,-1.1585 7.62706,1.01327 10.76267,3.77315 4.40742,3.87945 9.16966,7.39573 13.77876,11.06606 -0.0542,0.17719 -0.10829,0.35439 -0.16248,0.53145 z"
       id="XMLID_117_"
       inkscape:export-xdpi="100"
       inkscape:export-ydpi="100" />
    <path
       style="fill:#800000"
       inkscape:connector-curvature="0"
       d="m 275.75385,790.05092 c -0.64057,2.80948 -1.13734,5.04325 -0.29133,7.37623 1.52018,4.19828 6.27122,6.12382 10.17999,3.69165 1.91424,-1.1904 3.05719,-1.10182 4.50453,0.44994 0.94498,1.01148 2.14208,1.86709 3.36345,2.57921 3.3952,1.97868 6.20773,1.7732 9.1211,-0.77234 2.43341,-2.12573 4.71368,-2.3684 7.40108,-0.37909 2.41661,1.78914 5.3057,0.83789 6.41877,-1.88303 1.19149,-2.91046 0.5173,-5.75714 -0.46876,-8.71898 3.97228,2.52252 10.58525,14.94201 11.15299,21.00915 -2.87042,-3.09114 -4.49518,-6.71903 -7.70176,-9.75703 -3.17483,6.04235 -9.72992,4.86789 -15.00387,6.40017 -2.62765,0.76349 -4.1142,1.44018 -3.52966,4.34887 0.32682,1.6297 0.0579,3.36571 0.0579,5.04679 -4.14221,0.10803 -4.19077,-2.88212 -4.44289,-5.39223 -0.19423,-1.92555 -0.71901,-2.77582 -2.92272,-2.73686 -2.09911,0.0372 -4.20571,-0.43931 -6.3123,-0.63772 -6.05832,-0.57216 -11.31546,-2.37724 -13.72087,-8.54891 -3.57449,3.48971 -6.17971,7.03435 -9.02211,10.52229 -0.45008,-5.16017 6.09006,-18.65314 11.21648,-22.59811 z"
       id="XMLID_116_"
       inkscape:export-xdpi="100"
       inkscape:export-ydpi="100" />
    <path
       style="fill:#800000"
       inkscape:connector-curvature="0"
       d="m 230.87297,744.53937 c 6.58123,-6.27795 14.23817,-8.93509 22.78033,-9.42755 9.69817,-0.55977 19.01163,1.37994 28.13273,4.33823 1.02155,0.33126 2.57162,0.42869 1.77417,1.89012 -1.9628,3.59955 -0.18303,6.96172 0.38471,10.41246 0.32496,1.96805 1.16909,3.85994 0.97487,6.27794 -14.09812,-18.40515 -32.69514,-20.32538 -54.04681,-13.4912 z"
       id="XMLID_115_"
       inkscape:export-xdpi="100"
       inkscape:export-ydpi="100" />
    <path
       style="fill:#800000"
       inkscape:connector-curvature="0"
       d="m 269.69739,757.65857 c -0.54345,2.47469 -1.08877,4.49234 -3.04036,5.87583 -5.00503,3.54639 -11.00359,1.27365 -12.56672,-4.76338 -0.17742,-0.68377 0.61629,-1.93262 -0.87774,-1.95388 -0.88522,-0.0128 -1.69761,0.57749 -2.18503,1.31795 -0.40713,0.61822 -0.58455,1.36753 -0.95992,2.00879 -0.73582,1.25771 -0.31188,3.37457 -2.55668,3.53223 -2.27654,0.15943 -8.28257,-2.83783 -8.76999,-4.15577 -0.37352,-1.00972 0.46128,-1.364 1.05329,-1.72714 9.11176,-5.57469 19.01723,-7.94308 29.6193,-5.31252 4.84628,1.2028 7.76338,5.09994 9.69257,9.49309 0.51917,1.17977 0.36976,2.13988 -0.69473,2.77937 -1.20458,0.72452 -2.08605,-0.0886 -2.87603,-0.8928 -1.87128,-1.91137 -3.10012,-4.3772 -5.83796,-6.20177 z"
       id="XMLID_114_"
       inkscape:export-xdpi="100"
       inkscape:export-ydpi="100" />
    <path
       style="fill:#800000"
       inkscape:connector-curvature="0"
       d="m 307.7356,756.45045 c 0,-5.14423 0.001,-10.28669 -10e-4,-15.43092 0,-0.7741 0.0597,-1.33211 1.15601,-1.5252 11.54704,-2.02473 23.11276,-3.91485 34.798,-1.13193 3.83407,0.91228 7.30398,2.64297 9.02772,6.74736 -17.94153,-6.64285 -33.44217,-5.01491 -44.414,12.27955 -0.18863,-0.31178 -0.37724,-0.62532 -0.56586,-0.93886 z"
       id="XMLID_106_"
       inkscape:export-xdpi="100"
       inkscape:export-ydpi="100" />
    <path
       style="fill:#800000"
       inkscape:connector-curvature="0"
       d="m 332.44137,752.85268 c 6.80908,0.54029 12.79643,3.69698 17.95273,8.51526 1.42493,1.33211 0.81425,2.10445 -0.63496,2.85377 -2.89657,1.49862 -5.39161,0.99023 -7.3955,-1.57657 -0.5976,-0.76349 -1.18028,-1.54115 -1.83205,-2.26211 -0.87774,-0.96897 -1.80219,-2.03891 -3.35226,-1.68109 -1.76855,0.40742 -0.91883,1.94857 -1.12238,2.94766 -0.63124,3.08936 -2.42781,4.81829 -5.49993,4.95291 -3.54834,0.15412 -5.78567,-1.37108 -6.62606,-4.52777 -0.22597,-0.85029 0.21663,-2.1204 -1.20457,-2.26388 -1.07757,-0.10803 -1.8526,0.65897 -2.43901,1.46142 -0.69659,0.95126 -1.25686,1.9964 -1.99828,2.914 -1.33342,1.65275 -2.86481,0.74577 -4.13661,-0.0102 -1.71441,-1.02036 0.0317,-1.77852 0.52478,-2.44103 4.1833,-5.6367 9.91667,-8.63396 17.7641,-8.88195 z"
       id="XMLID_105_"
       inkscape:export-xdpi="100"
       inkscape:export-ydpi="100" />
    <path
       style="fill:#800000"
       inkscape:connector-curvature="0"
       d="m 280.1762,869.88219 c 12.95518,4.58443 24.94857,3.70587 37.06708,-1.81401 -0.69286,2.45873 -2.50812,3.45785 -4.22252,4.44457 -5.53355,3.18144 -11.58067,5.28592 -17.62404,7.37978 -0.60323,0.20903 -1.42308,0.45884 -1.91984,0.23907 -5.1507,-2.27451 -10.27339,-4.61805 -13.30068,-10.24941 z"
       id="XMLID_104_"
       inkscape:export-xdpi="100"
       inkscape:export-ydpi="100" />
    <g
       transform="matrix(1.4163269,0,0,1.4163269,642.25167,-576.05194)"
       id="layer1-1"
       style="fill:#800000"
       inkscape:export-xdpi="100"
       inkscape:export-ydpi="100">
      <path
         inkscape:connector-curvature="0"
         id="path7"
         d="m 100.93738,855.60818 c -7.967614,0.11164 -16.926344,1.41925 -26.923717,4.41846 -1.999472,0 -14.569826,0.56905 -23.710281,11.99463 -3.998949,5.99841 -15.425631,21.13506 -22.566612,20.56379 -0.856917,0 -1.71272,0.57127 -1.71272,1.42819 l 0,0.85914 c 0,2.57076 1.427081,4.8581 3.140919,6.57194 1.999474,1.99947 4.859207,3.13869 7.715598,3.70997 1.428196,0.28563 2.567413,0.28449 3.709969,0.28449 -3.713311,4.57023 -9.421638,13.99631 -5.422688,28.56392 0.856915,2.8564 2.851935,11.14327 -0.290097,14.85658 -0.285639,0.28564 -0.284496,0.57239 -0.284496,1.14367 0,0.28564 0.284496,3.42544 3.140917,6.28184 -0.285638,5.1415 -0.28107,10.28413 0.290094,15.42563 0.285642,2.57075 0.855805,5.13927 1.712723,7.71003 0.571278,1.4282 0.854689,2.57187 1.997247,4.00006 0.856916,1.14255 2.285112,2.28289 4.284587,1.99725 0,0.85692 0.284495,1.71606 0.284495,2.28734 0.57128,2.28511 1.147014,4.85587 1.718294,7.14102 l 2.566296,6.85637 c 0.747975,1.7453 1.494522,3.2977 2.242726,4.9876 0.270784,0.1686 0.542456,0.3291 0.820098,0.5299 0.174812,0.1267 -0.405007,-0.1447 -0.608097,-0.2176 l 3.682059,5.0768 c 0.08283,0 0.166527,0.014 0.245363,0.016 -0.235366,-0.5089 -0.455052,-1.0211 -0.368217,-1.551 0.09569,-0.584 1.415115,1.5206 0.825669,1.5733 -0.132249,0.012 -0.310462,-0.02 -0.457452,-0.022 0.11226,0.2429 0.231654,0.4859 0.312404,0.7309 0.748803,0.8513 1.577529,1.6379 2.733653,2.2985 l 4.000091,4.8593 c 1.428197,1.7138 2.856394,3.7088 4.284588,5.4227 2.856394,3.4277 5.995054,6.8553 9.422725,9.9973 3.42767,3.142 6.857569,6.284 10.856518,8.5692 3.998948,2.285 8.570321,4.5725 13.997464,3.7155 0.28564,0 0.28336,0 0.56902,-0.2844 8.85482,-6.2842 17.424,-12.8538 25.70753,-19.9948 3.99895,-3.7132 7.99678,-7.4267 11.7101,-11.4256 1.18788,-1.3858 2.34284,-2.9588 3.4366,-4.6193 0.012,-0.6064 0.0256,-1.2128 0.0229,-1.8187 l 1.91913,-4.5077 c 0.0957,-0.159 0.43146,-0.6 0.29014,-0.4799 -0.21167,0.1797 -0.64542,0.9048 -0.50771,0.6639 0.49308,-0.8627 1.03741,-1.6967 1.55651,-2.544 l -0.3905,-0.837 c -0.37322,-0.9537 -0.63688,-1.6099 -0.75871,-2.17579 -0.43374,0.2944 -0.70853,0.79109 -0.70853,1.17719 0,2.2851 -0.85915,4.5713 -2.28734,6.8564 -1.4282,2.2852 -2.85527,4.2824 -4.56913,6.2819 -3.42766,3.9989 -7.4266,7.7134 -11.42555,11.1411 -7.99791,6.8553 -16.56931,13.4272 -25.13848,19.4257 -3.713316,0.2855 -7.997908,-1.4304 -11.425576,-3.7156 -3.713311,-2.285 -7.139866,-5.1425 -10.281898,-8.2847 -3.142032,-3.142 -6.281834,-6.5696 -9.138226,-9.9973 -1.428195,-1.7138 -2.856392,-3.4232 -4.284589,-5.4227 l -4.284587,-5.4282 -0.284496,-0.5748 c -1.142557,-1.1425 -2.288455,-3.1396 -3.431013,-4.8536 -1.142556,-1.9994 -2.283998,-3.9978 -3.140918,-5.9973 -0.856917,-1.99944 -2.000587,-4.28673 -2.571867,-6.57188 -0.856915,-1.99947 -1.425966,-4.28124 -1.997245,-6.56637 -0.856918,-4.57021 -1.427081,-9.14156 -1.71272,-13.99742 -0.285641,-4.57024 -1.428199,-30.56339 -1.428199,-38.56129 0,-0.57128 -0.571276,-1.14368 -1.428194,-1.14368 -0.57128,0 -1.14367,0.5724 -1.14367,1.14368 l 0,7.42549 c -3.713312,-5.71277 -5.143736,-10.28523 -3.71554,-13.71291 1.713836,-3.99893 6.287404,-5.13816 6.287404,-5.13816 0.285642,0 0.569052,-0.28785 0.569052,-0.85914 0,-0.28564 -0.287868,-0.56905 -0.859146,-0.56905 -0.285638,0 -5.427144,1.14144 -7.14098,5.9973 -1.713835,3.99896 0.0058,9.42499 4.574684,15.99469 l 0.284496,0.28449 c 0,1.71384 -0.0011,3.14539 0.284497,4.85922 -2.285113,-1.71383 -4.571341,-5.42604 -5.42826,-7.42551 -0.285638,-4.28458 -1.428195,-7.99902 -1.428195,-8.28465 -0.285638,-0.57127 -0.283354,-1.43154 -0.56905,-2.00282 -0.285639,-4.57022 0.571277,-7.99678 2.856392,-10.2819 3.42767,-3.71331 8.569176,-3.14091 8.569176,-3.14091 0.285639,0 0.569051,-0.28336 0.569051,-0.56905 0,-0.28564 -0.283355,-0.57461 -0.569051,-0.57461 -0.285638,0 -5.999537,-0.85359 -9.712847,3.431 -1.142558,1.42819 -2.286228,3.13758 -2.571867,5.4227 0,-1.99948 -0.0011,-3.70998 0.284498,-5.13817 l 0.290094,-0.28451 c 1.999474,-3.42766 4.566886,-6.85978 7.994555,-8.85926 1.713834,-0.85692 3.4299,-1.42819 5.143733,-1.42819 1.713838,0 3.714425,0.57127 5.428261,1.42819 l -0.290097,0 c 2.285113,1.4282 4.572456,1.14589 6.57193,0.57462 1.999474,-0.57128 3.711081,-1.99836 4.853639,-3.14091 2.570754,-2.57076 4.573568,-5.71614 6.287404,-9.1438 0,-0.28565 0.282212,-0.56794 0.853576,-0.85359 0.285638,-0.28564 0.858031,-0.29009 1.14367,-0.29009 1.142558,0 2.288457,0.5724 3.431013,1.14368 2.570752,1.14255 5.138165,1.71717 7.994555,2.00281 2.570755,0.28564 5.428259,0.57127 8.284654,0 2.856394,-0.28564 5.424917,-1.4282 7.710027,-2.8564 1.71384,-1.14255 3.14649,-2.57186 4.57469,-4.00006 0.28563,0.28565 0.28335,0.56906 0.56905,0.56906 4.28459,2.57075 8.56806,4.57357 13.1383,6.2874 4.57021,1.71384 9.14043,3.1398 14.28195,3.42545 2.57075,0.28563 5.14038,0.002 7.4255,-0.56906 1.14257,-0.28564 2.5741,-0.85691 3.43101,-1.42819 0.57129,-0.28564 1.14144,-0.5724 1.71272,-1.14368 0.28565,-0.28563 0.85693,-0.5735 1.4282,-0.85913 3.99895,-1.99948 8.85483,-2.85528 12.85377,-0.28451 l 0.28449,0 c 1.14257,3.71332 2.0017,8.57029 2.28735,13.99744 -8.85482,-7.42662 -24.56609,-8.00012 -25.423,-8.00012 -0.28565,0 -0.56905,0.28897 -0.56905,0.57462 0,0.28563 0.28334,0.56904 0.56905,0.56904 0.28562,0 17.13945,0.5724 25.423,8.28466 l 0,2.57187 c -8.56918,-7.99791 -22.85449,-7.7145 -23.42576,-8.00013 -0.28564,0 -0.56904,0.28335 -0.56904,0.56905 0,0.28563 0.28334,0.57461 0.56904,0.57461 1.14255,0 15.42898,0.28676 23.14123,8.28466 l 0,1.99724 0,0.2845 c -10.28301,-7.14098 -21.99756,-6.56636 -21.99756,-6.56636 -0.28565,0 -0.56906,0.28336 -0.56906,0.56905 0,0.28565 0.28337,0.56906 0.56906,0.56906 0,0 13.42727,-0.8547 23.71029,8.00012 0.57128,1.14255 1.42931,3.14203 1.14366,5.71279 -7.9979,-7.99791 -18.85442,-9.42721 -22.28209,-9.71285 -0.28564,0 -0.5735,-0.2845 -0.85914,-0.2845 -0.85692,0 -1.42819,0.8558 -1.42819,1.71271 0.28564,4.85588 2.28957,27.99599 6.00288,33.42313 0,2.28512 0.57128,13.70847 -1.4282,23.42019 -0.85693,2.8564 -3.71777,10.85541 -4.57468,12.56926 -0.28565,0.85694 0.002,1.71162 0.57462,1.9972 0.28563,0 0.56905,0.28449 0.56905,0.28449 0.57127,0 1.14255,-0.28223 1.42819,-0.85349 0.85692,-1.71388 3.14203,-8.56811 4.28458,-11.71014 1.14257,0.57128 2.28846,0.56906 3.43103,0.56906 4.28458,0 7.71113,-2.85864 8.85368,-5.14375 3.99896,-4.85586 5.42827,-15.99467 5.42827,-17.42288 2.8564,-8.28354 2.28289,-13.9952 1.99725,-15.99467 1.71383,-0.85692 2.28623,-1.99837 2.57186,-3.14092 0.85692,-3.14204 -1.42931,-7.14098 -2.57186,-8.56919 0.85691,-5.1415 -1.42932,-8.56917 -2.57187,-9.99736 1.4282,-26.85008 -10.56977,-37.42207 -12.56925,-39.13592 -1.14255,-2.2851 -9.42163,-15.13553 -26.84561,-22.27651 -0.28565,-0.28564 -0.28899,-0.28449 -0.57462,-0.28449 l -0.56906,0 c -7.06957,-2.73143 -15.67542,-4.56221 -25.91953,-4.41847 z M 57.282576,1012.8269 c -0.02571,-0.031 -0.05712,-0.059 -0.08369,-0.089 l 0.105973,0.145 c -0.0058,-0.02 -0.01713,-0.037 -0.02286,-0.056 z m -0.08369,-0.089 -0.474188,-0.6584 c -0.04142,0 -0.08055,0 -0.122826,0 0.18081,0.2373 0.403495,0.4397 0.596928,0.6639 z M 102.88442,859.36847 c 4.85867,0.006 9.33015,0.47756 13.4005,1.22736 -1.14255,0.28565 -2.28288,0.5724 -3.42543,1.14368 -4.85587,1.99948 -8.85259,5.42491 -11.99463,9.13823 -5.712776,7.99789 -13.429496,13.71402 -21.713031,19.14116 -8.283538,5.14151 -17.133897,9.42609 -26.845631,11.42557 l -0.859143,0 c 7.426617,-3.14203 14.280844,-7.42884 20.279267,-12.28471 4.570228,-3.42768 8.57029,-7.42662 12.56924,-11.42557 3.998949,-3.99895 7.713372,-8.28354 11.141044,-12.85377 0.285635,-0.28563 0.286749,-0.85803 -0.284501,-1.14366 -0.285636,-0.28565 -0.858031,-0.28676 -1.143666,0.28449 -3.142032,4.57023 -6.857572,8.85482 -10.856518,12.85376 -3.998951,3.99896 -7.994558,7.9979 -12.279145,11.42556 -7.14098,5.71279 -15.141106,10.57088 -23.710283,13.71292 l -3.425441,0 c 2.570752,-1.14256 4.85141,-2.28734 6.850885,-3.71554 3.998949,-2.57075 7.712257,-5.71055 11.425567,-9.13822 7.14098,-6.85534 13.428386,-13.9941 19.141169,-21.99199 0.285639,-0.28564 0.285639,-0.57351 0,-0.85916 -0.285639,-0.28563 -0.573506,-0.28563 -0.859145,0 -5.712785,7.71227 -11.995734,15.13666 -18.851075,21.99199 -3.427669,3.42769 -7.142093,6.57305 -11.141043,9.14381 -2.570751,1.71383 -5.712783,3.42655 -8.569174,4.56911 -1.142558,-0.28563 -1.998362,-0.28787 -3.140919,-0.85914 -1.999475,-0.57128 -3.714424,-1.71384 -5.428259,-2.8564 -0.856916,-0.57128 -1.714947,-1.14033 -2.571867,-1.99724 9.997374,-1.99947 21.422943,-19.42235 22.851138,-21.70747 8.854814,-10.85429 21.422938,-10.57199 21.422938,-10.57199 l 0.574623,0 c 10.175897,-3.39196 19.344797,-4.66395 27.44256,-4.65281 z m 16.97099,3.11862 c 2.0709,-0.10712 4.14289,0.10938 6.14236,0.68062 19.13784,7.14097 27.13462,21.70634 27.42025,21.99199 0,0.28563 0.28899,0.28898 0.57463,0.57461 0,0 5.42602,3.99561 8.85369,13.70734 -1.71383,-0.85691 -3.99783,-1.42819 -5.9973,-1.42819 -2.57075,0 -4.85586,0.57016 -7.14099,1.71272 l -1.71272,0.85915 c -0.57127,0.28564 -0.85691,0.57349 -1.42819,0.85914 -0.85692,0.57128 -2.00393,0.85246 -3.14649,1.1381 -2.28511,0.57129 -4.56688,0.57573 -6.56636,0.29009 -4.57022,-0.57127 -8.85371,-2.00058 -13.13829,-4.00006 -3.99894,-1.71384 -7.71337,-3.71219 -11.14103,-5.9973 2.85638,-0.85693 5.71276,-2.00282 8.56917,-3.43101 1.99948,-0.85693 3.71441,-1.99725 5.42826,-3.42546 1.71383,-1.42819 3.13868,-3.14313 3.70996,-5.42825 0.28564,-0.57129 0.002,-0.85804 -0.56905,-1.14367 -0.57128,-0.28565 -0.85803,0.002 -1.14367,0.57462 -1.4282,3.42767 -4.85697,5.9962 -8.28465,7.71003 -3.42767,1.71383 -7.42662,2.85861 -11.42556,3.71554 -0.28565,0 -0.56795,0.2845 -0.85358,0.2845 l -0.2901,0 c -0.85693,1.99947 -3.13869,3.71107 -5.13817,4.85362 -1.99947,1.14258 -4.285694,2.00171 -6.856453,2.28736 -2.570749,0.28563 -4.854748,0.28675 -7.425503,-0.2845 -2.285113,-0.28564 -4.855865,-1.14591 -7.140981,-2.00281 -1.428194,-0.85693 -2.859733,-1.4282 -4.859207,-1.4282 -0.856917,0 -1.999475,0.28786 -2.856393,0.85914 -0.856917,0.57128 -1.425968,1.4293 -1.997245,2.57187 l 0,-0.29011 c -1.428197,3.14204 -3.427671,5.99955 -5.712785,8.28467 -1.142557,1.14256 -2.572981,2.00058 -3.715538,2.57186 -1.142556,0.57128 -2.85305,0.28675 -3.709968,-0.2845 l -0.284496,0 c -1.999474,-1.14255 -4.286814,-1.71272 -6.571928,-1.71272 -2.285115,0 -4.572455,0.85469 -6.57193,1.99725 -1.999475,1.14256 -3.426557,2.85528 -4.569113,4.56911 -0.385243,0.51366 -0.623094,0.87963 -0.803362,1.18831 2.319933,-5.74742 5.971002,-8.92782 6.516145,-9.47296 2.285113,-0.57128 4.85698,-1.14033 6.856454,-1.99724 9.140456,-3.71331 18.282024,-7.42885 26.8512,-12.28471 4.284588,-2.57076 8.565834,-5.13706 12.279144,-8.27908 1.999475,-1.71385 3.714422,-3.42991 5.428255,-5.14374 1.713843,-1.71383 3.145374,-3.71331 4.859214,-5.71279 3.14203,-3.71331 6.85533,-6.57082 11.42557,-8.28465 1.99948,-0.71409 4.0659,-1.14255 6.13679,-1.24967 z m -54.985543,53.88092 c -1.428197,0 -2.856392,0.21536 -4.284587,0.78662 -1.056638,0.42265 -1.99619,1.0375 -2.867561,1.72946 0.783509,-0.60559 1.626715,-1.12616 2.583035,-1.44494 2.570752,-1.14255 5.429372,-0.8558 8.000126,-0.2845 2.570752,0.57129 5.424917,1.13922 7.710031,2.28177 0.285639,1.42821 0.573506,2.57186 0.859145,4.00007 0.285638,0.85692 0.284496,1.42596 0.284496,1.99725 l 0,0.29008 c -0.856918,-0.57126 -1.714949,-0.85803 -2.571868,-1.14365 -1.428194,-0.57128 -2.85639,-0.85803 -4.284587,-1.14368 -1.428194,-0.28563 -2.855277,-0.56905 -4.569113,-0.56905 -1.428195,0 -3.139803,-0.002 -4.853639,0.56905 l 0.284497,0 c -1.428195,0.28565 -2.284,1.14033 -3.140915,1.99725 -0.856919,0.85691 -1.716066,1.71383 -2.287342,2.85639 -0.856919,1.71383 -1.711608,3.71443 -1.997246,5.42826 -0.285641,-0.28564 -0.574621,-0.56794 -0.574621,-0.85358 -0.285639,-0.57127 -0.569051,-1.43154 -0.569051,-2.00282 0,-2.57074 0.854691,-5.4238 1.997248,-7.99455 0.558965,-1.25767 1.329306,-2.37421 2.265031,-3.29154 -1.092399,1.04493 -1.970196,2.27253 -2.549557,3.57606 -1.428197,2.57076 -1.997247,5.42714 -1.997247,8.56917 0,0.85693 0.283354,1.99948 0.56905,2.8564 0.285641,0.28564 0.573506,0.85804 0.859147,1.14367 0.285638,0.28565 0.856916,0.56793 1.428195,0.85358 0.28564,0 0.853575,0.002 0.853575,-0.56905 0,-1.99948 0.860259,-4.28347 2.002818,-5.9973 0.571276,-0.85693 1.140327,-1.71608 1.997245,-2.28736 0.856918,-0.57127 1.714949,-1.14255 2.571868,-1.42819 1.142555,-0.28564 2.281771,-0.28564 3.709965,0 1.428198,0.28564 2.571868,0.57352 4.000063,0.85914 l 4.000065,1.13811 c 0.571277,0.28563 1.425966,0.28897 1.997246,0.57462 l 0.57462,0.56905 c 0.285639,0.28564 0.85803,0.5735 1.143671,0.85914 0.856918,0.57128 1.425969,1.14033 1.997246,1.99725 0.66234,0.99348 1.116508,2.09494 1.450505,3.28039 -2.171629,-1.11821 -4.100522,-2.47866 -6.019618,-3.84945 -0.571279,-0.28562 -0.856918,-0.85802 -1.428196,-1.14366 -0.571278,-0.57128 -1.141442,-0.85803 -1.712722,-1.14367 -1.142557,-0.57128 -2.287343,-1.14367 -3.715537,-1.14367 -2.570752,-0.28565 -5.42603,0.57462 -7.425506,2.00281 -1.142556,0.85692 -2.000588,1.71384 -2.571867,2.8564 -1.428195,1.71383 -1.999473,3.14092 -1.428195,4.56911 0,0.28564 0.283354,0.28449 0.56905,0.28449 l 0,0.85915 c -1.142556,0 -2.56741,0.001 -3.709966,-0.2845 -0.57128,-0.28564 -1.141442,-0.28898 -1.712722,-0.57461 -0.571278,-0.28565 -0.856918,-0.5724 -1.428196,-1.14368 0,-0.28564 -0.28898,-0.28564 -0.574621,0 0,0 -0.285639,0.2901 0,0.2901 -0.285639,0.57127 0.286754,1.42708 1.143672,1.71273 0.571278,0.57126 1.430425,0.85356 2.287342,0.85356 1.428195,0.28565 3.140915,10e-4 4.569113,-0.28449 0.285638,0 0.284496,-0.28335 0.284496,-0.56905 -0.285641,-0.85693 0.571278,-2.00058 1.428196,-2.57187 3.71331,0.28564 7.427732,1.14144 11.141043,0.2845 0.856918,-0.85692 1.14367,-1.42486 1.14367,-2.28178 l 0,-0.29009 c 1.142555,0.85692 1.998361,1.43153 3.140917,2.00282 l -0.859144,0 c 1.142556,0 2.283998,0.28222 3.140914,0.85357 l 0.290097,0 0.56905,0 0,-0.2845 c -1.713836,-1.71383 -3.429899,-2.28288 -5.143734,-3.42544 0,0 -0.284496,-0.28898 -0.284496,-0.57462 -1.999474,-1.71383 -5.139278,-1.99501 -7.710031,-1.13811 l -0.859146,0.2845 c -0.856917,0.57128 -1.714948,0.85693 -2.571867,1.42821 -0.571277,0.57127 -1.425967,1.13921 -1.997245,2.28176 -0.560111,0.27994 -0.850919,0.83056 -1.400289,1.12137 0.145675,-2.15514 1.761709,-4.02532 3.397534,-5.11586 1.999475,-1.42818 4.286817,-2.28845 6.571931,-2.00281 1.142557,0 2.282886,0.5735 3.425443,0.85914 0.571278,0.28564 1.142556,0.56795 1.428195,0.85358 0.571279,0.28564 0.856919,0.85804 1.428196,1.14367 1.999476,1.4282 4.286815,2.57298 6.57193,3.71554 l 0.139392,0 c 0.182524,0.73039 0.329513,1.48132 0.429573,2.28178 0.571278,4.28458 0.0022,8.85815 -0.56905,13.42839 0,0.28562 -0.0011,0.28334 0.284497,0.56903 0.285639,0 0.28901,10e-4 0.574648,-0.28449 1.142556,-4.57023 1.998361,-9.14268 1.712722,-13.71291 0,-2.28512 -0.570166,-4.56577 -1.712722,-6.8509 0.285639,0 0.283354,-0.29008 0.569051,-0.29008 l 1.428197,-1.4282 c 0.856917,-1.14256 1.425938,-1.99836 1.997217,-3.14091 0,-0.28565 0.0011,-0.28336 -0.284496,-0.56905 l -0.569022,0 c -0.856919,0.85692 -1.430453,1.99947 -2.287372,2.85639 -0.285638,0.57127 -0.858031,0.85802 -1.14367,1.14367 -0.571278,-0.85692 -0.567907,-0.85915 -0.853546,-0.85915 l -0.284497,-0.28449 c 0.571278,-0.57128 0.852432,-1.14145 1.138072,-1.71273 l 0.859145,-2.57186 c 0.285639,-1.71384 0.569051,-3.42991 0.569051,-5.14374 0,-0.28563 -0.284497,-0.2845 -0.284497,-0.2845 0,0 -0.284496,-10e-4 -0.284496,0.2845 0,1.71383 -0.283354,3.4299 -0.56905,5.14374 -0.285639,1.42819 -0.861374,2.56742 -1.718293,3.70997 -0.285638,-0.28565 -0.567936,-0.56683 -0.853575,-1.13811 0.285639,-0.57127 0.284496,-1.14702 0.284496,-1.71829 0,-0.85691 -0.283354,-1.42484 -0.56905,-2.28177 -0.571277,-1.4282 -1.145899,-2.57298 -2.002817,-3.71554 -2.570752,-1.4282 -5.428257,-2.00059 -8.284651,-2.57187 -1.428195,-0.28563 -2.856392,-0.49652 -4.284588,-0.49652 z m 9.712846,19.6377 -0.56905,0 c -0.571278,0 -1.14144,-10e-4 -1.71272,0.28449 -0.28564,0 -0.572393,0.2845 -1.143671,0.2845 0.571278,0 1.141442,-0.2845 1.71272,-0.2845 0.57128,0 1.141444,-0.28449 1.712721,-0.28449 z m 39.085727,-17.8636 c -0.8257,0.0257 -1.66476,0.0791 -2.52168,0.15053 -3.14203,0.28564 -6.28629,0.86137 -9.42832,1.71829 0,0 -0.28449,-10e-4 -0.28449,0.2845 -1.14257,1.14256 -1.999482,2.28622 -2.856398,4.00006 -0.285636,0.57129 -0.570167,1.42375 -0.284501,2.5663 -0.856916,-0.57128 -1.430416,-1.14144 -2.287342,-1.71273 -1.142552,-1.14255 -2.570749,-2.57074 -2.856384,-4.28457 0,-0.28565 -0.283357,-0.2845 -0.569055,-0.2845 0,-0.28565 -0.284497,-0.28565 -0.284497,0 0.285638,1.99947 1.423739,3.71552 2.5663,5.14373 1.142552,1.42819 2.856385,2.85301 4.284582,3.70993 0.571281,0.28565 1.142565,0.28679 1.428195,-0.28449 l 0.57463,0 c 2.28511,-1.14255 4.57134,-2.00058 6.85645,-2.57186 2.28511,-0.5713 7.4255,-1.14368 7.4255,-1.14368 1.4282,0 2.56743,0.28902 3.70998,0.57465 1.14255,0.28564 2.57298,0.85692 3.71554,1.4282 2.2851,0.85691 4.28347,2.57075 5.9973,4.28458 0.57128,0.57128 1.1459,0.85803 2.00282,1.14368 0.28563,0.28563 0.85246,0.28449 1.1381,0.28449 0.57129,0 1.14256,-0.002 1.42819,-0.57464 0.28565,-0.28565 0.28565,-0.56791 0,-0.85356 l -1.42819,-4.00006 c -0.28564,-0.57128 -0.85247,-1.42597 -1.1381,-1.99724 -0.28565,-0.57128 -1.14702,-1.43155 -1.71829,-2.00282 -2.28511,-2.28511 -5.13705,-3.99672 -8.27908,-4.85364 -2.35653,-0.64269 -4.71417,-0.80558 -7.19117,-0.72523 z m -0.17309,1.14367 c 2.34313,-0.0803 4.64721,0.0825 6.7895,0.72523 2.85639,0.85693 5.71501,2.28513 8.00012,4.2846 1.14255,1.14256 1.71495,2.28177 2.57188,3.70995 0.57128,1.14258 1.14255,2.573 1.42818,3.71555 -0.28563,0 -0.5735,0.001 -0.85914,-0.2845 l -1.71272,-0.85914 c -1.99948,-1.99947 -4.00117,-3.42655 -6.57193,-4.56912 -1.14255,-0.57128 -2.56741,-1.14256 -3.70997,-1.42818 -1.4282,-0.28565 -2.57186,-0.57463 -4.00006,-0.57463 -2.85639,0 -5.14484,0.002 -7.7156,0.57463 l -6.85089,1.71271 -0.57462,-0.56906 c 0.28564,0 0.2845,-0.57238 0.2845,-1.14365 0.28564,-1.14256 1.14701,-2.28846 1.71829,-3.43102 2.8564,-0.85692 5.99731,-1.71273 8.85371,-1.71273 0.7855,-0.0715 1.56766,-0.12396 2.34872,-0.15053 z m 33.07165,4.15068 c 3.99894,0.57128 13.99187,2.28622 21.13284,9.71284 0,0 0.006,0.56795 0.29009,0.85358 0.85692,1.14256 2.85306,4.57246 2.28178,6.57194 0,0.28563 -0.28335,0.5735 -0.56906,0.85913 -1.99947,-1.71383 -6.57081,-5.14372 -11.14103,-2.28733 0,0 -2.28289,0.85692 -4.85365,-2.85639 -0.57127,-0.85692 -3.4299,-5.42716 -6.57192,-5.71279 -0.28565,-2.57075 -0.56905,-4.85587 -0.56905,-7.14098 z m -31.50397,4.6528 c -2.70467,0.0257 -5.48966,0.77434 -7.63194,2.48818 -2.57076,2.28511 -5.42715,4.28569 -8.569189,5.42827 0,0 -0.285636,0.28449 0,0.28449 0,0 0.284501,0.28564 0.284501,0 3.427668,-1.14257 6.287408,-2.85862 9.143798,-5.14374 1.14255,-1.14256 2.85528,-1.7116 4.56911,-1.99724 1.71385,-0.28565 3.4299,-0.28565 5.14374,0 1.71383,0.28564 3.14092,0.85468 4.56911,1.99724 1.4282,0.85692 2.56852,2.28734 3.42544,3.71555 l 1.71273,2.57186 c 0.28562,0.28563 0.85691,0.85802 1.42819,1.14367 0.57129,0.28563 1.43154,-0.006 2.00282,-0.29009 0.85691,-0.85693 1.99948,-1.42598 2.85638,-1.99725 1.14257,-0.57128 1.99837,-1.14257 3.14093,-1.42819 0.28563,0 0.28449,-0.28337 0.28449,-0.56905 -0.85691,-0.28565 -0.85803,-0.29011 -1.14368,-0.29011 -1.42818,0.28564 -2.56851,0.85692 -3.42543,1.42819 -1.14256,0.57128 -1.99836,1.43155 -3.14092,2.00283 -0.28564,0.28563 -0.5735,0.28563 -0.85914,0 l -0.85358,-0.85915 c -0.57128,-0.57127 -1.14256,-1.42486 -1.4282,-2.28176 -0.85691,-1.71384 -2.28734,-3.14316 -3.71553,-4.00008 -1.42819,-1.14256 -3.4299,-1.71717 -5.14373,-2.00281 -0.85693,-0.14283 -1.74843,-0.20967 -2.64997,-0.20081 z m -0.35707,2.42683 c -1.14142,0.035 -2.45137,0.27792 -3.84386,0.9205 -1.14256,0.57127 -2.8564,1.42486 -4.2846,2.28176 0,0 -2.00169,1.43155 -3.71553,2.00282 -0.28564,0 -0.2845,0.28449 -0.2845,0.28449 0,0.57129 0.56905,0.28451 0.56905,0.28451 3.14204,-0.85692 5.99732,-1.42931 7.42551,-1.14367 l 0.85914,0 c 1.4282,0 3.99895,0.001 7.14098,-0.28449 1.42819,0 2.8564,-0.28337 4.2846,-0.56905 1.42818,0.8569 2.85638,3.13979 2.85638,3.42543 -0.28565,2.28512 -1.42596,4.2857 -3.42544,5.42825 -1.99947,1.14257 -4.28681,1.42709 -6.57193,1.71273 l -3.71554,0 c -1.14255,0 -2.28288,-0.57239 -3.42544,-1.14368 -2.28511,-1.14255 -4.00006,-2.56851 -5.42826,-4.85362 0,-0.28565 -0.28335,-0.28565 -0.56905,0 -0.28563,0 -0.28563,0.28335 0,0.56905 1.4282,2.28511 3.14315,4.00006 5.42826,5.42825 1.14255,0.57128 2.28177,1.14255 3.70997,1.4282 1.14256,0.28563 2.57298,0.28335 3.71553,0.56905 2.57076,0.28563 5.42493,10e-4 7.71004,-1.71272 1.71383,-1.14256 3.14091,-3.14314 3.14091,-5.42827 0.28565,0.28565 0.5724,0.85804 1.14368,1.14368 0.57128,0.28564 1.1459,0.57462 2.00281,0.57462 0.57128,0 1.14145,-0.28898 1.71273,-0.57462 0.8569,-0.57128 1.71494,-0.85357 2.57186,-0.85357 0.85692,0 1.99948,-0.28564 2.8564,0 0.28563,0 0.28334,-0.006 0.56904,-0.29011 0.28564,-0.28563 0.28564,-0.56905 0,-0.56905 -1.99947,-0.28564 -4.28236,-0.002 -6.28183,0.56905 -0.28565,0 -0.85803,0.29011 -1.14367,0.29011 -0.28563,0 -0.85803,-0.006 -1.14368,-0.29011 -0.85691,-0.28563 -1.42596,-1.14031 -1.99723,-1.99724 0,0 -1.7183,-2.85862 -3.14649,-3.71554 -0.28565,-0.28564 -1.99725,-1.71384 -4.85365,-2.85639 -0.53556,-0.17852 -1.96376,-0.68899 -3.86615,-0.63041 z m 0.12283,1.13806 c 0.44184,0.0668 0.6025,0.49208 0.6025,0.92053 0,0.57129 -0.57239,0.85915 -1.14367,0.85915 -0.57127,0 -1.14366,-0.57351 -1.14366,-0.85915 0,-0.57127 0.57239,-0.85357 1.14366,-0.85357 0.21423,-0.0715 0.39387,-0.0891 0.54117,-0.0668 z m 4.02794,0.35148 c 1.4282,0.57129 2.85974,1.42597 3.43102,1.99725 -1.14255,0.28564 -2.28845,0.2901 -3.43102,0.2901 0.28564,-0.28565 0.28451,-0.85803 0.28451,-1.14368 0,-0.28562 0.001,-0.85803 -0.28451,-1.14367 z m -50.555908,0.28451 c 0.285639,0 0.858031,-10e-4 1.143672,0.2845 0.285639,0.28563 0.284496,0.5735 0.284496,0.85913 0,0.57129 -0.572393,0.85915 -1.143671,0.85915 -0.571277,-0.28564 -0.859145,-0.57239 -0.859145,-1.14366 0,-0.28565 0.288981,-0.85915 0.574619,-0.85915 z m 42.271268,0.2845 0,0.85913 c -0.28564,0.28565 0.006,0.85693 0.29009,1.4282 l -0.29009,0 -1.1381,0 c -0.85693,0 -2.28846,-0.001 -3.43101,0.2845 0.57127,-0.28565 0.85914,-0.56905 0.85914,-0.56905 1.14255,-0.85692 2.5674,-1.43154 3.70997,-2.00282 z m -46.555855,0.57462 c -0.28564,0.28563 -0.284496,0.85802 -0.284496,1.14366 0,0.85692 0.281067,1.7105 1.1381,2.28178 -1.713836,-0.28565 -3.140918,-0.56906 -4.569113,-0.56906 0.285639,-0.57128 0.856918,-1.14255 1.428195,-1.42819 0.856918,-0.57128 1.430425,-1.14256 2.287342,-1.42819 z m 83.404425,0.28449 c 1.14255,0.57127 2.85861,2.85639 3.71553,4.28458 4.28459,6.28407 8.85259,4.00006 9.13824,4.00006 2.85638,-1.71383 5.99731,0.56906 7.42549,1.99726 l 0,0.85914 c 0,0 1.42931,5.99508 -1.7127,15.13553 l 0,0.29011 c 0,0 -1.42598,11.42334 -4.85365,16.2792 -0.28564,0.28564 -3.71665,5.42604 -9.1438,3.14091 1.71384,-11.13993 1.14368,-22.8489 1.14368,-23.42018 0,-0.28564 -0.28451,-0.57351 -0.28451,-0.85915 -2.57075,-1.99948 -4.28569,-11.99573 -5.42826,-21.70746 z m -96.542714,6.85645 c -0.285638,0.85692 0.281069,1.7116 1.138102,1.99725 0.571277,0.28563 1.431536,0.28449 2.002816,0.28449 0.856917,0 1.999472,-0.28335 2.85639,-0.56906 l 0,0.28451 c 1.142557,1.71384 2.854165,3.14315 4.853639,4.00007 1.999474,0.85691 3.997835,1.14478 5.99731,0.85914 4.284588,-0.28565 7.997896,-2.57521 9.997371,-6.00288 l 0,-0.28449 -0.284496,0 c -1.142558,1.71383 -2.570752,2.85861 -4.284588,3.71553 -1.713836,0.85692 -3.714425,1.42931 -5.428258,1.14367 -1.999475,0 -3.708855,-0.57128 -5.422689,-1.42819 -1.713836,-0.85693 -2.857506,-2.00281 -4.000065,-3.43101 -0.285638,-0.28565 -0.856916,-0.57018 -1.428194,-0.2845 l -0.284498,0.2845 -2.856391,0 c -0.571277,0 -1.147013,10e-4 -1.718291,-0.2845 -0.28564,0.28563 -0.852461,0.28675 -1.1381,-0.28449 z m -10.571992,4.28459 c 1.428195,2.28512 3.713307,5.13928 5.712782,6.28184 0,2.2851 -0.0011,4.57133 0.284497,6.85644 -5.998422,-1.71383 -7.42439,-5.42824 -7.710028,-6.85644 1.142555,-1.71383 1.71272,-3.99672 1.71272,-6.28184 z m 116.258506,4.56911 c -0.85693,0 -1.71607,0.5724 -2.28735,1.14368 0,0.28564 -2.85416,8.2813 2.28735,13.4228 0.57128,1.14257 0.57015,2.57076 0.28449,2.8564 -0.57128,0.57128 -0.57128,1.43154 0,2.00282 0.28564,0.28563 0.57239,0.56905 1.14367,0.56905 0.28563,0 0.85246,-0.28335 1.13811,-0.56905 2.2851,-2.28512 0.57573,-6.28629 0.29009,-6.57193 0,-0.28564 -0.29009,-0.28335 -0.29009,-0.56906 -3.99896,-3.7133 -1.71273,-10.28746 -1.71273,-10.28746 0.28565,-0.85692 -0.28221,-1.7116 -0.85357,-1.99725 z m -56.46394,5.59565 c -0.111686,0.008 -0.23651,0.0457 -0.379383,0.11714 -0.285646,0.28564 -0.570167,0.57239 -0.284501,1.14368 1.713844,2.85639 2.281774,5.13813 2.281774,5.13813 0.28564,1.71383 0.28676,3.14314 -0.28449,4.00006 -0.57128,0.85693 -1.712733,0.85919 -1.712733,0.85919 -0.285635,0 -1.431529,0.28675 -2.00281,-1.71273 -0.285636,-0.57128 -0.284501,-0.85915 -0.284501,-0.85915 -0.285636,-1.14256 -1.429301,-1.99836 -2.571863,-1.71273 -1.142562,0 -2.281771,0.85581 -2.281771,1.71273 0,0.57127 -0.286753,1.99721 -2.571869,1.99721 -3.998947,1.14256 -4.855865,0.002 -5.712783,-0.85354 -0.285638,-0.28564 -0.572393,-0.85917 -1.143669,-0.85917 -0.57128,-0.28564 -1.141443,-0.28564 -1.712723,0 -0.856917,0.28563 -1.427082,1.14593 -1.712721,2.00284 -0.285638,0.28564 0,0.85243 0,1.13808 l 0,0.29011 -0.284496,-0.29011 c -1.142557,-0.57128 -1.717179,-1.13919 -2.002818,-2.28175 -0.571278,-2.57075 1.71495,-6.57196 2.571869,-8.00015 0.285639,-0.28564 0.286752,-0.85803 -0.284498,-1.14367 -0.28564,-0.28564 -0.858031,-0.28108 -1.143672,0.29012 0,0 -0.283354,0.28221 -0.56905,0.85355 -9.997371,10.56865 -11.713436,23.71142 -12.284713,26.28218 -0.57128,2.57074 -0.57128,5.42376 0,7.99452 0,0.28565 0.283355,0.2845 0.569051,0.2845 0.285638,0 0.290094,-0.28335 0.290094,-0.56903 -0.571278,-2.57078 -0.287868,-5.13931 0.569049,-7.71005 0.85692,-4.57023 2.282888,-8.28577 3.425445,-10.85652 2.856392,-5.99843 4.286816,-7.71226 5.143732,-8.56918 0,0.28565 -0.0011,0.85803 0.284499,1.14368 0.285638,1.4282 1.428194,2.56963 2.85639,3.14091 0,0 1.145899,0.57127 2.002817,0 0.285639,-0.28563 0.56905,-0.28335 0.56905,-0.56905 1.142557,0.57127 3.428786,1.1381 8.284651,1.1381 1.713836,0 5.711675,-1.14144 7.425508,-1.71271 0.571281,0.8569 1.430425,1.42819 2.287342,1.42819 l 0.569053,0 c 0,0 1.14478,-10e-4 2.28734,-1.14368 2.57075,2.8564 5.13816,5.7139 7.99455,8.28466 1.4282,1.42819 2.8564,2.57297 4.28459,3.71554 1.4282,1.14255 3.14538,2.28399 4.85921,3.14092 0.28565,0 0.28336,10e-4 0.56905,-0.2845 0,-0.28564 0.001,-0.28898 -0.28449,-0.57462 -1.71384,-0.85692 -3.14092,-1.99837 -4.56911,-3.14092 -1.4282,-1.14257 -2.57187,-2.57187 -4.00006,-4.00006 -2.57076,-2.8564 -4.85588,-5.71168 -7.14099,-8.85371 -0.28564,-0.28563 -0.28898,-0.56794 -0.57462,-0.85356 0.28564,-0.85693 10e-4,-2.00282 -0.2845,-3.43103 0,0 -0.56793,-2.57074 -2.28177,-5.71278 -0.21423,-0.21423 -0.42958,-0.42846 -0.76429,-0.4017 z m -58.366371,4.40172 c 1.142557,0.85693 2.855278,1.42708 4.569113,1.71273 -0.571278,4.57023 -0.569051,8.8537 -0.569051,13.13828 0,3.14204 0.283355,6.00176 0.569051,9.1438 -0.285639,-0.28563 -0.852461,-0.57238 -1.1381,-1.14366 -0.571278,-0.85693 -1.142558,-1.71384 -1.428197,-2.8564 -0.856917,-2.28511 -1.142555,-4.57022 -1.428195,-7.14098 -0.571279,-4.28459 -0.574621,-8.56918 -0.574621,-12.85377 z m 52.173804,19.87761 c -0.169673,0.008 -0.331406,0.0457 -0.474219,0.11713 -0.285645,0 -0.567938,0.28336 -0.85358,0.56903 l -0.57462,0.57465 c -0.571277,0.28564 -0.856917,0.56791 -1.428194,0.85354 -0.57128,0.28565 -1.141444,0.29012 -1.712723,0.29012 -0.285639,0 -0.856916,-0.289 -1.428195,-0.57465 -0.57128,-0.28562 -0.856918,-0.5679 -1.428196,-0.85354 l -1.712723,-0.85917 -0.859144,0 c -0.285639,0 -0.567937,0.28449 -0.853576,0.28449 -0.856917,0.57127 -1.714949,1.43154 -2.571867,2.00282 l -2.856393,2.5663 0,0.29009 0.284497,0 c 1.713836,-1.14255 3.714424,-2.57298 5.42826,-3.71554 0.571279,-0.57127 1.714949,-0.28675 2.571867,0.28449 0.571278,0.28565 0.856919,0.57352 1.428195,0.85915 0.57128,0.28565 1.141445,0.56906 1.712722,0.56906 0.856917,0 1.425968,-0.28335 1.997248,-0.56906 l 1.71829,-0.85915 c 0.285639,-0.28563 0.567935,-0.56903 0.853581,-0.56903 0.285635,-0.28565 0.288978,-0.2845 0.574613,-0.2845 0.571281,-0.28564 1.142562,-0.28564 1.428197,0 1.999478,1.14255 3.997832,1.99946 5.997307,2.85639 l 0.28451,0 0,-0.29009 c -2.285119,-1.14257 -3.997848,-1.99838 -5.997316,-3.14093 -0.428458,-0.21423 -1.019824,-0.42846 -1.528601,-0.40167 z m -10.276332,4.85921 c -1.191657,-0.0257 -2.265033,0.18738 -3.336179,0.40166 -1.428196,0.28564 -2.857508,0.85581 -4.000063,1.71273 -2.570754,1.14255 -4.851412,2.85416 -6.850885,4.85364 -0.285641,0.28563 -0.285641,0.28898 0,0.5746 0,0 0.283353,0.2857 0.569048,0 2.285116,-1.42818 4.855868,-2.85861 7.140981,-3.71552 1.142557,-0.57129 2.572982,-0.85803 3.715539,-1.14367 1.142558,-0.28565 2.568524,-0.2845 3.425441,-0.2845 1.142558,0.57128 2.571869,0.5735 4.000064,0.85914 1.428197,0 2.571867,-0.002 4.000064,-0.57462 3.142028,-0.57127 6.280726,-0.28563 9.422759,0 1.71383,0.28565 3.14537,0.57351 4.85921,0.85915 l 2.28177,0.56906 c 0.57128,0 1.43042,0.5735 2.28734,0.85914 0.28563,0 0.28335,0.001 0.56905,-0.2845 0,-0.28564 10e-4,-0.28898 -0.2845,-0.57462 -0.57127,-0.28564 -1.14479,-1.14255 -2.28734,-1.42819 l -2.28177,-0.85358 c -1.71384,0 -3.4299,-0.28787 -5.14374,-0.85915 -3.142033,-0.85691 -6.85422,-0.8547 -10.281897,-0.56905 -1.142556,0.28564 -2.282886,0.28449 -3.425442,0.28449 -1.142558,0 -2.28957,-0.28898 -3.146488,-0.57461 -0.428458,-0.0715 -0.835722,-0.1026 -1.232934,-0.11166 z m 20.089579,4.68625 c -2.28512,1.14255 -4.860322,1.42597 -7.431081,1.99725 -2.570749,0.28564 -5.13816,0.28449 -7.994552,0.28449 l -0.284496,0 c -1.999474,0.28565 -4.28793,0.28565 -6.287406,0 -1.999475,0 -4.283472,-0.28675 -5.997308,-1.14367 -0.285639,0 -0.283354,0.006 -0.56905,0.2901 l 0,0.2845 c 1.999474,2.28516 4.281245,3.13984 6.566358,3.42541 2.285115,0.57126 4.571343,0.57018 6.856456,0.2845 l -0.284497,0 c 2.856393,0 5.713899,-0.28224 8.284658,-0.85361 1.428187,-0.28557 2.851927,-0.85682 3.994488,-1.42808 1.14255,-0.57134 2.57409,-1.42937 3.43101,-2.57192 l 0,-0.56905 -0.28449,0 z m -14.019745,6.73937 c -1.405888,-0.0143 -2.692378,0.25754 -3.977753,0.68613 -1.713837,0.57126 -3.429899,1.71163 -3.715539,3.4254 0,0.28569 0.0058,0.28903 0.290096,0.57472 l 0.284495,0 c 1.142557,-1.14263 2.281772,-1.43154 3.70997,-2.00292 1.428194,-0.28557 2.860848,-0.28449 4.574682,-0.28449 1.428196,0 3.140921,-10e-4 4.569119,0.28449 1.428187,0.28568 2.856384,0.57138 4.284581,1.4282 0.285644,0 0.283354,10e-4 0.569054,-0.2845 l 0,-0.28449 c -1.142563,-1.14252 -2.57076,-2.00054 -4.284593,-2.57179 -1.713832,-0.57126 -3.425439,-0.85922 -4.853636,-0.85922 -0.499869,-0.0716 -0.981885,-0.10736 -1.450504,-0.11213 z m 59.493305,5.26089 c -0.16995,0.1565 -0.32696,0.3507 -0.46865,0.5914 0.21195,-0.1708 0.42375,-0.343 0.636,-0.5133 l -0.16737,-0.077 z m -33.19442,8.7086 c -0.42846,0 -0.85803,0.1383 -1.14367,0.424 -8.56918,7.7123 -17.135012,11.4288 -25.132906,10.572 -11.139929,-1.1426 -17.997498,-10.2819 -17.997498,-10.2819 -0.571279,-0.5713 -1.425968,-0.8614 -1.997246,-0.2901 -0.571279,0.5712 -0.855805,1.4316 -0.284499,2.0028 0.285641,0.2856 7.711146,10.283 20.279271,11.4256 l 2.571867,0 c 8.283541,0 16.564851,-3.7133 24.848381,-11.4256 0.57128,-0.5712 0.57128,-1.4316 0,-2.0028 -0.28564,-0.2857 -0.71521,-0.424 -1.14366,-0.424 z m -62.751359,2.0865 c 0.09254,0.2517 0.187091,0.5009 0.267643,0.7587 l 0.79222,-0.4574 c -0.355191,-0.092 -0.699386,-0.198 -1.060007,-0.3013 z m -31.481669,30.829 0,0.3961 c 0.0357,0.012 0.07027,0.016 0.105973,0.028 0.002,-0.1268 -0.0019,-0.1689 0,-0.2845 -0.03685,-0.039 -0.06913,-0.099 -0.105973,-0.1394 z m 90.232968,7.7881 c -0.0823,0.048 -0.16853,0.081 -0.25109,0.1283 0.1357,10e-5 0.27166,-10e-5 0.40727,0 -0.0488,-0.037 -0.10771,-0.091 -0.15624,-0.1283 z m -60.274328,3.7714 c 0.02286,0.1003 0.07999,0.2585 0.08912,0.2957 0.01713,0.1464 0.0517,0.2943 0.07798,0.4406 0.139675,0.026 0.279354,0.055 0.418404,0.083 -0.22023,-0.2928 -0.39187,-0.5559 -0.585791,-0.8201 z"
         style="fill:#800000" />
    </g>
    <path
       style="fill:#800000;fill-rule:nonzero;stroke:#000000;stroke-width:12.23300171;stroke-miterlimit:4;stroke-dasharray:none"
       inkscape:connector-curvature="0"
       id="path3039"
       d="m 431.25935,914.52834 c 0.98501,-2.7761 -27.14068,-28.6458 -36.18759,-10.44 -1.97808,3.9811 -2.62267,-8.2652 -8.91634,-8.7002 -6.29368,-0.4381 -13.11074,6.9599 -13.11074,6.9599 l -4.72061,-2.1747 c 0,0 -1.04965,-15.6603 -20.45449,-20.8799 -19.40523,-5.2197 -29.78626,8.3918 -30.94349,16.0947 -0.81367,5.4165 -1.57348,13.0492 -1.57348,13.0492 0,0 -9.20826,-8.4044 -14.68513,-5.6536 -19.92962,10.0049 4.19576,13.4837 4.19576,13.4837 0,0 -25.53477,-2.7395 -36.7127,6.9611 -5.84324,5.0691 -5.76911,13.4849 -1.57335,16.5292 4.19577,3.0437 13.11176,4.3501 13.11176,4.3501 -6.58787,5.6392 -3.82895,8.6943 2.09775,10.8745 0,0 -13.63616,6.9593 -8.39142,13.9193 5.24477,6.96 24.12541,-0.4381 24.12541,-0.4381 0,0 1.25688,10.3548 18.35647,9.571 10.24536,-0.4681 29.89455,-6.091 29.89455,-6.091 0,0 -10.62224,4.6891 -3.14669,6.5261 14.16051,3.4788 17.30751,-3.915 17.30751,-3.915 0,0 -1.55971,4.802 6.81849,5.6553 9.01181,0.9164 12.06249,-3.9151 12.06249,-3.9151 0,0 9.30119,2.5181 14.68525,2.1748 6.81706,-0.438 13.6356,-5.2197 13.6356,-5.2197 0,0 5.76887,4.7846 14.16041,3.9139 6.06886,-0.6343 15.20999,-2.6092 15.20999,-2.6092 0,0 12.58732,4.3495 26.2229,3.915 13.6369,-0.438 28.32221,-3.0455 37.23712,-0.8701 8.91642,2.1747 38.81036,6.9593 54.54514,1.7396 3.80279,-1.2607 11.01421,-5.6547 14.16042,-4.3489 3.14748,1.3046 5.24535,6.0886 11.53911,4.784 6.29219,-1.3046 11.53762,-0.8701 11.53762,-0.8701 18.8649,2.1615 34.67363,1.7889 38.28537,-8.6997 l 12.58738,-0.8701 c 5.59526,7.8817 11.18921,2.9585 16.78316,4.3501 0,0 -1.04824,6.96 15.20994,6.96 16.25832,0 16.25832,-7.8295 16.25832,-7.8295 0,0 6.29367,5.6547 12.06251,5.6547 5.7688,0 5.24548,3.045 16.25832,4.3496 11.01429,1.3045 25.17462,1.3045 26.74771,-5.2197 1.5744,-6.525 2.62282,-7.8289 2.62282,-7.8289 0,0 7.03778,4.5367 20.97884,-8.2658 5.70966,-5.2443 8.29324,-17.2289 1.04946,-27.406 -3.39899,-4.7727 -16.78299,-2.1736 -16.78299,-2.1736 0,0 7.8666,-5.2197 6.29366,-13.4843 -2.93219,-15.4033 -18.3575,-23.0552 -27.27249,-21.3149 -8.91641,1.7402 -8.91641,3.4793 -8.91641,3.4793 0,0 6.40257,-12.6651 -8.91643,-14.7894 -14.11054,-1.9564 -11.53767,10.875 -11.53767,10.875 0,0 -3.18785,-17.823 -19.40584,-16.5298 -26.73157,2.1316 -30.94348,21.3138 -30.94348,21.3138 0,0 -2.62135,-5.6542 -9.43979,-5.2197 -6.81848,0.4381 -7.86673,10.875 -7.86673,10.875 0,0 -3.14749,-3.4799 -7.34326,-3.9156 -4.19583,-0.4321 -13.11081,11.7463 -13.11081,11.7463 0,0 -1.59191,-10.2563 -9.44115,-10.875 -22.0272,-1.7403 -20.45408,10.44 -23.07676,11.744 -2.6213,1.3052 -4.19587,-7.395 -18.88097,-1.7397 -5.42313,2.0884 -13.11088,13.0492 -16.78315,13.4849 -3.67096,0.432 -1.72922,-5.1999 -8.9151,-6.5243 -23.60157,-4.3502 -27.79725,3.9144 -32.51782,2.1753 -4.7193,-1.7409 -5.22251,-15.0991 -14.68384,-15.6608 -19.88625,-1.1798 -20.97893,10.8756 -20.97893,10.8756 0,0 -1.04963,-5.2197 -4.72059,-4.7864 -3.67097,0.4381 -6.29367,4.7864 -8.3915,4.7864 -2.0979,0 0,-3.915 -6.29372,-5.2197 -6.29364,-1.3058 -11.01416,2.6087 -13.63552,3.9139 -2.62278,1.3058 -5.77026,-2.6092 -5.77026,-2.6092 z"
       inkscape:export-xdpi="100"
       inkscape:export-ydpi="100" />
    <path
       style="fill:#b23724;fill-rule:nonzero;stroke:#000000;stroke-width:12.23300171;stroke-miterlimit:4;stroke-dasharray:none"
       inkscape:connector-curvature="0"
       id="path3035-4"
       d="m 481.02675,634.72925 c 0,0 4.45147,86.12439 2.96716,91.04519 -1.48291,4.9221 -6.52373,63.8807 -8.90021,75.0516 -4.45011,20.9159 -26.70192,134.1075 -26.70192,134.1075 l 136.47444,-1.2302 c 0,0 -10.38331,-99.6581 -10.38331,-107.04 0,-7.3818 -2.96714,-82.4328 -1.48415,-88.5844 1.48415,-6.1528 0,-102.11973 0,-102.11973 l -91.97201,-1.22996 z"
       inkscape:export-xdpi="100"
       inkscape:export-ydpi="100" />
    <path
       style="fill:#501616;fill-rule:nonzero;stroke:none;stroke-width:1.20000005"
       inkscape:connector-curvature="0"
       id="path3069"
       d="m 477.35889,782.59984 c -0.10898,0.51 -0.92576,21.9336 -2.48549,26.4698 5.36934,-0.7705 8.23281,-5.3445 16.59617,-2.407 5.59793,1.9659 9.72241,-0.5761 18.85266,0.8719 11.63732,1.8454 6.32331,2.308 21.18073,-0.7177 13.00311,-2.6482 18.92269,1.2182 25.96731,-3.0233 9.98346,-3.1073 15.88695,-0.998 16.64573,6.9846 -0.47484,-15.2138 -1.85958,-21.0371 -2.02918,-35.3783 l -94.72793,7.2 z"
       inkscape:export-xdpi="100"
       inkscape:export-ydpi="100" />
    <path
       style="fill:#924848;fill-rule:nonzero;stroke:#000000;stroke-width:8.44385147;stroke-miterlimit:4;stroke-dasharray:none;stroke-opacity:1"
       inkscape:connector-curvature="0"
       id="path3037"
       d="m 486.02843,759.59544 c -7.3123,-3.5676 -10.78517,-4.5421 -23.56744,2.0656 -4.41929,2.2864 -13.18248,-2.4772 -17.17697,-3.7164 -3.99467,-1.2398 -21.96891,-13.6301 -33.15402,-9.5014 -11.1851,4.1305 -11.69963,-0.084 -16.77688,2.4796 -4.31642,2.1777 -5.99192,10.7382 -10.38514,10.3265 -4.39461,-0.4141 -12.38379,-1.2398 -13.58096,2.0656 -1.19868,3.3041 -5.6267,3.9834 -12.38366,4.5427 -9.9862,0.8264 -14.77953,13.2172 -7.18998,13.6313 8.41458,0.4561 12.38305,10.3253 23.9668,1.2386 3.88442,-3.0479 8.38778,-8.261 9.1878,-5.3691 0.79871,2.8907 1.38717,7.6717 6.79052,8.2604 15.17831,1.6515 11.1837,-7.8469 15.5783,-7.8469 4.3932,0 8.74589,11.4823 19.17286,13.216 6.73977,1.121 14.77969,-7.434 19.17433,-7.434 4.39317,0 3.3916,4.2325 11.58378,4.5421 7.60209,0.2941 4.39316,-6.1954 7.98913,-5.782 3.59456,0.4141 6.05123,13.2611 22.36878,10.7388 9.56324,-1.4774 9.18784,-11.1522 16.777,-10.7388 7.5891,0.4141 9.58641,-0.414 18.37415,3.3048 8.78781,3.7176 27.96217,2.4772 30.75807,0.8263 2.79598,-1.652 13.58099,-2.8912 13.58099,-2.8912 0,0 1.19871,4.9562 7.19063,4.5421 5.99047,-0.4141 10.78507,-7.4334 13.58092,-6.6071 2.79592,0.8251 7.18915,12.3921 14.37971,11.1517 7.19054,-1.2386 9.98651,-9.9131 14.77969,-9.9131 4.79328,0 9.98656,0 13.98111,2.4778 3.99456,2.4791 12.38232,7.4353 19.17287,6.6089 6.79046,-0.8263 12.38224,-6.1954 18.3741,-5.7831 5.99192,0.414 20.77161,4.9568 34.7527,0.8281 7.00941,-2.0721 8.93283,-12.038 1.99732,-12.8061 -11.18523,-1.2392 -13.58102,3.7188 -13.58102,3.7188 0,0 12.38237,-18.1765 -2.7958,-17.7624 -7.28788,0.204 -7.1907,1.2398 -7.1907,1.2398 0,0 7.1907,-14.4576 -9.98644,-13.6313 -4.38881,0.2161 -15.17826,-11.1528 -24.36624,-5.3691 -9.18764,5.7826 -16.71162,17.3351 -17.17683,14.8693 -0.83501,-4.4305 -17.53944,-3.4169 -20.77022,1.2398 -0.961,1.3833 -3.52927,-11.4403 -12.38379,-8.2609 -13.24913,4.7569 -11.98231,12.8037 -14.37964,12.8037 -2.39727,0 -1.65659,-7.1172 -9.5864,-4.5428 -9.47045,3.0725 -11.98375,10.326 -16.77698,10.326 -4.7932,0 -13.58108,-6.6095 -17.17706,-9.5002 -3.59456,-2.8913 -21.57026,-8.261 -35.15117,0.414 -13.58101,8.6751 -13.86514,2.0068 -17.97422,0 z"
       inkscape:export-xdpi="100"
       inkscape:export-ydpi="100" />
    <path
       style="fill:#a8572f;fill-rule:nonzero;stroke:#000000;stroke-width:8.3559761;stroke-miterlimit:2.20000005;stroke-dasharray:none"
       inkscape:connector-curvature="0"
       id="path3080"
       d="m 337.05048,877.47754 c -16.02195,0 -19.59067,3.8622 -23.15114,15.3979 -3.56039,11.537 -1.78747,16.3516 -1.78747,16.3516 l -10.07146,6.7103 c 0,0 -36.21376,0 -35.62024,5.7562 0.59336,5.7687 -0.55445,7.7185 5.97297,9.6418 6.52738,1.9221 20.75307,-2.4022 20.75307,-2.4022 0,0 -8.89636,6.7211 -5.92944,9.6058 2.96695,2.8847 26.68257,-7.1334 26.68257,-7.1334 -10.77271,18.1884 39.73452,16.3407 41.54955,11.0539 15.93982,5.2947 16.88573,-1.4277 12.47007,-6.7092 7.31902,7.7671 22.54447,10.3218 24.89385,5.2611 6.32016,10.4856 20.04444,7.7305 33.26643,5.7922 -0.59431,12.7935 10.80836,9.2331 22.54031,5.2617 13.45913,9.8806 37.18121,5.0996 40.33012,-2.8601 -2.01608,10.2696 34.7437,5.83 35.00889,3.3545 16.86337,6.7476 26.82756,2.1641 36.79748,-2.4009 -1.829,6.6912 12.94012,7.8973 23.76245,2.4009 10.74134,3.609 13.51922,0.3662 12.42534,-6.2512 8.65835,10.9387 21.1172,4.3334 23.15151,0.4921 11.33706,3.2778 8.47277,-2.5114 9.5039,-5.7922 3.36644,11.7596 20.29679,5.1939 20.75301,1.9432 0.36128,1.8933 8.39055,8.8755 12.46995,-1.4487 1.26128,5.1669 3.14472,9.5723 12.46859,4.8027 21.74515,5.5946 26.13283,-0.2821 26.72584,-8.6523 13.91114,7.3134 24.9652,8.5688 27.86011,-7.6975 23.27422,3.1481 16.32492,-0.096 8.32777,-6.3221 7.24932,-0.8389 -1.31009,-5.8426 -1.78725,-6.2513 14.42184,5.4502 26.17489,-1.9401 24.93857,-9.3591 -0.78542,-4.712 -6.55309,-7.9297 -13.07969,-9.8531 -6.52788,-1.9233 -16.6122,1.4133 -16.6122,1.4133 0,0 3.55775,-10.8186 -7.71668,-13.7027 -11.27428,-2.8847 -11.29253,10.3475 -11.29253,10.3475 0,0 -11.22553,-14.7373 -23.10673,-14.9041 -17.20934,-0.24 -28.80875,11.7836 -29.99596,18.7532 -4.25817,0.7315 -5.90016,-5.0355 -9.46073,-4.5554 -3.56039,0.4801 -10.11496,10.806 -10.11496,10.806 0,0 -0.88448,-5.0438 -7.41251,-3.6012 -6.52658,1.442 -11.85895,13.2076 -11.85895,13.2076 0,0 -7.4919,-12.7653 -14.82353,-13.2076 -16.92487,-1.0238 -13.65177,13.222 -18.39821,13.7021 -4.74762,0.4801 -1.19554,-7.7005 -12.46994,-5.2983 -11.27427,2.4046 -25.50506,17.3057 -25.50506,17.3057 0,0 -4.26074,-7.6747 -11.90213,-8.6522 -16.91212,-2.1628 -33.2231,2.4016 -33.2231,2.4016 0,0 -6.79862,-14.6551 -14.82365,-15.6105 -15.32859,-1.8237 -21.36281,11.7602 -21.36281,11.7602 0,0 -2.85448,-4.1395 -5.3629,-4.3081 -3.39174,-0.2221 -8.28458,4.8032 -8.28458,4.8032 0,0 -3.2954,-5.5155 -6.53919,-6.25 -5.42015,-1.2321 -16.00104,4.3075 -16.00104,4.3075 0,0 -13.80386,-13.7117 -24.32758,-18.2587 -13.35171,-5.7676 -18.39951,5.2971 -18.39951,5.2971 0,0 -4.04593,-7.5409 -8.3277,-8.1938 -5.56955,-0.8467 -14.82367,6.747 -14.82367,6.747 0,0 -13.05804,-25.005 -29.07981,-25.005 z m -42.90138,24.3328 c -1.69687,0.078 -3.23432,0.7442 -4.2727,2.3668 -2.50031,3.9055 2.97937,3.8275 6.53986,4.3088 3.56025,0.48 9.50456,-1.9078 9.50456,-1.9078 0,0 -6.68145,-5.0036 -11.77172,-4.7678 z"
       inkscape:export-xdpi="100"
       inkscape:export-ydpi="100" />
    <path
       style="fill:#943c3c;fill-opacity:1;fill-rule:nonzero;stroke:#000000;stroke-width:12.23300171;stroke-miterlimit:4;stroke-dasharray:none"
       inkscape:connector-curvature="0"
       id="path3041"
       d="m 347.67873,424.12983 c -20.97874,3.47992 -57.69158,33.05935 -59.78933,37.40937 -2.09783,4.34982 -25.36924,18.70639 -31.46799,31.31942 -5.73979,11.87077 -10.48944,24.35982 -3.14685,38.27964 2.55726,4.84834 -8.3915,18.2694 -8.3915,23.48938 0,5.21997 11.73307,9.34158 12.58726,17.39985 1.56657,14.7782 -13.63624,20.00933 -4.19576,44.36909 4.88903,12.61515 20.85228,4.52008 28.32117,10.4399 7.34833,5.82386 8.39142,19.13985 13.63617,22.61983 5.24474,3.47999 32.51701,6.95991 32.51701,6.95991 0,0 5.24473,9.56942 16.78297,11.30942 11.53826,1.74 23.07662,-3.4799 26.22341,-0.8694 3.14619,2.6094 20.97894,2.6094 20.97894,2.6094 0,0 2.09781,6.96 16.78308,7.8302 14.68524,0.8695 22.02716,-11.3102 22.02716,-11.3102 5.65306,5.9915 11.13271,12.2739 30.41869,-4.34944 5.11622,2.08934 9.08852,9.87044 16.78305,-0.87051 4.08543,11.16225 36.92769,1.01897 29.37043,-13.91987 14.72695,22.26262 55.2125,7.87295 57.69116,2.61049 2.45992,11.65539 13.71651,10.54149 27.27262,6.0894 -1.01863,7.99123 27.52953,26.64093 37.76196,5.21998 4.19039,2.78915 -0.87999,14.79585 15.73346,5.21995 48.30125,13.2569 55.42255,5.1675 59.78918,-4.34944 l 4.19568,-10.43984 c 36.93855,29.51468 45.23047,2.32144 38.81163,-3.47993 66.24694,-0.99905 46.0137,-31.37235 45.10401,-42.62915 28.07311,-8.6687 39.27848,-19.24374 14.68515,-40.89033 8.08073,-3.30924 9.35771,-7.42419 -2.09779,-13.0493 58.67203,-6.26019 14.1281,-50.73425 -7.34335,-60.89892 -4.19586,-18.26976 -36.71236,-46.10927 -53.49551,-51.32913 -5.55632,-1.72805 -7.34188,-13.91981 -28.32083,-21.74974 -11.55793,-4.3137 -33.56613,-0.87003 -37.76202,-1.74006 -4.1956,-0.86978 -24.12493,-10.43977 -32.51643,-11.30974 -8.39163,-0.87002 -13.63699,0.86997 -29.37047,-0.87002 -15.73492,-1.73993 -28.32083,-4.34989 -31.46833,-5.21985 -3.14622,-0.86996 -14.68524,-6.08994 -22.02716,-7.82987 -7.34323,-1.73993 -24.12637,4.34994 -36.71368,5.21991 -12.58594,0.87003 -35.66269,2.60996 -35.66269,2.60996 0,0 -3.1476,-5.21991 -13.63702,-5.21991 -10.48943,0 -17.83136,5.21991 -24.12497,6.95996 -6.29372,1.73987 -13.63702,0 -29.37045,0.86997 -15.73348,0.8699 -19.92924,4.34982 -28.32083,6.08988 -8.39158,1.73999 -16.78306,4.34989 -25.17467,5.21997 -8.39156,0.86991 -23.07656,12.17977 -23.07656,12.17977 z"
       inkscape:export-xdpi="100"
       inkscape:export-ydpi="100" />
    <text
       xml:space="preserve"
       style="font-style:normal;font-weight:normal;font-size:40px;line-height:125%;font-family:sans-serif;letter-spacing:0px;word-spacing:0px;fill:#000000;fill-opacity:1;stroke:none;stroke-width:1px;stroke-linecap:butt;stroke-linejoin:miter;stroke-opacity:1"
       x="311.45322"
       y="574.78857"
       id="text4158"
       sodipodi:linespacing="125%"
       inkscape:export-xdpi="100"
       inkscape:export-ydpi="100"><tspan
         sodipodi:role="line"
         id="tspan4160"
         x="311.45322"
         y="574.78857"
         style="font-style:normal;font-variant:normal;font-weight:bold;font-stretch:normal;font-size:105px;font-family:'VNF Strangelove Text';-inkscape-font-specification:'VNF Strangelove Text Bold'">Game of Red Buttons</tspan></text>
  </g>
</svg>
