<?xml version="1.0" encoding="UTF-8" standalone="no"?>
<svg
   xmlns:dc="http://purl.org/dc/elements/1.1/"
   xmlns:cc="http://creativecommons.org/ns#"
   xmlns:rdf="http://www.w3.org/1999/02/22-rdf-syntax-ns#"
   xmlns:svg="http://www.w3.org/2000/svg"
   xmlns="http://www.w3.org/2000/svg"
   xmlns:sodipodi="http://sodipodi.sourceforge.net/DTD/sodipodi-0.dtd"
   xmlns:inkscape="http://www.inkscape.org/namespaces/inkscape"
   version="1.1"
   id="svg4181"
   viewBox="0 0 200 200"
   height="200"
   width="200"
   inkscape:version="0.91 r13725"
   sodipodi:docname="trump.svg">
  <sodipodi:namedview
     pagecolor="#ffffff"
     bordercolor="#666666"
     borderopacity="1"
     objecttolerance="10"
     gridtolerance="10"
     guidetolerance="10"
     inkscape:pageopacity="0"
     inkscape:pageshadow="2"
     inkscape:window-width="828"
     inkscape:window-height="480"
     id="namedview4141"
     showgrid="false"
     inkscape:zoom="4.25"
     inkscape:cx="100"
     inkscape:cy="100"
     inkscape:window-x="0"
     inkscape:window-y="0"
     inkscape:window-maximized="1"
     inkscape:current-layer="svg4181" />
  <defs
     id="defs4183" />
  <metadata
     id="metadata4186">
    <rdf:RDF>
      <cc:Work
         rdf:about="">
        <dc:format>image/svg+xml</dc:format>
        <dc:type
           rdf:resource="http://purl.org/dc/dcmitype/StillImage" />
        <dc:title />
      </cc:Work>
    </rdf:RDF>
  </metadata>
  <g
     transform="translate(0,-852.36216)"
     id="layer1"
     style="fill:#800000">
    <path
       id="path7"
       d="m 100.93738,855.60818 c -7.967614,0.11164 -16.926344,1.41925 -26.923717,4.41846 -1.999472,0 -14.569826,0.56905 -23.710281,11.99463 -3.998949,5.99841 -15.425631,21.13506 -22.566612,20.56379 -0.856917,0 -1.71272,0.57127 -1.71272,1.42819 l 0,0.85914 c 0,2.57076 1.427081,4.8581 3.140919,6.57194 1.999474,1.99947 4.859207,3.13869 7.715598,3.70997 1.428196,0.28563 2.567413,0.28449 3.709969,0.28449 -3.713311,4.57023 -9.421638,13.99631 -5.422688,28.56392 0.856915,2.8564 2.851935,11.14327 -0.290097,14.85658 -0.285639,0.28564 -0.284496,0.57239 -0.284496,1.14367 0,0.28564 0.284496,3.42544 3.140917,6.28184 -0.285638,5.1415 -0.28107,10.28413 0.290094,15.42563 0.285642,2.57075 0.855805,5.13927 1.712723,7.71003 0.571278,1.4282 0.854689,2.57187 1.997247,4.00006 0.856916,1.14255 2.285112,2.28289 4.284587,1.99725 0,0.85692 0.284495,1.71606 0.284495,2.28734 0.57128,2.28511 1.147014,4.85587 1.718294,7.14102 l 2.566296,6.85637 c 0.747975,1.7453 1.494522,3.2977 2.242726,4.9876 0.270784,0.1686 0.542456,0.3291 0.820098,0.5299 0.174812,0.1267 -0.405007,-0.1447 -0.608097,-0.2176 l 3.682059,5.0768 c 0.08283,0 0.166527,0.014 0.245363,0.016 -0.235366,-0.5089 -0.455052,-1.0211 -0.368217,-1.551 0.09569,-0.584 1.415115,1.5206 0.825669,1.5733 -0.132249,0.012 -0.310462,-0.02 -0.457452,-0.022 0.11226,0.2429 0.231654,0.4859 0.312404,0.7309 0.748803,0.8513 1.577529,1.6379 2.733653,2.2985 l 4.000091,4.8593 c 1.428197,1.7138 2.856394,3.7088 4.284588,5.4227 2.856394,3.4277 5.995054,6.8553 9.422725,9.9973 3.42767,3.142 6.857569,6.284 10.856518,8.5692 3.998948,2.285 8.570321,4.5725 13.997464,3.7155 0.28564,0 0.28336,0 0.56902,-0.2844 8.85482,-6.2842 17.424,-12.8538 25.70753,-19.9948 3.99895,-3.7132 7.99678,-7.4267 11.7101,-11.4256 1.18788,-1.3858 2.34284,-2.9588 3.4366,-4.6193 0.012,-0.6064 0.0256,-1.2128 0.0229,-1.8187 l 1.91913,-4.5077 c 0.0957,-0.159 0.43146,-0.6 0.29014,-0.4799 -0.21167,0.1797 -0.64542,0.9048 -0.50771,0.6639 0.49308,-0.8627 1.03741,-1.6967 1.55651,-2.544 l -0.3905,-0.837 c -0.37322,-0.9537 -0.63688,-1.6099 -0.75871,-2.17579 -0.43374,0.2944 -0.70853,0.79109 -0.70853,1.17719 0,2.2851 -0.85915,4.5713 -2.28734,6.8564 -1.4282,2.2852 -2.85527,4.2824 -4.56913,6.2819 -3.42766,3.9989 -7.4266,7.7134 -11.42555,11.1411 -7.99791,6.8553 -16.56931,13.4272 -25.13848,19.4257 -3.713316,0.2855 -7.997908,-1.4304 -11.425576,-3.7156 -3.713311,-2.285 -7.139866,-5.1425 -10.281898,-8.2847 -3.142032,-3.142 -6.281834,-6.5696 -9.138226,-9.9973 -1.428195,-1.7138 -2.856392,-3.4232 -4.284589,-5.4227 l -4.284587,-5.4282 -0.284496,-0.5748 c -1.142557,-1.1425 -2.288455,-3.1396 -3.431013,-4.8536 -1.142556,-1.9994 -2.283998,-3.9978 -3.140918,-5.9973 -0.856917,-1.99944 -2.000587,-4.28673 -2.571867,-6.57188 -0.856915,-1.99947 -1.425966,-4.28124 -1.997245,-6.56637 -0.856918,-4.57021 -1.427081,-9.14156 -1.71272,-13.99742 -0.285641,-4.57024 -1.428199,-30.56339 -1.428199,-38.56129 0,-0.57128 -0.571276,-1.14368 -1.428194,-1.14368 -0.57128,0 -1.14367,0.5724 -1.14367,1.14368 l 0,7.42549 c -3.713312,-5.71277 -5.143736,-10.28523 -3.71554,-13.71291 1.713836,-3.99893 6.287404,-5.13816 6.287404,-5.13816 0.285642,0 0.569052,-0.28785 0.569052,-0.85914 0,-0.28564 -0.287868,-0.56905 -0.859146,-0.56905 -0.285638,0 -5.427144,1.14144 -7.14098,5.9973 -1.713835,3.99896 0.0058,9.42499 4.574684,15.99469 l 0.284496,0.28449 c 0,1.71384 -0.0011,3.14539 0.284497,4.85922 -2.285113,-1.71383 -4.571341,-5.42604 -5.42826,-7.42551 -0.285638,-4.28458 -1.428195,-7.99902 -1.428195,-8.28465 -0.285638,-0.57127 -0.283354,-1.43154 -0.56905,-2.00282 -0.285639,-4.57022 0.571277,-7.99678 2.856392,-10.2819 3.42767,-3.71331 8.569176,-3.14091 8.569176,-3.14091 0.285639,0 0.569051,-0.28336 0.569051,-0.56905 0,-0.28564 -0.283355,-0.57461 -0.569051,-0.57461 -0.285638,0 -5.999537,-0.85359 -9.712847,3.431 -1.142558,1.42819 -2.286228,3.13758 -2.571867,5.4227 0,-1.99948 -0.0011,-3.70998 0.284498,-5.13817 l 0.290094,-0.28451 c 1.999474,-3.42766 4.566886,-6.85978 7.994555,-8.85926 1.713834,-0.85692 3.4299,-1.42819 5.143733,-1.42819 1.713838,0 3.714425,0.57127 5.428261,1.42819 l -0.290097,0 c 2.285113,1.4282 4.572456,1.14589 6.57193,0.57462 1.999474,-0.57128 3.711081,-1.99836 4.853639,-3.14091 2.570754,-2.57076 4.573568,-5.71614 6.287404,-9.1438 0,-0.28565 0.282212,-0.56794 0.853576,-0.85359 0.285638,-0.28564 0.858031,-0.29009 1.14367,-0.29009 1.142558,0 2.288457,0.5724 3.431013,1.14368 2.570752,1.14255 5.138165,1.71717 7.994555,2.00281 2.570755,0.28564 5.428259,0.57127 8.284654,0 2.856394,-0.28564 5.424917,-1.4282 7.710027,-2.8564 1.71384,-1.14255 3.14649,-2.57186 4.57469,-4.00006 0.28563,0.28565 0.28335,0.56906 0.56905,0.56906 4.28459,2.57075 8.56806,4.57357 13.1383,6.2874 4.57021,1.71384 9.14043,3.1398 14.28195,3.42545 2.57075,0.28563 5.14038,0.002 7.4255,-0.56906 1.14257,-0.28564 2.5741,-0.85691 3.43101,-1.42819 0.57129,-0.28564 1.14144,-0.5724 1.71272,-1.14368 0.28565,-0.28563 0.85693,-0.5735 1.4282,-0.85913 3.99895,-1.99948 8.85483,-2.85528 12.85377,-0.28451 l 0.28449,0 c 1.14257,3.71332 2.0017,8.57029 2.28735,13.99744 -8.85482,-7.42662 -24.56609,-8.00012 -25.423,-8.00012 -0.28565,0 -0.56905,0.28897 -0.56905,0.57462 0,0.28563 0.28334,0.56904 0.56905,0.56904 0.28562,0 17.13945,0.5724 25.423,8.28466 l 0,2.57187 c -8.56918,-7.99791 -22.85449,-7.7145 -23.42576,-8.00013 -0.28564,0 -0.56904,0.28335 -0.56904,0.56905 0,0.28563 0.28334,0.57461 0.56904,0.57461 1.14255,0 15.42898,0.28676 23.14123,8.28466 l 0,1.99724 0,0.2845 c -10.28301,-7.14098 -21.99756,-6.56636 -21.99756,-6.56636 -0.28565,0 -0.56906,0.28336 -0.56906,0.56905 0,0.28565 0.28337,0.56906 0.56906,0.56906 0,0 13.42727,-0.8547 23.71029,8.00012 0.57128,1.14255 1.42931,3.14203 1.14366,5.71279 -7.9979,-7.99791 -18.85442,-9.42721 -22.28209,-9.71285 -0.28564,0 -0.5735,-0.2845 -0.85914,-0.2845 -0.85692,0 -1.42819,0.8558 -1.42819,1.71271 0.28564,4.85588 2.28957,27.99599 6.00288,33.42313 0,2.28512 0.57128,13.70847 -1.4282,23.42019 -0.85693,2.8564 -3.71777,10.85541 -4.57468,12.56926 -0.28565,0.85694 0.002,1.71162 0.57462,1.9972 0.28563,0 0.56905,0.28449 0.56905,0.28449 0.57127,0 1.14255,-0.28223 1.42819,-0.85349 0.85692,-1.71388 3.14203,-8.56811 4.28458,-11.71014 1.14257,0.57128 2.28846,0.56906 3.43103,0.56906 4.28458,0 7.71113,-2.85864 8.85368,-5.14375 3.99896,-4.85586 5.42827,-15.99467 5.42827,-17.42288 2.8564,-8.28354 2.28289,-13.9952 1.99725,-15.99467 1.71383,-0.85692 2.28623,-1.99837 2.57186,-3.14092 0.85692,-3.14204 -1.42931,-7.14098 -2.57186,-8.56919 0.85691,-5.1415 -1.42932,-8.56917 -2.57187,-9.99736 1.4282,-26.85008 -10.56977,-37.42207 -12.56925,-39.13592 -1.14255,-2.2851 -9.42163,-15.13553 -26.84561,-22.27651 -0.28565,-0.28564 -0.28899,-0.28449 -0.57462,-0.28449 l -0.56906,0 c -7.06957,-2.73143 -15.67542,-4.56221 -25.91953,-4.41847 z M 57.282576,1012.8269 c -0.02571,-0.031 -0.05712,-0.059 -0.08369,-0.089 l 0.105973,0.145 c -0.0058,-0.02 -0.01713,-0.037 -0.02286,-0.056 z m -0.08369,-0.089 -0.474188,-0.6584 c -0.04142,0 -0.08055,0 -0.122826,0 0.18081,0.2373 0.403495,0.4397 0.596928,0.6639 z M 102.88442,859.36847 c 4.85867,0.006 9.33015,0.47756 13.4005,1.22736 -1.14255,0.28565 -2.28288,0.5724 -3.42543,1.14368 -4.85587,1.99948 -8.85259,5.42491 -11.99463,9.13823 -5.712776,7.99789 -13.429496,13.71402 -21.713031,19.14116 -8.283538,5.14151 -17.133897,9.42609 -26.845631,11.42557 l -0.859143,0 c 7.426617,-3.14203 14.280844,-7.42884 20.279267,-12.28471 4.570228,-3.42768 8.57029,-7.42662 12.56924,-11.42557 3.998949,-3.99895 7.713372,-8.28354 11.141044,-12.85377 0.285635,-0.28563 0.286749,-0.85803 -0.284501,-1.14366 -0.285636,-0.28565 -0.858031,-0.28676 -1.143666,0.28449 -3.142032,4.57023 -6.857572,8.85482 -10.856518,12.85376 -3.998951,3.99896 -7.994558,7.9979 -12.279145,11.42556 -7.14098,5.71279 -15.141106,10.57088 -23.710283,13.71292 l -3.425441,0 c 2.570752,-1.14256 4.85141,-2.28734 6.850885,-3.71554 3.998949,-2.57075 7.712257,-5.71055 11.425567,-9.13822 7.14098,-6.85534 13.428386,-13.9941 19.141169,-21.99199 0.285639,-0.28564 0.285639,-0.57351 0,-0.85916 -0.285639,-0.28563 -0.573506,-0.28563 -0.859145,0 -5.712785,7.71227 -11.995734,15.13666 -18.851075,21.99199 -3.427669,3.42769 -7.142093,6.57305 -11.141043,9.14381 -2.570751,1.71383 -5.712783,3.42655 -8.569174,4.56911 -1.142558,-0.28563 -1.998362,-0.28787 -3.140919,-0.85914 -1.999475,-0.57128 -3.714424,-1.71384 -5.428259,-2.8564 -0.856916,-0.57128 -1.714947,-1.14033 -2.571867,-1.99724 9.997374,-1.99947 21.422943,-19.42235 22.851138,-21.70747 8.854814,-10.85429 21.422938,-10.57199 21.422938,-10.57199 l 0.574623,0 c 10.175897,-3.39196 19.344797,-4.66395 27.44256,-4.65281 z m 16.97099,3.11862 c 2.0709,-0.10712 4.14289,0.10938 6.14236,0.68062 19.13784,7.14097 27.13462,21.70634 27.42025,21.99199 0,0.28563 0.28899,0.28898 0.57463,0.57461 0,0 5.42602,3.99561 8.85369,13.70734 -1.71383,-0.85691 -3.99783,-1.42819 -5.9973,-1.42819 -2.57075,0 -4.85586,0.57016 -7.14099,1.71272 l -1.71272,0.85915 c -0.57127,0.28564 -0.85691,0.57349 -1.42819,0.85914 -0.85692,0.57128 -2.00393,0.85246 -3.14649,1.1381 -2.28511,0.57129 -4.56688,0.57573 -6.56636,0.29009 -4.57022,-0.57127 -8.85371,-2.00058 -13.13829,-4.00006 -3.99894,-1.71384 -7.71337,-3.71219 -11.14103,-5.9973 2.85638,-0.85693 5.71276,-2.00282 8.56917,-3.43101 1.99948,-0.85693 3.71441,-1.99725 5.42826,-3.42546 1.71383,-1.42819 3.13868,-3.14313 3.70996,-5.42825 0.28564,-0.57129 0.002,-0.85804 -0.56905,-1.14367 -0.57128,-0.28565 -0.85803,0.002 -1.14367,0.57462 -1.4282,3.42767 -4.85697,5.9962 -8.28465,7.71003 -3.42767,1.71383 -7.42662,2.85861 -11.42556,3.71554 -0.28565,0 -0.56795,0.2845 -0.85358,0.2845 l -0.2901,0 c -0.85693,1.99947 -3.13869,3.71107 -5.13817,4.85362 -1.99947,1.14258 -4.285694,2.00171 -6.856453,2.28736 -2.570749,0.28563 -4.854748,0.28675 -7.425503,-0.2845 -2.285113,-0.28564 -4.855865,-1.14591 -7.140981,-2.00281 -1.428194,-0.85693 -2.859733,-1.4282 -4.859207,-1.4282 -0.856917,0 -1.999475,0.28786 -2.856393,0.85914 -0.856917,0.57128 -1.425968,1.4293 -1.997245,2.57187 l 0,-0.29011 c -1.428197,3.14204 -3.427671,5.99955 -5.712785,8.28467 -1.142557,1.14256 -2.572981,2.00058 -3.715538,2.57186 -1.142556,0.57128 -2.85305,0.28675 -3.709968,-0.2845 l -0.284496,0 c -1.999474,-1.14255 -4.286814,-1.71272 -6.571928,-1.71272 -2.285115,0 -4.572455,0.85469 -6.57193,1.99725 -1.999475,1.14256 -3.426557,2.85528 -4.569113,4.56911 -0.385243,0.51366 -0.623094,0.87963 -0.803362,1.18831 2.319933,-5.74742 5.971002,-8.92782 6.516145,-9.47296 2.285113,-0.57128 4.85698,-1.14033 6.856454,-1.99724 9.140456,-3.71331 18.282024,-7.42885 26.8512,-12.28471 4.284588,-2.57076 8.565834,-5.13706 12.279144,-8.27908 1.999475,-1.71385 3.714422,-3.42991 5.428255,-5.14374 1.713843,-1.71383 3.145374,-3.71331 4.859214,-5.71279 3.14203,-3.71331 6.85533,-6.57082 11.42557,-8.28465 1.99948,-0.71409 4.0659,-1.14255 6.13679,-1.24967 z m -54.985543,53.88092 c -1.428197,0 -2.856392,0.21536 -4.284587,0.78662 -1.056638,0.42265 -1.99619,1.0375 -2.867561,1.72946 0.783509,-0.60559 1.626715,-1.12616 2.583035,-1.44494 2.570752,-1.14255 5.429372,-0.8558 8.000126,-0.2845 2.570752,0.57129 5.424917,1.13922 7.710031,2.28177 0.285639,1.42821 0.573506,2.57186 0.859145,4.00007 0.285638,0.85692 0.284496,1.42596 0.284496,1.99725 l 0,0.29008 c -0.856918,-0.57126 -1.714949,-0.85803 -2.571868,-1.14365 -1.428194,-0.57128 -2.85639,-0.85803 -4.284587,-1.14368 -1.428194,-0.28563 -2.855277,-0.56905 -4.569113,-0.56905 -1.428195,0 -3.139803,-0.002 -4.853639,0.56905 l 0.284497,0 c -1.428195,0.28565 -2.284,1.14033 -3.140915,1.99725 -0.856919,0.85691 -1.716066,1.71383 -2.287342,2.85639 -0.856919,1.71383 -1.711608,3.71443 -1.997246,5.42826 -0.285641,-0.28564 -0.574621,-0.56794 -0.574621,-0.85358 -0.285639,-0.57127 -0.569051,-1.43154 -0.569051,-2.00282 0,-2.57074 0.854691,-5.4238 1.997248,-7.99455 0.558965,-1.25767 1.329306,-2.37421 2.265031,-3.29154 -1.092399,1.04493 -1.970196,2.27253 -2.549557,3.57606 -1.428197,2.57076 -1.997247,5.42714 -1.997247,8.56917 0,0.85693 0.283354,1.99948 0.56905,2.8564 0.285641,0.28564 0.573506,0.85804 0.859147,1.14367 0.285638,0.28565 0.856916,0.56793 1.428195,0.85358 0.28564,0 0.853575,0.002 0.853575,-0.56905 0,-1.99948 0.860259,-4.28347 2.002818,-5.9973 0.571276,-0.85693 1.140327,-1.71608 1.997245,-2.28736 0.856918,-0.57127 1.714949,-1.14255 2.571868,-1.42819 1.142555,-0.28564 2.281771,-0.28564 3.709965,0 1.428198,0.28564 2.571868,0.57352 4.000063,0.85914 l 4.000065,1.13811 c 0.571277,0.28563 1.425966,0.28897 1.997246,0.57462 l 0.57462,0.56905 c 0.285639,0.28564 0.85803,0.5735 1.143671,0.85914 0.856918,0.57128 1.425969,1.14033 1.997246,1.99725 0.66234,0.99348 1.116508,2.09494 1.450505,3.28039 -2.171629,-1.11821 -4.100522,-2.47866 -6.019618,-3.84945 -0.571279,-0.28562 -0.856918,-0.85802 -1.428196,-1.14366 -0.571278,-0.57128 -1.141442,-0.85803 -1.712722,-1.14367 -1.142557,-0.57128 -2.287343,-1.14367 -3.715537,-1.14367 -2.570752,-0.28565 -5.42603,0.57462 -7.425506,2.00281 -1.142556,0.85692 -2.000588,1.71384 -2.571867,2.8564 -1.428195,1.71383 -1.999473,3.14092 -1.428195,4.56911 0,0.28564 0.283354,0.28449 0.56905,0.28449 l 0,0.85915 c -1.142556,0 -2.56741,0.001 -3.709966,-0.2845 -0.57128,-0.28564 -1.141442,-0.28898 -1.712722,-0.57461 -0.571278,-0.28565 -0.856918,-0.5724 -1.428196,-1.14368 0,-0.28564 -0.28898,-0.28564 -0.574621,0 0,0 -0.285639,0.2901 0,0.2901 -0.285639,0.57127 0.286754,1.42708 1.143672,1.71273 0.571278,0.57126 1.430425,0.85356 2.287342,0.85356 1.428195,0.28565 3.140915,10e-4 4.569113,-0.28449 0.285638,0 0.284496,-0.28335 0.284496,-0.56905 -0.285641,-0.85693 0.571278,-2.00058 1.428196,-2.57187 3.71331,0.28564 7.427732,1.14144 11.141043,0.2845 0.856918,-0.85692 1.14367,-1.42486 1.14367,-2.28178 l 0,-0.29009 c 1.142555,0.85692 1.998361,1.43153 3.140917,2.00282 l -0.859144,0 c 1.142556,0 2.283998,0.28222 3.140914,0.85357 l 0.290097,0 0.56905,0 0,-0.2845 c -1.713836,-1.71383 -3.429899,-2.28288 -5.143734,-3.42544 0,0 -0.284496,-0.28898 -0.284496,-0.57462 -1.999474,-1.71383 -5.139278,-1.99501 -7.710031,-1.13811 l -0.859146,0.2845 c -0.856917,0.57128 -1.714948,0.85693 -2.571867,1.42821 -0.571277,0.57127 -1.425967,1.13921 -1.997245,2.28176 -0.560111,0.27994 -0.850919,0.83056 -1.400289,1.12137 0.145675,-2.15514 1.761709,-4.02532 3.397534,-5.11586 1.999475,-1.42818 4.286817,-2.28845 6.571931,-2.00281 1.142557,0 2.282886,0.5735 3.425443,0.85914 0.571278,0.28564 1.142556,0.56795 1.428195,0.85358 0.571279,0.28564 0.856919,0.85804 1.428196,1.14367 1.999476,1.4282 4.286815,2.57298 6.57193,3.71554 l 0.139392,0 c 0.182524,0.73039 0.329513,1.48132 0.429573,2.28178 0.571278,4.28458 0.0022,8.85815 -0.56905,13.42839 0,0.28562 -0.0011,0.28334 0.284497,0.56903 0.285639,0 0.28901,10e-4 0.574648,-0.28449 1.142556,-4.57023 1.998361,-9.14268 1.712722,-13.71291 0,-2.28512 -0.570166,-4.56577 -1.712722,-6.8509 0.285639,0 0.283354,-0.29008 0.569051,-0.29008 l 1.428197,-1.4282 c 0.856917,-1.14256 1.425938,-1.99836 1.997217,-3.14091 0,-0.28565 0.0011,-0.28336 -0.284496,-0.56905 l -0.569022,0 c -0.856919,0.85692 -1.430453,1.99947 -2.287372,2.85639 -0.285638,0.57127 -0.858031,0.85802 -1.14367,1.14367 -0.571278,-0.85692 -0.567907,-0.85915 -0.853546,-0.85915 l -0.284497,-0.28449 c 0.571278,-0.57128 0.852432,-1.14145 1.138072,-1.71273 l 0.859145,-2.57186 c 0.285639,-1.71384 0.569051,-3.42991 0.569051,-5.14374 0,-0.28563 -0.284497,-0.2845 -0.284497,-0.2845 0,0 -0.284496,-10e-4 -0.284496,0.2845 0,1.71383 -0.283354,3.4299 -0.56905,5.14374 -0.285639,1.42819 -0.861374,2.56742 -1.718293,3.70997 -0.285638,-0.28565 -0.567936,-0.56683 -0.853575,-1.13811 0.285639,-0.57127 0.284496,-1.14702 0.284496,-1.71829 0,-0.85691 -0.283354,-1.42484 -0.56905,-2.28177 -0.571277,-1.4282 -1.145899,-2.57298 -2.002817,-3.71554 -2.570752,-1.4282 -5.428257,-2.00059 -8.284651,-2.57187 -1.428195,-0.28563 -2.856392,-0.49652 -4.284588,-0.49652 z m 9.712846,19.6377 -0.56905,0 c -0.571278,0 -1.14144,-10e-4 -1.71272,0.28449 -0.28564,0 -0.572393,0.2845 -1.143671,0.2845 0.571278,0 1.141442,-0.2845 1.71272,-0.2845 0.57128,0 1.141444,-0.28449 1.712721,-0.28449 z m 39.085727,-17.8636 c -0.8257,0.0257 -1.66476,0.0791 -2.52168,0.15053 -3.14203,0.28564 -6.28629,0.86137 -9.42832,1.71829 0,0 -0.28449,-10e-4 -0.28449,0.2845 -1.14257,1.14256 -1.999482,2.28622 -2.856398,4.00006 -0.285636,0.57129 -0.570167,1.42375 -0.284501,2.5663 -0.856916,-0.57128 -1.430416,-1.14144 -2.287342,-1.71273 -1.142552,-1.14255 -2.570749,-2.57074 -2.856384,-4.28457 0,-0.28565 -0.283357,-0.2845 -0.569055,-0.2845 0,-0.28565 -0.284497,-0.28565 -0.284497,0 0.285638,1.99947 1.423739,3.71552 2.5663,5.14373 1.142552,1.42819 2.856385,2.85301 4.284582,3.70993 0.571281,0.28565 1.142565,0.28679 1.428195,-0.28449 l 0.57463,0 c 2.28511,-1.14255 4.57134,-2.00058 6.85645,-2.57186 2.28511,-0.5713 7.4255,-1.14368 7.4255,-1.14368 1.4282,0 2.56743,0.28902 3.70998,0.57465 1.14255,0.28564 2.57298,0.85692 3.71554,1.4282 2.2851,0.85691 4.28347,2.57075 5.9973,4.28458 0.57128,0.57128 1.1459,0.85803 2.00282,1.14368 0.28563,0.28563 0.85246,0.28449 1.1381,0.28449 0.57129,0 1.14256,-0.002 1.42819,-0.57464 0.28565,-0.28565 0.28565,-0.56791 0,-0.85356 l -1.42819,-4.00006 c -0.28564,-0.57128 -0.85247,-1.42597 -1.1381,-1.99724 -0.28565,-0.57128 -1.14702,-1.43155 -1.71829,-2.00282 -2.28511,-2.28511 -5.13705,-3.99672 -8.27908,-4.85364 -2.35653,-0.64269 -4.71417,-0.80558 -7.19117,-0.72523 z m -0.17309,1.14367 c 2.34313,-0.0803 4.64721,0.0825 6.7895,0.72523 2.85639,0.85693 5.71501,2.28513 8.00012,4.2846 1.14255,1.14256 1.71495,2.28177 2.57188,3.70995 0.57128,1.14258 1.14255,2.573 1.42818,3.71555 -0.28563,0 -0.5735,0.001 -0.85914,-0.2845 l -1.71272,-0.85914 c -1.99948,-1.99947 -4.00117,-3.42655 -6.57193,-4.56912 -1.14255,-0.57128 -2.56741,-1.14256 -3.70997,-1.42818 -1.4282,-0.28565 -2.57186,-0.57463 -4.00006,-0.57463 -2.85639,0 -5.14484,0.002 -7.7156,0.57463 l -6.85089,1.71271 -0.57462,-0.56906 c 0.28564,0 0.2845,-0.57238 0.2845,-1.14365 0.28564,-1.14256 1.14701,-2.28846 1.71829,-3.43102 2.8564,-0.85692 5.99731,-1.71273 8.85371,-1.71273 0.7855,-0.0715 1.56766,-0.12396 2.34872,-0.15053 z m 33.07165,4.15068 c 3.99894,0.57128 13.99187,2.28622 21.13284,9.71284 0,0 0.006,0.56795 0.29009,0.85358 0.85692,1.14256 2.85306,4.57246 2.28178,6.57194 0,0.28563 -0.28335,0.5735 -0.56906,0.85913 -1.99947,-1.71383 -6.57081,-5.14372 -11.14103,-2.28733 0,0 -2.28289,0.85692 -4.85365,-2.85639 -0.57127,-0.85692 -3.4299,-5.42716 -6.57192,-5.71279 -0.28565,-2.57075 -0.56905,-4.85587 -0.56905,-7.14098 z m -31.50397,4.6528 c -2.70467,0.0257 -5.48966,0.77434 -7.63194,2.48818 -2.57076,2.28511 -5.42715,4.28569 -8.569189,5.42827 0,0 -0.285636,0.28449 0,0.28449 0,0 0.284501,0.28564 0.284501,0 3.427668,-1.14257 6.287408,-2.85862 9.143798,-5.14374 1.14255,-1.14256 2.85528,-1.7116 4.56911,-1.99724 1.71385,-0.28565 3.4299,-0.28565 5.14374,0 1.71383,0.28564 3.14092,0.85468 4.56911,1.99724 1.4282,0.85692 2.56852,2.28734 3.42544,3.71555 l 1.71273,2.57186 c 0.28562,0.28563 0.85691,0.85802 1.42819,1.14367 0.57129,0.28563 1.43154,-0.006 2.00282,-0.29009 0.85691,-0.85693 1.99948,-1.42598 2.85638,-1.99725 1.14257,-0.57128 1.99837,-1.14257 3.14093,-1.42819 0.28563,0 0.28449,-0.28337 0.28449,-0.56905 -0.85691,-0.28565 -0.85803,-0.29011 -1.14368,-0.29011 -1.42818,0.28564 -2.56851,0.85692 -3.42543,1.42819 -1.14256,0.57128 -1.99836,1.43155 -3.14092,2.00283 -0.28564,0.28563 -0.5735,0.28563 -0.85914,0 l -0.85358,-0.85915 c -0.57128,-0.57127 -1.14256,-1.42486 -1.4282,-2.28176 -0.85691,-1.71384 -2.28734,-3.14316 -3.71553,-4.00008 -1.42819,-1.14256 -3.4299,-1.71717 -5.14373,-2.00281 -0.85693,-0.14283 -1.74843,-0.20967 -2.64997,-0.20081 z m -0.35707,2.42683 c -1.14142,0.035 -2.45137,0.27792 -3.84386,0.9205 -1.14256,0.57127 -2.8564,1.42486 -4.2846,2.28176 0,0 -2.00169,1.43155 -3.71553,2.00282 -0.28564,0 -0.2845,0.28449 -0.2845,0.28449 0,0.57129 0.56905,0.28451 0.56905,0.28451 3.14204,-0.85692 5.99732,-1.42931 7.42551,-1.14367 l 0.85914,0 c 1.4282,0 3.99895,0.001 7.14098,-0.28449 1.42819,0 2.8564,-0.28337 4.2846,-0.56905 1.42818,0.8569 2.85638,3.13979 2.85638,3.42543 -0.28565,2.28512 -1.42596,4.2857 -3.42544,5.42825 -1.99947,1.14257 -4.28681,1.42709 -6.57193,1.71273 l -3.71554,0 c -1.14255,0 -2.28288,-0.57239 -3.42544,-1.14368 -2.28511,-1.14255 -4.00006,-2.56851 -5.42826,-4.85362 0,-0.28565 -0.28335,-0.28565 -0.56905,0 -0.28563,0 -0.28563,0.28335 0,0.56905 1.4282,2.28511 3.14315,4.00006 5.42826,5.42825 1.14255,0.57128 2.28177,1.14255 3.70997,1.4282 1.14256,0.28563 2.57298,0.28335 3.71553,0.56905 2.57076,0.28563 5.42493,10e-4 7.71004,-1.71272 1.71383,-1.14256 3.14091,-3.14314 3.14091,-5.42827 0.28565,0.28565 0.5724,0.85804 1.14368,1.14368 0.57128,0.28564 1.1459,0.57462 2.00281,0.57462 0.57128,0 1.14145,-0.28898 1.71273,-0.57462 0.8569,-0.57128 1.71494,-0.85357 2.57186,-0.85357 0.85692,0 1.99948,-0.28564 2.8564,0 0.28563,0 0.28334,-0.006 0.56904,-0.29011 0.28564,-0.28563 0.28564,-0.56905 0,-0.56905 -1.99947,-0.28564 -4.28236,-0.002 -6.28183,0.56905 -0.28565,0 -0.85803,0.29011 -1.14367,0.29011 -0.28563,0 -0.85803,-0.006 -1.14368,-0.29011 -0.85691,-0.28563 -1.42596,-1.14031 -1.99723,-1.99724 0,0 -1.7183,-2.85862 -3.14649,-3.71554 -0.28565,-0.28564 -1.99725,-1.71384 -4.85365,-2.85639 -0.53556,-0.17852 -1.96376,-0.68899 -3.86615,-0.63041 z m 0.12283,1.13806 c 0.44184,0.0668 0.6025,0.49208 0.6025,0.92053 0,0.57129 -0.57239,0.85915 -1.14367,0.85915 -0.57127,0 -1.14366,-0.57351 -1.14366,-0.85915 0,-0.57127 0.57239,-0.85357 1.14366,-0.85357 0.21423,-0.0715 0.39387,-0.0891 0.54117,-0.0668 z m 4.02794,0.35148 c 1.4282,0.57129 2.85974,1.42597 3.43102,1.99725 -1.14255,0.28564 -2.28845,0.2901 -3.43102,0.2901 0.28564,-0.28565 0.28451,-0.85803 0.28451,-1.14368 0,-0.28562 0.001,-0.85803 -0.28451,-1.14367 z m -50.555908,0.28451 c 0.285639,0 0.858031,-10e-4 1.143672,0.2845 0.285639,0.28563 0.284496,0.5735 0.284496,0.85913 0,0.57129 -0.572393,0.85915 -1.143671,0.85915 -0.571277,-0.28564 -0.859145,-0.57239 -0.859145,-1.14366 0,-0.28565 0.288981,-0.85915 0.574619,-0.85915 z m 42.271268,0.2845 0,0.85913 c -0.28564,0.28565 0.006,0.85693 0.29009,1.4282 l -0.29009,0 -1.1381,0 c -0.85693,0 -2.28846,-0.001 -3.43101,0.2845 0.57127,-0.28565 0.85914,-0.56905 0.85914,-0.56905 1.14255,-0.85692 2.5674,-1.43154 3.70997,-2.00282 z m -46.555855,0.57462 c -0.28564,0.28563 -0.284496,0.85802 -0.284496,1.14366 0,0.85692 0.281067,1.7105 1.1381,2.28178 -1.713836,-0.28565 -3.140918,-0.56906 -4.569113,-0.56906 0.285639,-0.57128 0.856918,-1.14255 1.428195,-1.42819 0.856918,-0.57128 1.430425,-1.14256 2.287342,-1.42819 z m 83.404425,0.28449 c 1.14255,0.57127 2.85861,2.85639 3.71553,4.28458 4.28459,6.28407 8.85259,4.00006 9.13824,4.00006 2.85638,-1.71383 5.99731,0.56906 7.42549,1.99726 l 0,0.85914 c 0,0 1.42931,5.99508 -1.7127,15.13553 l 0,0.29011 c 0,0 -1.42598,11.42334 -4.85365,16.2792 -0.28564,0.28564 -3.71665,5.42604 -9.1438,3.14091 1.71384,-11.13993 1.14368,-22.8489 1.14368,-23.42018 0,-0.28564 -0.28451,-0.57351 -0.28451,-0.85915 -2.57075,-1.99948 -4.28569,-11.99573 -5.42826,-21.70746 z m -96.542714,6.85645 c -0.285638,0.85692 0.281069,1.7116 1.138102,1.99725 0.571277,0.28563 1.431536,0.28449 2.002816,0.28449 0.856917,0 1.999472,-0.28335 2.85639,-0.56906 l 0,0.28451 c 1.142557,1.71384 2.854165,3.14315 4.853639,4.00007 1.999474,0.85691 3.997835,1.14478 5.99731,0.85914 4.284588,-0.28565 7.997896,-2.57521 9.997371,-6.00288 l 0,-0.28449 -0.284496,0 c -1.142558,1.71383 -2.570752,2.85861 -4.284588,3.71553 -1.713836,0.85692 -3.714425,1.42931 -5.428258,1.14367 -1.999475,0 -3.708855,-0.57128 -5.422689,-1.42819 -1.713836,-0.85693 -2.857506,-2.00281 -4.000065,-3.43101 -0.285638,-0.28565 -0.856916,-0.57018 -1.428194,-0.2845 l -0.284498,0.2845 -2.856391,0 c -0.571277,0 -1.147013,10e-4 -1.718291,-0.2845 -0.28564,0.28563 -0.852461,0.28675 -1.1381,-0.28449 z m -10.571992,4.28459 c 1.428195,2.28512 3.713307,5.13928 5.712782,6.28184 0,2.2851 -0.0011,4.57133 0.284497,6.85644 -5.998422,-1.71383 -7.42439,-5.42824 -7.710028,-6.85644 1.142555,-1.71383 1.71272,-3.99672 1.71272,-6.28184 z m 116.258506,4.56911 c -0.85693,0 -1.71607,0.5724 -2.28735,1.14368 0,0.28564 -2.85416,8.2813 2.28735,13.4228 0.57128,1.14257 0.57015,2.57076 0.28449,2.8564 -0.57128,0.57128 -0.57128,1.43154 0,2.00282 0.28564,0.28563 0.57239,0.56905 1.14367,0.56905 0.28563,0 0.85246,-0.28335 1.13811,-0.56905 2.2851,-2.28512 0.57573,-6.28629 0.29009,-6.57193 0,-0.28564 -0.29009,-0.28335 -0.29009,-0.56906 -3.99896,-3.7133 -1.71273,-10.28746 -1.71273,-10.28746 0.28565,-0.85692 -0.28221,-1.7116 -0.85357,-1.99725 z m -56.46394,5.59565 c -0.111686,0.008 -0.23651,0.0457 -0.379383,0.11714 -0.285646,0.28564 -0.570167,0.57239 -0.284501,1.14368 1.713844,2.85639 2.281774,5.13813 2.281774,5.13813 0.28564,1.71383 0.28676,3.14314 -0.28449,4.00006 -0.57128,0.85693 -1.712733,0.85919 -1.712733,0.85919 -0.285635,0 -1.431529,0.28675 -2.00281,-1.71273 -0.285636,-0.57128 -0.284501,-0.85915 -0.284501,-0.85915 -0.285636,-1.14256 -1.429301,-1.99836 -2.571863,-1.71273 -1.142562,0 -2.281771,0.85581 -2.281771,1.71273 0,0.57127 -0.286753,1.99721 -2.571869,1.99721 -3.998947,1.14256 -4.855865,0.002 -5.712783,-0.85354 -0.285638,-0.28564 -0.572393,-0.85917 -1.143669,-0.85917 -0.57128,-0.28564 -1.141443,-0.28564 -1.712723,0 -0.856917,0.28563 -1.427082,1.14593 -1.712721,2.00284 -0.285638,0.28564 0,0.85243 0,1.13808 l 0,0.29011 -0.284496,-0.29011 c -1.142557,-0.57128 -1.717179,-1.13919 -2.002818,-2.28175 -0.571278,-2.57075 1.71495,-6.57196 2.571869,-8.00015 0.285639,-0.28564 0.286752,-0.85803 -0.284498,-1.14367 -0.28564,-0.28564 -0.858031,-0.28108 -1.143672,0.29012 0,0 -0.283354,0.28221 -0.56905,0.85355 -9.997371,10.56865 -11.713436,23.71142 -12.284713,26.28218 -0.57128,2.57074 -0.57128,5.42376 0,7.99452 0,0.28565 0.283355,0.2845 0.569051,0.2845 0.285638,0 0.290094,-0.28335 0.290094,-0.56903 -0.571278,-2.57078 -0.287868,-5.13931 0.569049,-7.71005 0.85692,-4.57023 2.282888,-8.28577 3.425445,-10.85652 2.856392,-5.99843 4.286816,-7.71226 5.143732,-8.56918 0,0.28565 -0.0011,0.85803 0.284499,1.14368 0.285638,1.4282 1.428194,2.56963 2.85639,3.14091 0,0 1.145899,0.57127 2.002817,0 0.285639,-0.28563 0.56905,-0.28335 0.56905,-0.56905 1.142557,0.57127 3.428786,1.1381 8.284651,1.1381 1.713836,0 5.711675,-1.14144 7.425508,-1.71271 0.571281,0.8569 1.430425,1.42819 2.287342,1.42819 l 0.569053,0 c 0,0 1.14478,-10e-4 2.28734,-1.14368 2.57075,2.8564 5.13816,5.7139 7.99455,8.28466 1.4282,1.42819 2.8564,2.57297 4.28459,3.71554 1.4282,1.14255 3.14538,2.28399 4.85921,3.14092 0.28565,0 0.28336,10e-4 0.56905,-0.2845 0,-0.28564 0.001,-0.28898 -0.28449,-0.57462 -1.71384,-0.85692 -3.14092,-1.99837 -4.56911,-3.14092 -1.4282,-1.14257 -2.57187,-2.57187 -4.00006,-4.00006 -2.57076,-2.8564 -4.85588,-5.71168 -7.14099,-8.85371 -0.28564,-0.28563 -0.28898,-0.56794 -0.57462,-0.85356 0.28564,-0.85693 10e-4,-2.00282 -0.2845,-3.43103 0,0 -0.56793,-2.57074 -2.28177,-5.71278 -0.21423,-0.21423 -0.42958,-0.42846 -0.76429,-0.4017 z m -58.366371,4.40172 c 1.142557,0.85693 2.855278,1.42708 4.569113,1.71273 -0.571278,4.57023 -0.569051,8.8537 -0.569051,13.13828 0,3.14204 0.283355,6.00176 0.569051,9.1438 -0.285639,-0.28563 -0.852461,-0.57238 -1.1381,-1.14366 -0.571278,-0.85693 -1.142558,-1.71384 -1.428197,-2.8564 -0.856917,-2.28511 -1.142555,-4.57022 -1.428195,-7.14098 -0.571279,-4.28459 -0.574621,-8.56918 -0.574621,-12.85377 z m 52.173804,19.87761 c -0.169673,0.008 -0.331406,0.0457 -0.474219,0.11713 -0.285645,0 -0.567938,0.28336 -0.85358,0.56903 l -0.57462,0.57465 c -0.571277,0.28564 -0.856917,0.56791 -1.428194,0.85354 -0.57128,0.28565 -1.141444,0.29012 -1.712723,0.29012 -0.285639,0 -0.856916,-0.289 -1.428195,-0.57465 -0.57128,-0.28562 -0.856918,-0.5679 -1.428196,-0.85354 l -1.712723,-0.85917 -0.859144,0 c -0.285639,0 -0.567937,0.28449 -0.853576,0.28449 -0.856917,0.57127 -1.714949,1.43154 -2.571867,2.00282 l -2.856393,2.5663 0,0.29009 0.284497,0 c 1.713836,-1.14255 3.714424,-2.57298 5.42826,-3.71554 0.571279,-0.57127 1.714949,-0.28675 2.571867,0.28449 0.571278,0.28565 0.856919,0.57352 1.428195,0.85915 0.57128,0.28565 1.141445,0.56906 1.712722,0.56906 0.856917,0 1.425968,-0.28335 1.997248,-0.56906 l 1.71829,-0.85915 c 0.285639,-0.28563 0.567935,-0.56903 0.853581,-0.56903 0.285635,-0.28565 0.288978,-0.2845 0.574613,-0.2845 0.571281,-0.28564 1.142562,-0.28564 1.428197,0 1.999478,1.14255 3.997832,1.99946 5.997307,2.85639 l 0.28451,0 0,-0.29009 c -2.285119,-1.14257 -3.997848,-1.99838 -5.997316,-3.14093 -0.428458,-0.21423 -1.019824,-0.42846 -1.528601,-0.40167 z m -10.276332,4.85921 c -1.191657,-0.0257 -2.265033,0.18738 -3.336179,0.40166 -1.428196,0.28564 -2.857508,0.85581 -4.000063,1.71273 -2.570754,1.14255 -4.851412,2.85416 -6.850885,4.85364 -0.285641,0.28563 -0.285641,0.28898 0,0.5746 0,0 0.283353,0.2857 0.569048,0 2.285116,-1.42818 4.855868,-2.85861 7.140981,-3.71552 1.142557,-0.57129 2.572982,-0.85803 3.715539,-1.14367 1.142558,-0.28565 2.568524,-0.2845 3.425441,-0.2845 1.142558,0.57128 2.571869,0.5735 4.000064,0.85914 1.428197,0 2.571867,-0.002 4.000064,-0.57462 3.142028,-0.57127 6.280726,-0.28563 9.422759,0 1.71383,0.28565 3.14537,0.57351 4.85921,0.85915 l 2.28177,0.56906 c 0.57128,0 1.43042,0.5735 2.28734,0.85914 0.28563,0 0.28335,0.001 0.56905,-0.2845 0,-0.28564 10e-4,-0.28898 -0.2845,-0.57462 -0.57127,-0.28564 -1.14479,-1.14255 -2.28734,-1.42819 l -2.28177,-0.85358 c -1.71384,0 -3.4299,-0.28787 -5.14374,-0.85915 -3.142033,-0.85691 -6.85422,-0.8547 -10.281897,-0.56905 -1.142556,0.28564 -2.282886,0.28449 -3.425442,0.28449 -1.142558,0 -2.28957,-0.28898 -3.146488,-0.57461 -0.428458,-0.0715 -0.835722,-0.1026 -1.232934,-0.11166 z m 20.089579,4.68625 c -2.28512,1.14255 -4.860322,1.42597 -7.431081,1.99725 -2.570749,0.28564 -5.13816,0.28449 -7.994552,0.28449 l -0.284496,0 c -1.999474,0.28565 -4.28793,0.28565 -6.287406,0 -1.999475,0 -4.283472,-0.28675 -5.997308,-1.14367 -0.285639,0 -0.283354,0.006 -0.56905,0.2901 l 0,0.2845 c 1.999474,2.28516 4.281245,3.13984 6.566358,3.42541 2.285115,0.57126 4.571343,0.57018 6.856456,0.2845 l -0.284497,0 c 2.856393,0 5.713899,-0.28224 8.284658,-0.85361 1.428187,-0.28557 2.851927,-0.85682 3.994488,-1.42808 1.14255,-0.57134 2.57409,-1.42937 3.43101,-2.57192 l 0,-0.56905 -0.28449,0 z m -14.019745,6.73937 c -1.405888,-0.0143 -2.692378,0.25754 -3.977753,0.68613 -1.713837,0.57126 -3.429899,1.71163 -3.715539,3.4254 0,0.28569 0.0058,0.28903 0.290096,0.57472 l 0.284495,0 c 1.142557,-1.14263 2.281772,-1.43154 3.70997,-2.00292 1.428194,-0.28557 2.860848,-0.28449 4.574682,-0.28449 1.428196,0 3.140921,-10e-4 4.569119,0.28449 1.428187,0.28568 2.856384,0.57138 4.284581,1.4282 0.285644,0 0.283354,10e-4 0.569054,-0.2845 l 0,-0.28449 c -1.142563,-1.14252 -2.57076,-2.00054 -4.284593,-2.57179 -1.713832,-0.57126 -3.425439,-0.85922 -4.853636,-0.85922 -0.499869,-0.0716 -0.981885,-0.10736 -1.450504,-0.11213 z m 59.493305,5.26089 c -0.16995,0.1565 -0.32696,0.3507 -0.46865,0.5914 0.21195,-0.1708 0.42375,-0.343 0.636,-0.5133 l -0.16737,-0.077 z m -33.19442,8.7086 c -0.42846,0 -0.85803,0.1383 -1.14367,0.424 -8.56918,7.7123 -17.135012,11.4288 -25.132906,10.572 -11.139929,-1.1426 -17.997498,-10.2819 -17.997498,-10.2819 -0.571279,-0.5713 -1.425968,-0.8614 -1.997246,-0.2901 -0.571279,0.5712 -0.855805,1.4316 -0.284499,2.0028 0.285641,0.2856 7.711146,10.283 20.279271,11.4256 l 2.571867,0 c 8.283541,0 16.564851,-3.7133 24.848381,-11.4256 0.57128,-0.5712 0.57128,-1.4316 0,-2.0028 -0.28564,-0.2857 -0.71521,-0.424 -1.14366,-0.424 z m -62.751359,2.0865 c 0.09254,0.2517 0.187091,0.5009 0.267643,0.7587 l 0.79222,-0.4574 c -0.355191,-0.092 -0.699386,-0.198 -1.060007,-0.3013 z m -31.481669,30.829 0,0.3961 c 0.0357,0.012 0.07027,0.016 0.105973,0.028 0.002,-0.1268 -0.0019,-0.1689 0,-0.2845 -0.03685,-0.039 -0.06913,-0.099 -0.105973,-0.1394 z m 90.232968,7.7881 c -0.0823,0.048 -0.16853,0.081 -0.25109,0.1283 0.1357,10e-5 0.27166,-10e-5 0.40727,0 -0.0488,-0.037 -0.10771,-0.091 -0.15624,-0.1283 z m -60.274328,3.7714 c 0.02286,0.1003 0.07999,0.2585 0.08912,0.2957 0.01713,0.1464 0.0517,0.2943 0.07798,0.4406 0.139675,0.026 0.279354,0.055 0.418404,0.083 -0.22023,-0.2928 -0.39187,-0.5559 -0.585791,-0.8201 z"
       style="fill:#800000" />
  </g>
</svg>
